<svg xmlns="http://www.w3.org/2000/svg" viewBox="0 0 621.6 392.49"><defs><style>.cls-1{fill:#fed925;}</style></defs><g id="Capa_2" data-name="Capa 2"><g id="Capa_1-2" data-name="Capa 1"><path class="cls-1" d="M448.1,43c-18,3.5-31.5,15-31.5,33.5V242l154-171c2.5-4,4.5-9,4.5-13,0-1.5,0-12-15.5-15h62c-13.5,2.5-36,16-48.5,28.5-16,18-35.5,40-51,57.5-9,10.5-18,20.5-27.5,30.5,13.5,28.5,27,56,39.5,82.5,21,45,47,97.5,62,128.5,4.5,9.5,12.5,17,24,22H549.6c7.5-6,7.5-11,7.5-13.5,0-4-1-9.5-4-17-13.5-28-34-73-51.5-109-10.5-21.5-21-43.5-32-66l-53,58.5v114c0,18,13.5,30.5,31.5,33H347.6c13.5-1.5,30.5-11,32-30.5V77c-1.5-20-18.5-32-32-34Z"/><path class="cls-1" d="M274,43c-13.5,2-30.5,14-32,34V362c1.5,19.5,18.5,29,32,30.5H173.5c18-2.5,31.5-15,31.5-33v-114L152,187c-11,22.5-21.5,44.5-32,66-17.5,36-38,81-51.5,109-3,7.5-4,13-4,17,0,2.5,0,7.5,7.5,13.5H1.5c11.5-5,19.5-12.5,24-22,15-31,41-83.5,62-128.5,12.5-26.5,26-54,39.5-82.5-9.5-10-18.5-20-27.5-30.5-15.5-17.5-35-39.5-51-57.5C36,59,13.5,45.49,0,43H62c-15.5,3-15.5,13.5-15.5,15,0,4,2,9,4.5,13L205,242V76.49c0-18.5-13.5-30-31.5-33.5Z"/><path class="cls-1" d="M293.17,317V32.5c0-21.5-19-30-32-32.5h100.5c-17.5,3.5-31.5,14.5-31.5,33V317.5c.5,17.5,14,29.5,31.5,32H261.17C274.17,348,293.17,338,293.17,317Z"/></g></g></svg>