<?xml version="1.0" standalone="no"?>
<!DOCTYPE svg PUBLIC "-//W3C//DTD SVG 1.1//EN" "http://www.w3.org/Graphics/SVG/1.1/DTD/svg11.dtd" >
<svg xmlns="http://www.w3.org/2000/svg" xmlns:xlink="http://www.w3.org/1999/xlink" version="1.1">
<metadata>
Created by FontForge 20170731 at Wed May 25 21:54:54 2022
 By Aleksey,,,
Copyright (c) 2021 by 177Studio.com. All rights reserved.
</metadata>
<defs>
<font id="Gangitem-Regular" horiz-adv-x="452" >
  <font-face 
    font-family="Gangitem"
    font-weight="400"
    font-stretch="normal"
    units-per-em="2048"
    panose-1="2 0 5 6 2 0 0 2 0 3"
    ascent="1638"
    descent="-410"
    x-height="987"
    cap-height="1434"
    bbox="-1116 -1051.43 7873 2558"
    underline-thickness="0"
    underline-position="0"
    unicode-range="U+000A-FB02"
  />
<missing-glyph horiz-adv-x="915" 
d="M20 1434h875v-1434h-875v1434zM78 1393l379 -633l381 633h-760zM432 717l-369 614v-1231zM459 674l-379 -631h758zM483 717l371 -621v1239z" />
    <glyph glyph-name="uniF401" unicode="ae" horiz-adv-x="1886" 
d="M100 61q-80 72 -80 187q0 81 39 145q26 44 72.5 80.5t95.5 63t98 54t92 67.5t66 90q17 42 17 67q0 43 -27 78q-34 41 -86 41q-11 0 -27 -4q-25 -7 -52 -43.5t-60 -36.5h-8q-29 0 -43.5 19t-14.5 38q0 24 17 43q29 39 92 39q43 0 91 -19.5t81 -49.5q47 -41 47 -101
q0 -65 -47 -135q-12 -18 -60 -78q-36 -41 -116 -121q-73 -73 -101 -133q-20 -43 -20 -94q0 -39 10 -68q26 -81 80.5 -127.5t122.5 -46.5q19 0 29 2q51 6 99 37t114 95q226 210 512 333t593 142v10q0 71 -26.5 139.5t-75.5 120.5q-85 90 -201 90q-31 0 -61 -6
q-87 -19 -150 -94.5t-91.5 -172t-28.5 -200.5v-18q-35 -13 -142 -68q-1 9 -2 27.5t-2 27.5v21q0 112 45 207.5t118 158.5t165 98t188 35q81 0 152.5 -24t128.5 -70.5t90 -121.5t33 -169h-35q-373 0 -735 -163q12 -118 59 -211.5t133.5 -151t200.5 -57.5h20q126 5 224.5 90.5
t115.5 212.5h11q-6 -57 -34 -113.5t-76.5 -106.5t-127 -81t-174.5 -31q-85 0 -163 22t-146 66.5t-116.5 119t-66.5 171.5q-80 -45 -163 -104v-142q1 -52 37 -87t92 -46h-125q-66 0 -111 44.5t-45 107.5q-75 -77 -135.5 -114.5t-140.5 -43.5q-18 -2 -54 -2q-31 0 -48.5 1
t-49.5 6.5t-60 20t-53 37.5zM500 987q58 -4 108.5 -25t93 -60.5t67 -105t24.5 -149.5v-317q-61 -42 -152 -115v447q0 81 -14 141q-31 144 -127 184z" />
    <glyph glyph-name="uniF402" unicode="am" horiz-adv-x="2662" 
d="M100 57q-80 72 -80 187q0 81 39 145q26 44 72.5 80.5t95.5 62.5t98 53.5t92 67.5t66 90q17 42 17 68q0 43 -27 78q-34 41 -86 41q-11 0 -27 -4q-25 -7 -52 -43.5t-60 -36.5h-8q-29 0 -43.5 19t-14.5 38q0 24 17 43q29 39 92 39q43 0 91 -20t81 -50q47 -41 47 -100
q0 -65 -47 -135q-12 -18 -60 -78q-36 -41 -116 -121q-73 -73 -101 -133q-20 -43 -20 -94q0 -39 10 -68q26 -81 80.5 -127.5t122.5 -46.5q19 0 29 2q110 12 233 160v473v23q0 39 -6 81.5t-20 91t-44 86.5t-71 54q58 -4 108.5 -25t93 -60.5t67 -105t24.5 -149.5v-287
q165 202 272 318v188q-4 55 -44.5 85t-88.5 40h285v-158q134 120 204 140q55 18 121 18q27 0 41 -2q97 -8 170.5 -76t101.5 -188q6 84 63 153t148 95q62 18 129 18q5 0 17 -1t18 -1q120 -8 201.5 -112t81.5 -267v-14v-461q4 -53 38.5 -86.5t90.5 -44.5h-412q49 7 89 40.5
t44 90.5v524q0 150 -66.5 224.5t-164.5 74.5q-107 0 -187.5 -77.5t-80.5 -180.5v-18q1 -9 1.5 -14.5t1 -13t1 -18t0.5 -23v-35v-46.5v-66v-84.5v-110v-136.5q1 -52 37 -86t92 -45h-412q47 5 89 40t42 91v524q0 79 -22.5 144.5t-76.5 110t-132 44.5q-72 0 -134.5 -38
t-133.5 -105q-106 -96 -249 -263t-247 -296.5t-129 -147.5q-59 -52 -111.5 -79t-115.5 -31q-18 -2 -54 -2q-31 0 -48.5 1t-49.5 6.5t-60 20t-53 37.5zM1346 0h-412q45 5 84.5 36.5t46.5 84.5v497q86 92 152 156v-643q1 -52 37 -86t92 -45zM645 121q6 7 148 178v-166
q1 -52 37 -87t92 -46h-125q-56 0 -98 33.5t-54 87.5z" />
    <glyph glyph-name="uniF403" unicode="an" horiz-adv-x="2017" 
d="M100 57q-80 72 -80 187q0 81 39 145q26 44 72.5 80.5t95.5 62.5t98 53.5t92 67.5t66 90q17 42 17 68q0 43 -27 78q-34 41 -86 41q-11 0 -27 -4q-25 -7 -52 -43.5t-60 -36.5h-8q-27 1 -42.5 17.5t-15.5 37.5v10q6 35 38.5 54.5t70.5 19.5q43 0 91 -20t81 -50
q47 -41 47 -100q0 -65 -47 -135q-12 -18 -60 -78q-36 -41 -116 -121q-73 -73 -101 -133q-20 -43 -20 -94q0 -39 10 -68q26 -81 80.5 -127.5t122.5 -46.5q19 0 29 2q110 12 233 160v473v23q0 39 -6 81.5t-20 91t-44 86.5t-71 54q58 -4 108.5 -25t93 -60.5t67 -105
t24.5 -149.5v-287q165 202 272 318v188q-4 55 -44.5 85t-88.5 40h285v-158q134 120 204 140q55 18 121 18q27 0 41 -2q107 -8 184 -88.5t97 -218.5q1 -9 1.5 -14.5t1 -13t1 -18t0.5 -23v-35v-46.5v-66v-84.5v-110v-136.5q1 -52 37 -86t92 -45h-412q47 5 89 40t42 91v524
q0 79 -22.5 144.5t-76.5 110t-132 44.5q-72 0 -134.5 -38t-133.5 -105q-106 -96 -249 -263t-247 -296.5t-129 -147.5q-59 -52 -111.5 -79t-115.5 -31q-7 0 -21.5 -1t-21.5 -1q-34 0 -53 1t-52.5 6.5t-62.5 20t-54 37.5zM1346 0h-412q45 5 84.5 36.5t46.5 84.5v497
q86 92 152 156v-643q1 -52 37 -86t92 -45zM922 0h-125q-56 0 -98 33.5t-54 87.5q6 7 148 178v-166q1 -52 37 -87t92 -46z" />
    <glyph glyph-name="uniF404" unicode="ap" horiz-adv-x="1992" 
d="M23 219q0 5 -1.5 14.5t-1.5 14.5q0 81 39 145q26 44 72.5 80.5t95.5 63t98 54t92 67.5t66 90q17 42 17 67q0 43 -27 78q-34 41 -86 41q-11 0 -27 -4q-25 -7 -52 -43.5t-60 -36.5h-8q-27 1 -42.5 17.5t-15.5 37.5v10q6 35 38.5 54.5t70.5 19.5q43 0 91 -19.5t81 -49.5
q47 -41 47 -101q0 -65 -47 -135q-45 -67 -123 -145l-53 -54q-73 -73 -101 -133q-20 -43 -20 -94q0 -39 10 -68q26 -81 80.5 -127.5t122.5 -46.5q19 0 29 2q110 12 233 160v473v23q0 39 -6 81.5t-20 91t-44 86.5t-71 54q58 -4 108.5 -25t93 -60.5t67 -105t24.5 -149.5v-287
q203 243 268 314v203q-7 50 -47 79.5t-84 34.5h282v-164q199 156 371 156q6 0 17.5 -1t17.5 -1q185 -11 280 -172q72 -121 72 -281q0 -118 -43 -227q-36 -86 -88 -141q-124 -133 -303 -158q-25 -4 -72 -4q-142 0 -252 78v-455q4 -49 39.5 -81t87.5 -40h-409q45 5 84.5 36.5
t46.5 84.5v1000q89 100 151 159v-692q118 -80 232 -80q115 0 211 74q64 51 107.5 132t56.5 159q12 76 12 131q0 142 -49 250q-38 81 -101.5 132t-146.5 58q-5 0 -14.5 1t-14.5 1q-126 0 -293 -135q-93 -89 -151 -154q-88 -95 -197 -227t-180 -218.5t-92 -102.5
q-60 -52 -112 -79.5t-115 -31.5q-18 -2 -54 -2q-31 0 -48.5 1t-49.5 6.5t-60 20t-53 37.5q-67 58 -77 158zM700 39q-43 34 -55 86q6 7 148 178v-166q1 -52 37 -87t92 -46h-125q-56 0 -97 35z" />
    <glyph glyph-name="uniF405" unicode="as" horiz-adv-x="1613" 
d="M23 223q0 5 -1.5 14.5t-1.5 14.5q0 81 39 145q26 44 72.5 80.5t95.5 63t98 54t92 67.5t66 90q17 42 17 67q0 43 -27 78q-34 41 -86 41q-11 0 -27 -4q-25 -7 -52 -43.5t-60 -36.5h-8q-58 2 -58 59q0 21 17 41q29 39 92 39q43 0 91 -19.5t81 -49.5q47 -41 47 -101
q0 -65 -47 -135q-45 -67 -123 -145l-53 -54q-73 -73 -101 -133q-20 -43 -20 -94q0 -38 10 -67q26 -80 81 -127.5t122 -47.5q14 0 29 3q55 7 108.5 43.5t124.5 109.5v490q0 81 -14 141q-31 144 -127 184q58 -4 108.5 -25t93 -60.5t67 -105t24.5 -149.5v-510q0 -22 10 -49
q29 -82 110.5 -122t192.5 -40q101 0 196 30t160 86.5t70 125.5v12q0 35 -16.5 65t-39.5 51.5t-66 44.5t-77 38t-92 37q-295 106 -295 315v17q5 108 75.5 174.5t217.5 66.5q77 0 160 -38.5t145 -94.5v-2q-2 -2 -4 -2t-2 -2q-152 131 -303 131q-19 0 -27 -2
q-96 -10 -151.5 -57t-63.5 -113v-16q0 -42 22 -77t65.5 -64t91 -50.5t116.5 -46.5q67 -25 115.5 -49.5t94 -59t69.5 -80t24 -100.5v-8q-3 -70 -32.5 -128t-77.5 -97t-111.5 -66t-132.5 -39t-143 -12q-111 0 -209.5 26t-165 77t-76.5 116q0 4 -1 12.5t-1 12.5
q-153 -162 -276 -162q-6 0 -19.5 -1t-19.5 -1q-44 0 -74.5 3t-74.5 18.5t-77 44.5q-67 58 -77 157z" />
    <glyph glyph-name="uniF406" unicode="ce" horiz-adv-x="1996" 
d="M23 477q0 6 -1.5 19.5t-1.5 19.5q0 106 43.5 198t120.5 158q70 61 159.5 92t174.5 31h10q72 -2 137 -27.5t114.5 -67.5t86.5 -89.5t64 -101.5l-8 -4q-58 121 -161 197.5t-218 76.5q-79 0 -144 -33q-117 -58 -171 -168.5t-54 -242.5q0 -93 23 -189q36 -153 127 -237
t235 -84q59 0 128 35.5t119 77.5t134 116.5t131 112.5q106 87 207 127q281 114 559 131v10q0 71 -26.5 139.5t-75.5 120.5q-85 90 -201 90q-31 0 -61 -6q-86 -18 -149.5 -94.5t-91.5 -170t-28 -188.5v-32q-30 -12 -73.5 -37.5t-67.5 -44.5q-4 46 -4 69v21q0 112 44 207.5
t117 158.5t164.5 98t188.5 35q109 0 198.5 -41t147 -130t57.5 -214h-22q-313 0 -608 -108q-74 -24 -140 -62q18 -179 121.5 -296t269.5 -117h23q126 5 224.5 90.5t115.5 212.5h12q-6 -57 -34 -113.5t-76 -106.5t-126.5 -81t-174.5 -31q-111 0 -208 35.5t-174.5 117
t-105.5 199.5q-48 -38 -112.5 -97.5t-109.5 -98.5t-103 -79.5t-121.5 -60.5t-134.5 -20q-79 0 -152 23t-137.5 69t-110 125.5t-61.5 183.5q-8 31 -8 76z" />
    <glyph glyph-name="uniF407" unicode="cb" horiz-adv-x="2045" 
d="M23 481q0 6 -1.5 19.5t-1.5 19.5q0 107 43.5 200t120.5 159q70 61 159 91.5t175 30.5h10q71 -2 136.5 -28t115 -68.5t87 -90.5t63.5 -101l-8 -4q-58 121 -161 197.5t-218 76.5q-79 0 -144 -33q-116 -55 -170.5 -165.5t-54.5 -243.5q0 -93 23 -191q36 -153 126 -237
t230 -84h6q50 1 101 23.5t98 62.5t91.5 88.5t89.5 111t83.5 121t82.5 126.5q3 5 5 8l5 7.5t5 8.5v717q0 60 -40 92.5t-91 42.5h283v-625q76 102 143 135q70 35 225 43q10 -2 31 -2q95 -6 166.5 -51.5t116.5 -120.5q71 -120 71 -280q0 -124 -43 -228q-34 -83 -90 -141
q-110 -121 -303 -160q-23 -4 -67 -4q-155 0 -267 86q0 -2 -2 -4q-19 -37 -56 -59.5t-81 -22.5h-125q56 8 92 43.5t37 89.5v379q29 47 83 124.5t69 100.5v-583q0 -34 -12 -58q110 -84 237 -84q115 0 211 74q82 64 125 168q44 106 47 172q1 16 1.5 36.5t1 32t1.5 17.5
q-4 235 -127 356q-61 61 -141 76q-27 6 -57 6q-49 0 -93 -12q-82 -26 -133 -80q-15 -15 -61 -69q-59 -76 -152 -226q-5 -8 -31 -49t-33.5 -53t-31 -49t-35 -53t-33 -46.5t-36.5 -50t-34.5 -43t-37.5 -43.5q-161 -176 -340 -176h-16q-81 4 -153 27.5t-136.5 69t-110 123.5
t-63.5 182q-1 8 -2.5 23t-2.5 27.5t-1 24.5z" />
    <glyph glyph-name="uniF408" unicode="ch" horiz-adv-x="2072" 
d="M23 477q0 6 -1.5 19.5t-1.5 19.5q0 106 43.5 199t120.5 159q70 61 159.5 92t174.5 31h10q71 -2 136.5 -28t115 -68.5t87 -90.5t63.5 -101l-8 -4q-60 123 -162 199.5t-215 76.5q-68 0 -146 -35q-116 -55 -170.5 -165.5t-54.5 -243.5q0 -93 23 -191q36 -153 126 -237
t230 -84h6q50 1 101 23.5t98 62.5t91.5 88.5t89.5 111t83.5 121t82.5 126.5q3 5 5 8l5 7.5t5 8.5v721q0 58 -40 89.5t-91 41.5h283v-625q76 102 143 135q73 43 187 43q7 0 19.5 -1t18.5 -1v-2q121 -8 202 -111t81 -266v-14v-461q1 -52 37 -86t92 -45h-412q48 5 90 40t42 91
v524q0 128 -50 201t-129 92q-24 6 -51 6q-49 0 -106 -22.5t-103 -73.5q-9 -9 -61 -70q-56 -73 -152 -223q-56 -91 -88.5 -142t-84.5 -123.5t-99 -123.5q-161 -176 -340 -176h-16q-64 3 -122.5 17.5t-115 45.5t-100.5 75.5t-77.5 112t-47.5 150.5q-6 75 -6 76zM1401 0h-412
q45 5 84.5 36.5t46.5 84.5v391q29 47 83 124.5t69 100.5v-606q1 -52 38.5 -87.5t90.5 -43.5z" />
    <glyph glyph-name="uniF409" unicode="cm" horiz-adv-x="2717" 
d="M23 479q0 6 -1.5 19.5t-1.5 19.5q0 107 43.5 200t120.5 159q70 61 159 91.5t175 30.5h10q71 -2 136.5 -28t115 -68.5t87 -90.5t63.5 -101l-8 -4q-58 121 -161 197.5t-218 76.5q-79 0 -144 -33q-116 -55 -170.5 -165.5t-54.5 -243.5q0 -93 23 -191q36 -153 126 -237
t230 -84h6q44 1 88.5 19t81.5 42.5t81 69.5t75 82t75 100t69.5 102t69.5 109l21 33v280q-4 55 -44.5 85t-88.5 40h285v-178q76 102 143 135q73 43 187 43q7 0 19.5 -1t18.5 -1q96 -8 169.5 -76.5t101.5 -187.5q6 84 63 153t148 95q62 18 129 18q5 0 17 -1t18 -1
q120 -8 201 -112t81 -267v-14v-461q4 -53 38.5 -86.5t90.5 -44.5h-409q45 5 86 40t45 91v524q0 150 -67 224.5t-165 74.5q-107 0 -187.5 -77.5t-80.5 -180.5v-18q4 -54 4 -86v-461q1 -52 37 -86t92 -45h-412q48 5 90 40t42 91v524q0 149 -66.5 224t-161.5 75q-86 0 -146 -42
t-126 -123q-59 -76 -152 -226q-5 -8 -31 -49t-33.5 -53t-31 -49t-35 -53t-33 -46.5t-36.5 -50t-34.5 -43t-37.5 -43.5q-161 -176 -334 -176h-22q-64 3 -122.5 17.5t-115 45.5t-100.5 75.5t-77.5 112t-47.5 150.5q-6 75 -6 76zM1401 2h-412q45 5 84.5 36.5t46.5 84.5v391
q29 47 83 124.5t69 100.5v-606q8 -107 129 -131z" />
    <glyph glyph-name="uniF410" unicode="cn" horiz-adv-x="2072" 
d="M23 481q0 6 -1.5 18.5t-1.5 18.5q0 170 103 297q96 119 250 164q76 22 155 22q71 -2 136.5 -28t115 -68.5t87 -90.5t63.5 -101l-8 -4q-58 121 -161 197.5t-218 76.5q-79 0 -144 -33q-116 -55 -170.5 -165.5t-54.5 -243.5q0 -93 23 -191q36 -153 126 -237t230 -84h6
q44 1 88.5 19t81.5 42.5t81 69.5t75 82t75 100t69.5 102t69.5 109l21 33v280q-4 55 -44.5 85t-88.5 40h285v-178q76 102 143 135q73 43 187 43q7 0 19.5 -1t18.5 -1q120 -8 201.5 -111.5t81.5 -267.5v-14v-461q1 -52 37 -86t92 -45h-412q48 5 90 40t42 91v524
q0 149 -66.5 224t-161.5 75q-86 0 -146 -42t-126 -123q-59 -76 -152 -226q-5 -8 -31 -49t-33.5 -53t-31 -49t-35 -53t-33 -46.5t-36.5 -50t-34.5 -43t-37.5 -43.5q-161 -176 -334 -176h-22q-81 4 -153 27.5t-136.5 69t-110 123.5t-63.5 182q-1 8 -2.5 23t-2.5 27.5t-1 24.5z
M1401 4h-412q45 5 84.5 36.5t46.5 84.5v391q29 47 83 124.5t69 100.5v-606q8 -107 129 -131z" />
    <glyph glyph-name="uniF411" unicode="cs" horiz-adv-x="1726" 
d="M23 477q0 6 -1.5 19.5t-1.5 19.5q0 106 43.5 198t120.5 158q70 61 159.5 92t174.5 31h10q72 -2 137 -27.5t114.5 -67.5t86.5 -89.5t64 -101.5l-8 -4q-58 121 -161 197.5t-218 76.5q-79 0 -144 -33q-61 -29 -106 -75t-71 -101.5t-38 -113.5t-12 -121q0 -98 25 -189
q25 -99 93.5 -173.5t153.5 -116t195.5 -67.5t203 -34t193.5 -8q188 0 341 36t222 113q40 40 46 86q0 4 1 11.5t1 11.5q0 38 -21 69t-64 57.5t-88 46t-114 44.5q-66 23 -115.5 48t-94 61t-68 85.5t-23.5 110.5v16q5 109 75.5 176.5t217.5 67.5q77 0 159.5 -39.5t145.5 -95.5
h-2q-2 -2 -2 -4t-2 -2q-84 72 -165 102.5t-145 30.5q-3 0 -10 -1t-10 -1q-96 -12 -151.5 -58t-63.5 -112v-16q0 -41 22 -75.5t65.5 -62t91.5 -48.5t116 -44q67 -23 115.5 -46.5t94 -56.5t69.5 -77.5t24 -99.5v-9q-4 -91 -62.5 -158t-157 -104.5t-214 -55t-250.5 -17.5
q-185 0 -342 26q-171 28 -270 66q-107 40 -182.5 90t-118 108t-62.5 118.5t-22 131.5z" />
    <glyph glyph-name="uniF412" unicode="db" horiz-adv-x="2125" 
d="M461 952q-121 -10 -194.5 -103t-94.5 -224q-16 -107 -2 -201q9 -70 35.5 -138.5t69 -128t106 -96t137.5 -36.5q78 0 136.5 39.5t121.5 113.5v553q-45 159 -213 213q-48 11 -102 8zM780 127q8 8 18 19.5t24 28.5t24 28q46 57 82 100v-166q3 -54 38.5 -89t90.5 -44h-125
q-45 0 -84 25q-36 20 -55 63l-5 8q-6 20 -8 27zM154 168q-108 113 -129 313q-9 85 10 176q24 138 115 230.5t227 101.5q75 6 137 -8q93 -23 163.5 -80t98.5 -143v682h281q-43 0 -84 -33q-45 -34 -45 -104v-943q137 174 270 318v627q0 61 -43 98q-48 32 -88 37h283v-606
q118 108 188 135q57 17 109 20q57 3 102 0q138 -9 226.5 -99.5t117.5 -232.5q16 -96 8 -176q-19 -179 -123.5 -306t-279.5 -161q-28 -4 -29 -4q-37 -6 -74 -6q-155 0 -262 88q0 -4 -2 -4q-19 -38 -55.5 -61t-79.5 -23h-127q56 9 91 44t38 89v486q50 54 78 82l74 73v-618
q0 -31 -13 -60q109 -84 238 -84q112 0 201 68q6 2 10 6q83 64 126 168t50 221q6 110 -25 221q-66 209 -243 248q-27 8 -72 8q-85 0 -149 -43q-70 -51 -123 -98q-63 -56 -137 -135.5t-119 -132.5t-123 -148q-56 -70 -109 -133q-50 -58 -84 -102q-135 -158 -278 -158
q-84 3 -171 40.5t-149 96.5l-12 13q-8 8 -14 12z" />
    <glyph glyph-name="uniF413" unicode="dh" horiz-adv-x="2150" 
d="M461 952q-121 -10 -194.5 -103t-94.5 -224q-16 -107 -2 -201q9 -70 35.5 -138.5t68.5 -128t105.5 -96t136.5 -36.5q77 0 137.5 40t122.5 113v553q-45 159 -213 213q-48 11 -102 8zM780 127q8 8 18 19.5t24 28.5t24 28q46 57 82 100v-166q3 -54 38.5 -89t90.5 -44h-125
q-45 0 -84 25q-36 20 -55 63l-5 8q-6 20 -8 27zM154 168q-108 113 -129 313q-9 85 10 176q24 138 115 230.5t227 101.5q75 6 137 -8q93 -23 163.5 -80t98.5 -143v680h281q-44 0 -84 -31q-45 -34 -45 -104v-943q6 7 53.5 65t75.5 91q106 124 141 162v629q0 31 -12 55
q-20 28 -33 39q-44 32 -86 37h283v-604q69 63 149 116q12 5 29 15q39 20 106 24q40 3 84 0q96 -4 164.5 -68t97.5 -161q24 -80 21 -164v-461q3 -52 39.5 -87t89.5 -44h-412q42 5 86 37q45 36 45 94v524q0 79 -18 138q-62 161 -211 161q-96 0 -164 -55q-1 -1 -4 -3t-4 -3
l-8 -8q-2 -1 -6.5 -4t-6.5 -4q-56 -43 -122 -109q-179 -179 -404 -459q-24 -28 -61 -73t-49 -60q-139 -174 -291 -174q-84 3 -171 40.5t-149 96.5l-12 13q-8 8 -14 12zM1479 4h-412q43 6 84 35q16 14 33 37q11 19 14 49v500q14 14 39.5 41.5t38.5 40.5q31 33 74 73v-645
q3 -52 39.5 -87t89.5 -44z" />
    <glyph glyph-name="uniF414" unicode="dm" horiz-adv-x="2795" 
d="M461 952q-121 -10 -194.5 -103t-94.5 -224q-16 -107 -2 -201q9 -70 35.5 -138.5t69 -128t106 -96t137.5 -36.5q78 0 136.5 39.5t121.5 113.5v553q-45 159 -213 213q-48 11 -102 8zM780 127q8 8 18 19.5t24 28.5t24 28q46 57 82 100v-166q3 -54 38.5 -89t90.5 -44h-125
q-45 0 -84 25q-36 20 -55 63l-5 8q-6 20 -8 27zM1479 4h-412q43 6 84 35q16 14 33 37q11 19 14 49v500q14 14 39.5 41.5t38.5 40.5q31 33 74 73v-645q3 -52 39.5 -87t89.5 -44zM154 168q-108 113 -129 313q-9 85 10 176q24 138 115 230.5t227 101.5q75 6 137 -8
q93 -23 163.5 -80t98.5 -143v680h281q-44 0 -84 -31q-45 -34 -45 -104v-943q6 7 53.5 65t75.5 91q106 124 141 162v182q0 34 -12 58q-19 26 -33 38q-41 28 -86 35h283v-157q69 63 149 116q5 2 14.5 6.5t14.5 6.5q16 8 26 10q83 22 164 16q106 -10 176.5 -81.5t94.5 -180.5
q9 89 66 156t145 90q83 22 163 16q96 -4 165 -68t98 -161q23 -77 20 -164v-461q3 -51 40 -86.5t89 -44.5h-410q40 5 84 37q42 36 48 94v524q0 76 -19 138q-62 161 -213 161q-51 0 -100 -18q-107 -47 -148 -141q-25 -51 -22 -109q6 -44 6 -94v-461q3 -52 39.5 -87t89.5 -44
h-412q42 5 86 37q45 36 45 94v524q0 79 -18 138q-61 159 -213 159q-40 0 -84 -12q-46 -16 -78 -41q-1 -1 -4 -3t-4 -3l-8 -8q-2 -1 -6.5 -4t-6.5 -4q-14 -11 -39 -33t-38 -33q-187 -173 -449 -502q-24 -28 -61 -73t-49 -60q-139 -174 -291 -174q-84 3 -169.5 40.5
t-150.5 96.5l-12 13q-8 8 -14 12z" />
    <glyph glyph-name="uniF415" unicode="dn" horiz-adv-x="2150" 
d="M461 952q-121 -10 -194.5 -103t-94.5 -224q-16 -107 -2 -201q9 -70 35.5 -138.5t68.5 -128t105.5 -96t136.5 -36.5q77 0 137.5 40t122.5 113v553q-45 159 -213 213q-48 11 -102 8zM793 92l-5 8q-6 20 -8 27q8 8 18 19.5t24 28.5t24 28q46 57 82 100v-166q3 -54 38.5 -89
t90.5 -44h-125q-45 0 -84 25q-36 20 -55 63zM154 168q-108 113 -129 313q-9 85 10 176q24 138 115 230.5t227 101.5q75 6 137 -8q93 -23 163.5 -80t98.5 -143v680h281q-44 0 -84 -31q-45 -34 -45 -104v-943q6 7 53.5 65t75.5 91q106 124 141 162v182q0 34 -12 58
q-19 26 -33 38q-41 28 -86 35h283v-157q69 63 149 116q5 2 14.5 6.5t14.5 6.5q16 8 26 10q83 22 164 16q96 -4 164.5 -68t97.5 -161q24 -80 21 -164v-461q3 -52 39.5 -87t89.5 -44h-412q42 5 86 37q45 36 45 94v524q0 79 -18 138q-61 159 -213 159q-40 0 -84 -12
q-46 -16 -78 -41q-1 -1 -4 -3t-4 -3l-8 -8q-2 -1 -6.5 -4t-6.5 -4q-56 -43 -122 -109q-179 -179 -404 -459q-24 -28 -61 -73t-49 -60q-139 -174 -291 -174q-84 3 -171 40.5t-149 96.5l-12 13q-8 8 -14 12zM1479 4h-412q43 6 84 35q16 14 33 37q11 19 14 49v500
q14 14 39.5 41.5t38.5 40.5q31 33 74 73v-645q3 -52 39.5 -87t89.5 -44z" />
    <glyph glyph-name="uniF416" unicode="dp" horiz-adv-x="2129" 
d="M25 481q-2 18 -2 58q0 158 71 278q45 75 116.5 120.5t166.5 51.5q14 2 41 2q71 0 142 -25.5t131.5 -80t84.5 -127.5v680h281q-48 0 -88.5 -34.5t-40.5 -100.5v-943q18 22 60.5 73.5t70 84t66.5 78.5t73 82v182q0 59 -39.5 90t-91.5 41h283v-157q108 98 170 127
q66 30 155 30q7 0 21.5 -1t21.5 -1q217 -14 320 -180q71 -114 71 -274q0 -122 -47 -238q-35 -83 -86 -137q-124 -133 -303 -158q-25 -4 -71 -4q-142 0 -252 78v-455q4 -49 39.5 -81t87.5 -40h-410q45 5 84.5 36.5t46.5 84.5v1004q77 83 152 155v-692q118 -80 231 -80
q115 0 211 74q112 88 153 256.5t3 327.5q-18 76 -52 133.5t-78.5 90t-92.5 48.5t-99 16q-99 0 -170 -51q-122 -94 -264 -250q-88 -95 -196.5 -225.5t-179 -216t-91.5 -102.5q-57 -52 -107.5 -77.5t-117.5 -25.5q-88 5 -171 40.5t-149 96.5l-12 13q-8 8 -14 12
q-113 122 -129 313zM172 625q-8 -49 -8 -111q0 -151 61 -278q44 -90 115 -146q79 -65 176 -65q79 0 139.5 40t120.5 113v553q-27 106 -114.5 163.5t-176.5 57.5h-24q-146 -11 -228 -151q-46 -75 -61 -176zM788 100q-6 20 -8 27q69 77 148 176v-166q1 -52 37 -87t92 -46h-125
q-47 0 -83.5 23.5t-55.5 64.5z" />
    <glyph glyph-name="uniF417" unicode="em" horiz-adv-x="2709" 
d="M23 481v21q0 112 45 208t118 159.5t165 99t188 35.5q79 0 150 -24.5t127.5 -71t90 -122t33.5 -170.5q-8 0 -25.5 1t-25.5 1q-249 0 -440 -96q-101 -51 -156 -120t-55 -146q0 -23 2 -33q99 -170 290 -188h21q141 0 291 166q23 26 48 57.5t44 57t47.5 68t42 63.5t46 72
t42.5 67v280q-4 55 -44.5 85t-88.5 40h283v-35q0 -6 1 -27t1 -40v-76q77 104 141 135q75 43 188 43q6 0 18.5 -1t18.5 -1q97 -8 171 -76.5t102 -187.5q6 84 63 153t148 95q62 18 129 18q5 0 16.5 -1t17.5 -1q120 -8 201.5 -112t81.5 -267v-14v-461q1 -52 37 -86t92 -45h-412
q47 5 89 40t42 91v524q0 150 -66.5 224.5t-164.5 74.5q-106 0 -187 -77.5t-81 -180.5v-18q6 -41 6 -86v-461q1 -52 37 -86t92 -45h-412q47 5 89 40t42 91v524q0 149 -66 224t-161 75q-57 0 -113.5 -26t-97.5 -70q-40 -40 -61 -69q-71 -92 -152 -224q-135 -216 -190 -289
q-146 -197 -293 -250q-65 -24 -135 -24q-33 0 -74 6q-80 14 -148 48.5t-124.5 90t-89.5 140.5t-35 190zM174 616q-6 -46 -6 -92q0 -159 61 -284v18q0 147 183 254q171 100 391 113v10q0 71 -27 139.5t-76 120.5q-85 90 -200 90q-32 0 -62 -6q-110 -23 -176 -125t-86 -229z
M981 4q45 5 84.5 36.5t46.5 84.5v391q28 46 152 225v-606q0 -53 36.5 -86t92.5 -45h-412z" />
    <glyph glyph-name="uniF418" unicode="en" horiz-adv-x="2064" 
d="M23 481v25q0 183 118 323q77 85 182 130t216 45q80 0 151 -24.5t127.5 -71t89.5 -122t33 -170.5q-8 0 -25.5 1t-25.5 1q-249 0 -440 -96q-101 -51 -156 -120t-55 -146q0 -23 2 -33q99 -170 290 -188h21q141 0 291 166q23 26 48 57.5t44 57t47.5 68t42 63.5t46 72t42.5 67
v280q-4 55 -44.5 85t-88.5 40h283v-35q0 -6 1 -27t1 -40v-76q77 104 141 135q75 43 188 43q6 0 18.5 -1t18.5 -1q74 -6 130.5 -42.5t89.5 -93t49 -122t16 -135.5v-461q1 -52 37 -86t92 -45h-412q47 5 89 40t42 91v524q0 149 -66 224t-161 75q-57 0 -113.5 -26t-97.5 -70
q-40 -40 -61 -69q-71 -92 -152 -224q-135 -216 -190 -289q-146 -197 -293 -250q-65 -24 -135 -24q-33 0 -74 6q-80 14 -148 48.5t-124.5 90t-89.5 140.5t-35 190zM174 616q-6 -46 -6 -92q0 -159 61 -284v18q0 147 183 254q171 100 391 113v10q0 71 -27 139.5t-76 120.5
q-85 90 -200 90q-32 0 -62 -6q-110 -23 -176 -125t-86 -229zM981 4q45 5 84.5 36.5t46.5 84.5v391q28 46 152 225v-606q0 -53 36.5 -86t92.5 -45h-412z" />
    <glyph glyph-name="uniF419" unicode="es" horiz-adv-x="1697" 
d="M23 471v25q0 187 118 321q76 84 181.5 129t216.5 45q79 0 150 -24t127.5 -70.5t90 -122t33.5 -170.5q-9 0 -26.5 1t-26.5 1q-251 0 -438 -94q-101 -51 -156 -120t-55 -146q0 -23 2 -33q40 -72 108 -125q83 -64 255.5 -98.5t371.5 -34.5q48 0 99 2.5t126.5 9.5t140.5 23.5
t126.5 40.5t101 64t47.5 91q0 4 1 12.5t1 12.5q0 29 -14 57q-10 20 -31.5 39t-41 32t-58.5 30.5t-59.5 25.5t-70 26.5t-65.5 24.5q-246 95 -246 285v17q5 109 75 176t216 67q80 0 162 -38.5t143 -96.5l-6 -6q-150 133 -301 133q-19 0 -27 -2q-99 -12 -154 -58t-61 -112
q0 -4 -1 -10.5t-1 -9.5q0 -39 22 -72.5t66 -61t91.5 -48.5t115.5 -44q66 -23 115 -46.5t94.5 -56t69.5 -76t24 -95.5v-15q-3 -78 -51 -145q-31 -47 -95.5 -82t-135.5 -54.5t-158.5 -31t-151 -15t-125.5 -3.5q-162 0 -319 18.5t-264 48.5q-73 19 -134 55.5t-110 91.5
t-77.5 135t-30.5 177zM174 604q-6 -46 -6 -92q0 -158 61 -283v19q0 147 183 254q169 99 391 112v11q0 71 -27 139t-76 119q-89 92 -202 92q-30 0 -60 -6q-110 -23 -176 -125.5t-86 -229.5z" />
    <glyph glyph-name="uniF420" unicode="fg" horiz-adv-x="1441" 
d="M133 979h-113v10h207q-59 0 -129 70q-69 62 -69 155q0 82 57 148q37 43 96 61q43 15 92 15q18 0 54 -4q71 -12 122.5 -56.5t51.5 -97.5v-8q-5 -26 -22 -43t-40 -17q-15 0 -39 17q-26 24 -26 59q0 7 2 30t2 25q0 14 -6 29q-23 47 -107 47q-30 0 -57 -6q-81 -17 -122.5 -72
t-41.5 -118q0 -15 4 -39q11 -62 69 -108t129.5 -66.5t143.5 -20.5h80v-10h-186v-545q0 -327 45 -530q23 -99 47 -146q45 -72 114.5 -126t136 -78.5t110.5 -35t63 -10.5q75 -9 187 4.5t163 53.5q100 77 100 182q0 82 -67 146q-50 47 -131 65q-63 16 -170 16q-25 0 -81.5 -1
t-81.5 -0.5t-57 4.5t-49 14q-16 10 -22 24q-2 4 -2 15q0 23 35 73q-85 64 -130.5 165.5t-45.5 215.5q0 96 32.5 186t93 163t158.5 117t219 44q118 0 203 -39q39 60 91 102t100 42q17 0 40 -10q35 -17 35 -55.5t-37 -61.5q-13 -8 -26 -8q-16 0 -51.5 18t-53.5 18h-8
q-47 -8 -82 -47q126 -55 192 -169.5t66 -254.5q0 -221 -145.5 -367.5t-366.5 -146.5q-156 0 -276 82q-33 -53 -33 -67q0 -27 31 -37q29 -10 100 -10h45q12 0 47 1t56 1h100q42 0 78 -4q167 -12 249.5 -73.5t82.5 -162.5q0 -61 -40 -109.5t-105.5 -77t-136.5 -44t-146 -19.5
q-18 -2 -54 -2q-92 0 -192 21q-110 26 -205 91.5t-163 157.5t-117 204t-73 233t-24 243v535zM672 162q85 -115 209 -129q8 -2 26 -2q108 0 197 75q137 111 168 361q4 54 4 76q0 98 -31 190q-37 98 -112 170zM590 547q-6 -52 -6 -101q0 -159 82 -276l460 739q-66 57 -139 68
q-10 2 -33 2q-116 0 -211 -92q-128 -125 -153 -340z" />
    <glyph glyph-name="uniF421" unicode="fj" horiz-adv-x="768" 
d="M20 4q43 7 82 34t48 73q0 4 1 12.5t1 13.5v842h-113v8h207q-57 0 -129 72q-68 62 -68 153q0 84 57 148q36 42 95 63q68 23 157 23q92 0 178.5 -22.5t146.5 -66t65 -97.5q0 -44 -24.5 -74.5t-66.5 -30.5q-37 0 -63.5 27.5t-26.5 68.5q0 60 51 86q-46 40 -125.5 67.5
t-166.5 27.5q-49 0 -103 -13q-81 -22 -120.5 -77t-39.5 -119q0 -4 5 -39q11 -62 68.5 -108.5t129.5 -67.5t142 -21h22v-8h-127v-838q0 -55 35.5 -90.5t93.5 -46.5h-412zM371 -539l-2 9q85 43 126 89.5t62 131.5q21 95 21 284v889q-7 94 -132 123h283v-989q0 -184 -98 -324.5
t-260 -212.5z" />
    <glyph glyph-name="uniF422" unicode="gi" horiz-adv-x="1452" 
d="M66 270q-46 101 -46 213q0 77 20 150t61.5 138t100.5 114t142 77.5t180 28.5q122 0 203 -37q25 38 44 65.5t52 70t68.5 75t80.5 68t101.5 63t118.5 45.5q10 5 16 5h17q37 -5 61.5 -31t24.5 -64q0 -41 -26.5 -68.5t-63.5 -27.5t-64 27.5t-27 68.5q0 38 27 68
q-77 -25 -143 -66.5t-119.5 -98.5t-85.5 -99t-74 -105q125 -55 190.5 -170t65.5 -252q0 -225 -144.5 -369.5t-367.5 -144.5q-160 0 -276 82q-5 -12 -13.5 -27t-13 -24.5t-4.5 -15.5q0 -27 31 -37q20 -10 71 -10h27q47 2 133 2q113 0 195 -4q166 -12 247.5 -73.5t81.5 -160.5
v-4q0 -60 -39.5 -108t-104.5 -77t-136.5 -45t-145.5 -20h-32q-6 -2 -25 -2q-149 0 -225 14q-71 14 -122.5 56.5t-51.5 89.5v14q1 26 18 41.5t41 15.5q21 0 41 -14q6 -5 11 -10t8 -10.5t4.5 -9t2.5 -9.5t1 -8v-9v-7v-15q0 -2 -1 -7t-1 -7q0 -43 37 -68q46 -34 127 -43
q54 -4 75 -4q109 0 199 25q48 14 84 39q100 77 100 182q0 81 -67 145q-52 49 -131 66q-72 16 -140 16q-5 0 -31 -1t-67.5 -2t-81.5 -1q-126 0 -143 45q-2 4 -2 11q0 24 37 77q-86 63 -131 168zM244 158q83 -113 209 -127q8 -2 26 -2q108 0 197 75q135 109 166 361q4 58 4 80
q0 101 -31 186q-38 101 -110 170zM162 543q-6 -53 -6 -101q0 -167 82 -276l458 741q-74 62 -137 68q-4 0 -13 1t-14 1q-120 0 -217 -94q-128 -121 -153 -340zM1020 4q45 5 86 38.5t45 86.5v739q-4 54 -44.5 86t-86.5 37h283v-860q4 -53 39 -86t90 -41h-412z" />
    <glyph glyph-name="uniF423" unicode="gj" horiz-adv-x="1331" 
d="M66 270q-46 101 -46 213q0 77 20 150t61.5 138t100.5 114t142 77.5t180 28.5q122 0 203 -37q25 38 44 65.5t52 70t68.5 75t80.5 68t101.5 63t118.5 45.5q10 5 18 5q6 0 15 -3q37 -2 61.5 -27.5t24.5 -66.5q0 -38 -26.5 -66t-63.5 -28t-64 28t-27 66q0 40 27 70
q-77 -25 -143 -66.5t-119.5 -98.5t-85.5 -99t-74 -105q125 -55 190.5 -170t65.5 -252q0 -90 -28.5 -175t-82 -156t-139 -119t-190.5 -60q-24 -4 -35 -4h-37q-160 0 -276 82q-5 -12 -13.5 -27t-13 -24.5t-4.5 -15.5q0 -27 31 -37q20 -10 71 -10h27q47 2 133 2q113 0 195 -4
q166 -12 247.5 -73.5t81.5 -160.5v-4q0 -60 -39.5 -108t-104.5 -77t-136.5 -45t-145.5 -20h-32q-6 -2 -25 -2q-149 0 -225 14q-71 14 -122.5 56.5t-51.5 89.5v14q1 26 17 40.5t40 14.5q23 0 43 -14q6 -5 11 -9.5t8 -10t4.5 -9t2.5 -9.5t1 -8v-8v-7v-15q0 -2 -1 -7t-1 -7
q0 -43 37 -68q46 -34 127 -43q54 -4 75 -4q109 0 199 25q48 14 84 39q100 72 100 182q0 81 -67 145q-52 49 -131 66q-72 16 -140 16q-5 0 -31 -1t-67.5 -2t-81.5 -1q-126 0 -143 45q-2 4 -2 11q0 24 37 77q-86 63 -131 168zM705 899l-461 -741q83 -113 209 -127q8 -2 26 -2
q108 0 197 75q135 109 166 361q4 58 4 80q0 101 -31 186q-37 98 -110 168zM162 543q-6 -53 -6 -101q0 -167 82 -276l458 741q-74 62 -137 68q-4 0 -13 1t-14 1q-120 0 -217 -94q-128 -121 -153 -340zM940 -530q83 41 127.5 90t60.5 131q23 98 23 284v893q-4 54 -44.5 86
t-86.5 37h283v-993q0 -184 -98.5 -324.5t-260.5 -212.5z" />
    <glyph glyph-name="uniF424" unicode="hg" horiz-adv-x="2115" 
d="M20 4q46 5 85.5 36.5t46.5 84.5v1182q0 58 -40.5 89.5t-91.5 41.5h283v-670q18 72 72 128t133 79q56 16 121 16q27 0 41 -2q122 -8 203 -112.5t81 -280.5v-162q0 -334 47 -530q20 -88 50 -146q45 -72 114.5 -126t136 -78.5t110.5 -35t63 -10.5q75 -9 187 4.5t163 53.5
q100 77 100 182q0 82 -67 146q-50 47 -132 65q-63 16 -170 16q-25 0 -81.5 -1t-81 -0.5t-56.5 4.5t-49 14q-16 10 -22 24q-2 4 -2 13q0 19 34 75q-85 64 -129.5 165.5t-44.5 215.5q0 97 32 186.5t93 162.5t158.5 117t218.5 44q118 0 203 -39q39 60 90.5 102t99.5 42
q18 0 41 -10q35 -17 35 -55.5t-37 -61.5q-8 -8 -26 -8q-16 0 -51.5 18t-53.5 18h-8q-47 -8 -82 -47q126 -55 192 -169.5t66 -254.5q0 -225 -145 -369.5t-367 -144.5q-156 0 -276 82q-33 -53 -33 -67q0 -27 31 -37q29 -10 100 -10q45 2 131 2q113 0 195 -4q167 -12 249 -72.5
t82 -159.5v-4q0 -61 -40 -109.5t-105.5 -77t-136.5 -44t-146 -19.5q-18 -2 -53 -2q-92 0 -192 21q-137 32 -250.5 125t-185.5 221.5t-111 279.5t-39 305v213q0 150 -67 224.5t-165 74.5q-104 0 -186 -74t-82 -186v-563q1 -52 37 -86t92 -45h-412zM1346 162q85 -115 208 -129
q8 -2 27 -2q108 0 197 75q137 111 168 361q6 47 6 88q0 101 -39 193.5t-107 154.5zM1264 547q-7 -61 -7 -101q0 -159 82 -276l461 739q-66 58 -137 68q-10 2 -33 2q-118 0 -213 -92q-128 -125 -153 -340z" />
    <glyph glyph-name="uniF425" unicode="ib" horiz-adv-x="1523" 
d="M150 1251q0 49 33 74t85 25q61 0 164 -35q27 -10 66 -10q65 0 131.5 31t115.5 104v-760q13 115 90.5 201.5t200.5 103.5q35 6 68 6q19 0 47 -4q212 -25 305 -223q47 -106 47 -225q0 -77 -18 -150q-42 -156 -151.5 -256t-268.5 -123q-37 -6 -76 -6q-147 0 -258 88
q-43 -88 -139 -88h-127q58 11 93.5 46t35.5 87v1172q-40 -13 -90 -13q-36 0 -68 7q-24 8 -55 8q-24 0 -35 -11q-5 -7 -11 -33.5t-12.5 -49.5t-27.5 -42.5t-55 -19.5q-38 0 -64 27.5t-26 68.5zM735 100q110 -84 238 -84q113 0 209 74q64 52 107.5 132.5t56.5 160.5
q14 69 14 133q0 138 -49 246q-38 81 -101.5 132t-146.5 58h-23q-76 0 -140.5 -37.5t-102.5 -105.5q-9 -16 -16.5 -32.5t-12 -30.5t-7.5 -28t-4.5 -24t-2.5 -21t-0.5 -16.5t0.5 -12v-7.5q0 -85 32 -156q34 -75 96.5 -113t137.5 -38q119 0 197 84q41 42 55 93.5t3.5 98.5
t-40.5 86q-45 45 -90 45q-15 0 -21 -2q-24 -5 -61 -47q-23 -26 -43 -26q-7 0 -19 4q-49 18 -49 63q0 20 23 43q27 27 74 27q48 0 101 -27.5t87 -66.5q53 -59 53 -138q1 -9 -0.5 -24.5t-18 -58t-48.5 -78.5q-84 -84 -199 -84q-114 0 -190.5 77t-88.5 191v-430q0 -27 -10 -60z
M63 985q-24 6 -43 6h299v-856q1 -52 36 -86t91 -45h-409q45 5 86 39t45 90v733q-3 45 -33.5 75t-71.5 44z" />
    <glyph glyph-name="uniF426" unicode="ig" horiz-adv-x="1464" 
d="M20 991q17 0 91 -12q37 -6 73 -6q17 0 45 4q77 13 117 78q53 91 53 147v4q0 43 -35 81.5t-102 49.5q51 -26 51 -86q0 -41 -26.5 -68.5t-63.5 -27.5t-63.5 27.5t-26.5 68.5q0 42 30.5 67t74.5 25h6q73 0 118 -40.5t50 -88.5v-8q0 -45 -52 -159q-20 -43 -28.5 -63
t-18.5 -55t-10 -61v-475q3 -309 51 -499q19 -76 47 -138q36 -59 90.5 -106t105 -73.5t101.5 -44t81.5 -23t43.5 -5.5q32 -4 60 -4q50 0 118 8q123 14 175 56q98 71 98 180q0 81 -66 145q-51 48 -131 68q-55 14 -172 14q-51 0 -91.5 -0.5t-60.5 -0.5l-20 -1q-66 0 -96 21
q-18 11 -23 24q-2 4 -2 11q0 19 35 77q-85 64 -129.5 164.5t-44.5 214.5q0 97 32.5 186.5t93 162.5t159 117t219.5 44q122 0 203 -37q40 61 90 101.5t100 40.5q24 0 39 -9q35 -19 35 -57t-35 -61q-8 -8 -27 -8q-16 0 -52 18t-52 18h-10q-39 -3 -80 -47q125 -55 190.5 -170
t65.5 -254q0 -121 -49 -229t-151 -185.5t-240 -93.5q-24 -4 -37 -4h-35q-163 0 -277 82q-2 -4 -14.5 -23.5t-13.5 -27.5q-4 -12 -4 -16q0 -27 30 -37q28 -12 101 -12q47 2 133 2q153 0 194 -2q165 -12 247.5 -73.5t82.5 -160.5v-4q0 -60 -39.5 -108t-104.5 -77t-136.5 -45
t-145.5 -20q-18 -2 -53 -2q-98 0 -195 23q-134 30 -245.5 120t-184 216t-113 274t-42.5 299v121q0 31 1 92t1 96v125q0 60 -41.5 92.5t-92.5 42.5zM694 158q85 -115 211 -129h19q115 0 204 75q135 109 166 359q4 58 4 80q0 104 -30 186q-36 98 -111 170zM612 543
q-6 -50 -6 -94q0 -166 82 -283l461 739q-69 60 -137 70q-4 0 -13 1t-14 1q-120 0 -219 -94q-129 -126 -154 -340z" />
    <glyph glyph-name="uniF427" unicode="ih" horiz-adv-x="1548" 
d="M178 1182q-26 26 -26 67q0 51 33.5 76t84.5 25q67 0 164 -37q27 -10 66 -10q66 0 132.5 31t115.5 104v-670q18 71 71.5 126.5t132.5 78.5q62 18 129 18q5 0 17 -1t18 -1q120 -8 201.5 -112t81.5 -267v-14v-461q1 -52 37 -86t92 -45h-412q55 8 93 43t38 88v524
q0 150 -66.5 224.5t-164.5 74.5q-104 0 -186 -74t-82 -186v-563q1 -52 37 -86t92 -45h-410q43 5 84 37.5t45 83.5v1182q-40 -13 -90 -13q-41 0 -68 6q-33 11 -57 11q-15 0 -33 -11q-5 -7 -11 -33.5t-12.5 -50.5t-27.5 -43.5t-55 -19.5q-38 0 -64 29zM63 985q-24 6 -43 6h299
v-856q0 -49 33 -82q34 -40 94 -49h-409q45 5 86 39t45 90v733q-3 45 -33.5 75t-71.5 44z" />
    <glyph glyph-name="uniF428" unicode="ik" horiz-adv-x="1462" 
d="M152 1249q0 49 33 74t85 25q61 0 164 -35q27 -10 66 -10q66 0 132.5 31t115.5 104v-983q173 24 299.5 146t164.5 286v12q0 37 -24 62.5t-76 29.5h256q-44 -5 -91.5 -37.5t-55.5 -72.5q-40 -170 -170 -291q5 -9 21 -35.5t24 -40.5q179 -310 252 -432q42 -56 94 -78h-289
q3 3 7 6t7 6q21 21 21 50q0 22 -21 63q-12 20 -63.5 111t-97 171t-60.5 101q-96 -54 -198 -68v-309q1 -52 37 -86t92 -45h-412q49 7 88 39t43 88v1176q-40 -13 -90 -13q-41 0 -68 6q-33 11 -57 11q-15 0 -33 -11q-5 -7 -11 -33.5t-12.5 -50.5t-27.5 -43.5t-55 -19.5
q-38 0 -64 27.5t-26 68.5zM168 133v733q-4 59 -53 92t-95 33h299v-856q0 -49 33 -82q34 -40 94 -49h-409q45 5 86 39t45 90z" />
    <glyph glyph-name="uniF429" unicode="il" horiz-adv-x="897" 
d="M178 1182q-26 26 -26 67q0 51 33.5 76t84.5 25q67 0 164 -37q27 -10 66 -10q66 0 132.5 31t115.5 104q-3 -335 -3 -609v-442q0 -77 1.5 -164t1.5 -88q1 -53 36.5 -87.5t92.5 -45.5h-412q49 7 88 39t43 88v1178q-40 -13 -90 -13q-41 0 -68 6q-33 11 -57 11q-15 0 -33 -11
q-5 -7 -11 -33.5t-12.5 -50.5t-27.5 -43.5t-55 -19.5q-38 0 -64 29zM63 985q-24 6 -43 6h299v-858q0 -49 33 -82q34 -40 94 -49h-409q45 5 86 39t45 90v735q-3 45 -33.5 75t-71.5 44z" />
    <glyph glyph-name="uniF430" unicode="jb" horiz-adv-x="1507" 
d="M131 1251q0 51 33.5 75t85.5 24q61 0 164 -35q27 -10 67 -10q65 0 132.5 31.5t115.5 103.5v-760q13 116 89.5 202t201.5 103q35 6 67 6q20 0 48 -4q210 -25 303 -223q49 -102 49 -221q0 -65 -21 -154q-36 -153 -148.5 -253.5t-270.5 -125.5q-37 -6 -74 -6q-149 0 -260 88
q-19 -41 -56 -64.5t-84 -23.5h-124q56 11 92 46t37 87v1172q-40 -13 -91 -13q-39 0 -67 7q-24 8 -58 8q-21 0 -32 -11q-5 -7 -14 -47t-30.5 -69t-64.5 -29q-37 0 -63.5 27.5t-26.5 68.5zM729 160q0 -33 -12 -60q110 -84 237 -84q115 0 211 74q64 51 107.5 132t56.5 159
q12 76 12 131q0 142 -49 250q-83 176 -248 190h-22q-77 0 -141 -38t-101 -105q-45 -79 -45 -176q0 -79 33 -152q34 -75 96 -113t137 -38q119 0 197 84q64 64 64 104q0 12 0.5 22t1.5 16v5q0 74 -45 131q-45 45 -91 45q-14 0 -20 -2q-24 -5 -61 -47q-26 -26 -43 -26
q-7 0 -19 4q-51 18 -51 63q0 21 22 43q27 27 74 27q48 0 101.5 -28t87.5 -66q55 -61 55 -138q-1 -2 0 -9t-3 -24.5t-9.5 -36t-21 -44t-36.5 -47.5q-78 -84 -196 -84q-114 0 -190.5 77t-88.5 191v-430zM-57 -539l-2 9q107 52 147 118q29 44 44.5 123t17.5 132t2 132v893
q-6 55 -46 86.5t-88 36.5h283v-993q0 -184 -98 -324.5t-260 -212.5z" />
    <glyph glyph-name="uniF431" unicode="jh" horiz-adv-x="1529" 
d="M133 1249q0 51 34 76t87 25q65 0 162 -37q27 -10 65 -10q66 0 132.5 31t115.5 104v-670q20 72 73 127.5t132 77.5q62 18 129 18q5 0 17 -1t18 -1q120 -8 201 -112t81 -267v-14v-461q4 -53 38.5 -86.5t90.5 -44.5h-409q54 11 90.5 44.5t40.5 86.5v524q0 150 -67 224.5
t-167 74.5q-104 0 -186 -74t-82 -186v-563q1 -52 37.5 -86t93.5 -45h-411q45 5 85 37t44 84v1182q-40 -13 -91 -13q-40 0 -67 6q-33 11 -58 11q-13 0 -21.5 -4t-13 -13t-7 -18t-7 -26.5t-8.5 -30.5q-19 -66 -82 -66q-38 0 -64 27.5t-26 68.5zM-57 -539l-2 9q107 52 147 118
q29 44 44.5 123t17.5 132t2 132v893q-5 55 -45 85.5t-89 37.5h283v-993q0 -184 -98 -324.5t-260 -212.5z" />
    <glyph glyph-name="uniF432" unicode="jk" horiz-adv-x="1443" 
d="M133 1247q0 32 17 56q31 45 102 45q67 0 164 -37q29 -11 67 -11q65 0 132.5 32t115.5 104v-983q170 24 299 147t166 287v10q0 36 -24.5 62t-75.5 30h254q-60 -6 -98.5 -36t-49.5 -74q-39 -166 -168 -289q37 -66 45 -78q146 -257 252 -430q30 -50 92 -80h-286l14 14
q20 20 20 47t-22 64q-172 294 -219 385q-95 -56 -199 -68v-309q1 -52 37 -87t92 -46h-411q49 7 88 39.5t43 89.5v1176q-83 -26 -158 -9q-42 11 -60 11q-19 0 -30 -11q-5 -6 -14 -46.5t-30.5 -70.5t-64.5 -30q-37 0 -63.5 27.5t-26.5 68.5zM-57 -541l-2 9q104 51 147 118
q29 44 44.5 122.5t17.5 131.5t2 133v895q-7 53 -46 83.5t-88 39.5h283v-995q0 -183 -98.5 -324t-259.5 -213z" />
    <glyph glyph-name="uniF433" unicode="jl" horiz-adv-x="876" 
d="M156 1180q-27 27 -27 67q0 34 16 56q31 45 103 45q67 0 164 -37q29 -11 67 -11q65 0 132.5 32t115.5 104q-2 -223 -2 -609v-440q0 -77 1 -164t1 -88q1 -52 37 -87t92 -46h-412q49 7 88 39.5t43 89.5v1176q-82 -26 -157 -9q-42 11 -60 11q-19 0 -30 -11q-5 -6 -14 -46.5
t-30.5 -70.5t-64.5 -30q-34 0 -63 29zM-61 -541l-2 9q104 51 147 118q29 44 44 123t17 130.5t2 133.5v895q-7 53 -45.5 83.5t-87.5 39.5h283v-995q0 -183 -98.5 -324t-259.5 -213z" />
    <glyph glyph-name="uniF434" unicode="li" horiz-adv-x="897" 
d="M432 2h-412q56 11 92.5 46t37.5 87v1301q48 -72 115.5 -104t131.5 -32q37 0 66 11q97 37 166 37q71 0 102 -45q17 -24 17 -56q0 -41 -27 -68.5t-64 -27.5q-33 0 -54.5 20t-28.5 44t-13.5 50t-11.5 33q-11 11 -31 11q-17 0 -59 -11q-79 -16 -158 9v-1176q4 -57 43 -89.5
t88 -39.5zM494 985q-24 6 -43 6h299v-856q1 -54 36 -88t91 -45h-412q49 7 89 40t44 89v733q-11 91 -104 121z" />
    <glyph glyph-name="uniF435" unicode="lg" horiz-adv-x="1466" 
d="M20 1436h283v-1002q0 -328 49 -532q21 -92 49 -146q45 -72 114.5 -126t136 -78.5t110.5 -35t63 -10.5q75 -9 187.5 4.5t163.5 53.5q100 77 100 184q0 80 -68 143q-51 48 -131 68q-55 14 -170 14q-51 0 -92 -1t-62 -2t-22 -1q-54 0 -94 21q-13 10 -23 26q-2 4 -2 11
q0 22 37 75q-86 66 -131 167t-45 214q0 96 32.5 186t93.5 163t159 117t219 44q116 0 203 -37q39 60 90.5 101t101.5 41q26 0 39 -8q35 -19 35 -57.5t-37 -61.5q-8 -8 -27 -8q-17 0 -52 18t-50 18h-10q-47 -8 -82 -47q126 -55 191 -169.5t65 -254.5q0 -225 -144.5 -368.5
t-367.5 -143.5q-161 0 -277 82q-4 -8 -10.5 -20.5t-10 -20t-6.5 -15.5t-3 -13q0 -27 30 -37t101 -10q45 2 131 2h108q46 0 86 -4q167 -12 249.5 -73.5t82.5 -162.5q0 -61 -40 -109.5t-105.5 -77t-136.5 -44t-146 -19.5q-18 -2 -53 -2q-93 0 -193 21q-137 32 -250 125
t-185.5 221.5t-112 279.5t-39.5 305v865q-4 56 -43.5 88t-88.5 39zM1157 901l-461 -741q85 -115 209 -129q8 -2 27 -2q107 0 196 75q137 111 168 361q4 54 4 76q0 101 -30 190q-36 97 -113 170zM614 545q-6 -53 -6 -99q0 -161 82 -278l459 739q-69 60 -137 70q-4 0 -13 1
t-14 1q-120 0 -217 -94q-129 -126 -154 -340z" />
    <glyph glyph-name="uniF436" unicode="mg" horiz-adv-x="2764" 
d="M1913 545q-15 -130 8 -219q20 -92 68 -158l458 739q-37 32 -69 49q-47 19 -68 21q-56 6 -123 -16q-61 -20 -110.5 -65t-82 -103.5t-52.5 -120.5t-29 -127zM2456 901l-461 -741q89 -115 209 -129q40 -6 104 10q87 23 151 93.5t94 153.5t40 177q10 85 2 145q-9 66 -27 121
q-47 110 -112 170zM20 991h285v-225q17 75 73 130.5t132 76.5q71 20 164 14q108 -10 176.5 -82t93.5 -182q9 115 92 185.5t201 78.5q41 3 82 0q72 -4 128.5 -40t89.5 -93t50 -123t17 -135v-162q0 -497 96 -678q50 -80 117 -129q68 -45 156 -83t151 -38q40 -4 78 -4
q98 0 196 25q118 41 162 143q21 63 10 119q-12 47 -41.5 81.5t-65 53.5t-83 30.5t-88 15t-88.5 3.5q-60 0 -158 -4q-69 -3 -111 21q-12 9 -22 26q-7 17 8 43q17 30 27 43q-85 64 -130.5 167t-45.5 214q0 219 140.5 364.5t362.5 145.5q116 0 203 -37q36 55 88 98.5t103 43.5
q31 0 52 -17.5t21 -48.5q0 -40 -35 -61q-8 -8 -26 -8q-13 0 -25 6q-16 6 -26 14q-12 7 -29 14q-20 4 -33 2q-47 -6 -82 -47q125 -55 190.5 -168t65.5 -256q0 -223 -143 -367.5t-369 -144.5q-74 0 -148.5 20.5t-127.5 61.5q-3 -6 -15 -26t-14 -29q-4 -18 2 -29q2 -11 27 -22
q30 -10 100 -10q45 2 131 2h109q239 0 338 -80q81 -63 78 -160q0 -65 -37.5 -109t-104.5 -77q-134 -58 -284 -64q-58 -3 -123 0q-59 6 -125 19q-145 32 -259.5 119t-184 207.5t-105 259.5t-35.5 286v272q0 79 -18 138q-62 161 -213 161q-79 0 -150 -46t-100 -117
q-22 -55 -19 -113q4 -28 4 -41v-504q3 -54 38.5 -89t90.5 -44h-411q42 5 86 37q45 36 45 94v524q0 76 -19 138q-62 161 -213 161q-107 0 -187.5 -76.5t-80.5 -183.5v-561q3 -54 38.5 -89t90.5 -44h-411q52 8 88.5 40.5t42.5 82.5v739q-6 54 -50 92q-41 29 -84 35z" />
    <glyph glyph-name="uniF437" unicode="ng" horiz-adv-x="2117" 
d="M1266 545q-15 -130 8 -219q21 -94 67 -158l461 739q-37 32 -69 49q-47 19 -68 21q-58 6 -125 -16q-61 -20 -110.5 -65t-82 -103.5t-52.5 -120.5t-29 -127zM1808 901l-460 -741q89 -115 208 -129q41 -6 105 10q86 23 150.5 94t95.5 154.5t41 175.5q18 160 -27 266
q-47 110 -113 170zM20 991q27 -2 117 -2h168v-223q17 75 73 130.5t132 76.5q71 20 164 14q96 -4 164.5 -68t97.5 -161q23 -77 20 -162v-207q10 -447 97 -633q50 -81 116 -129q68 -45 156.5 -83t151.5 -38q40 -4 77 -4q99 0 197 25q118 41 162 143q21 63 10 119
q-15 58 -53.5 96.5t-93.5 56.5t-105 24.5t-112 6.5q-57 0 -84 -2h-76q-70 0 -109 19q-20 16 -22 26q-9 15 6 43q19 34 26 43q-85 64 -130.5 167t-45.5 214q0 219 141 364.5t363 145.5q116 0 203 -37q37 55 88 98.5t104 43.5q31 0 52.5 -17.5t21.5 -48.5q0 -40 -37 -61
q-8 -8 -24 -8q-13 0 -25 6q-16 6 -26 14q-12 7 -29 14q-21 4 -35 2q-46 -6 -82 -47q126 -56 192 -169t66 -255q0 -98 -36 -191t-98.5 -164t-152 -114t-190.5 -43h-35q-74 0 -148.5 20.5t-127.5 61.5q-7 -8 -18.5 -28t-12.5 -27q-4 -18 2 -29q2 -11 27 -22q25 -10 100 -10
q45 2 131 2h109q238 0 340 -80q80 -62 77 -160q0 -113 -143 -186q-133 -58 -285 -64q-58 -3 -123 0q-140 13 -254.5 64t-195.5 129.5t-137.5 185t-85.5 227.5t-35 260v297q0 76 -19 138q-62 161 -213 161q-107 0 -187.5 -76.5t-80.5 -183.5v-561q3 -54 38.5 -89t90.5 -44
h-411q52 8 88.5 40.5t42.5 82.5v739q-6 54 -50 92q-41 29 -84 35z" />
    <glyph glyph-name="uniF438" unicode="ob" horiz-adv-x="2050" 
d="M338 770q-20 -53 -14 -113q12 -122 133 -178q57 -26 149 -14q92 10 203 80q-23 287 -168 366q-43 19 -82 19q-35 0 -70 -12q-116 -53 -151 -148zM23 471q-6 110 30 201q53 139 170 227t264 92q-90 -3 -160 -55.5t-108.5 -128t-52.5 -166.5q-15 -95 -6 -195
q6 -47 12 -83.5t17.5 -83t26 -80.5t38 -69.5t53 -58.5t71 -38t91.5 -17q95 -3 162 37q130 81 168 264q17 98 14 183q7 3 66 39q11 8 33 23t32 22q21 -106 -10 -222q-42 -144 -171.5 -250t-277.5 -106q-90 0 -174 39t-144.5 103.5t-99 149t-44.5 173.5zM606 455
q-78 -10 -133 10q-121 40 -151 153q-16 60 -5 121q22 95 91.5 151t166.5 56q126 0 225.5 -93t133.5 -222q79 59 188 129v540q0 62 -43 99q-51 33 -88 39h283v-582q182 106 282 123q52 11 117 8q138 -9 226.5 -99.5t117.5 -232.5q16 -96 8 -176q-21 -200 -129 -313
q-60 -60 -148.5 -109t-156.5 -49q-37 -6 -73 -6q-154 0 -261 88q-19 -43 -55 -63q-39 -25 -84 -25h-125q56 9 91 44t38 89v574q53 36 152 92v-643q0 -33 -12 -60q109 -84 237 -84q152 0 252 112t127 273q14 85 4 189q-13 140 -88 244.5t-205 117.5q-77 7 -149 -26
q-118 -51 -262 -142q-17 -10 -44.5 -28t-39.5 -25q-59 -39 -78 -53q-13 -9 -39.5 -27.5t-40.5 -27.5q-46 -35 -76.5 -55.5t-76.5 -48t-90 -43t-87 -19.5z" />
    <glyph glyph-name="uniF439" unicode="oh" horiz-adv-x="2074" 
d="M322 614q-11 37 -11 66q0 28 6 55q20 96 91.5 150.5t166.5 54.5q125 0 225 -93.5t134 -219.5q119 85 188 129v549q0 59 -39.5 90t-91.5 41h283v-586q96 58 196.5 97.5t159.5 39.5h10q122 -8 203.5 -112.5t81.5 -278.5v-461q1 -52 37 -87t92 -46h-412q48 5 90 40t42 91
v524q0 50 -11 98.5t-33 93t-63 72t-94 27.5q-62 0 -148.5 -34t-192 -99.5t-157.5 -101t-139 -97.5q-103 -75 -177.5 -115t-152.5 -50q-40 -5 -49 -5q-76 0 -144.5 43t-90.5 125zM338 764q-16 -43 -16 -84q0 -74 40 -131q31 -45 82.5 -68.5t108.5 -23.5q17 0 53 4
q94 10 203 78v4q-19 200 -88 291.5t-162 91.5q-70 0 -133 -47t-88 -115zM23 467v31q0 91 34 179t99 157q67 71 153.5 111t177.5 40q-177 -9 -264 -176q-67 -129 -67 -291q0 -26 4 -76q8 -70 18 -123t32.5 -113t54 -99t84 -66.5t120.5 -30.5h16q164 0 254 146q74 121 74 319
v21q48 26 131 84q8 -39 8 -86q0 -194 -145 -344q-142 -148 -322 -148q-177 0 -313.5 137.5t-148.5 327.5zM991 2q47 7 86.5 38t44.5 85v573q80 53 152 93v-656q1 -46 27 -78.5t69 -46.5q3 -1 14 -4t19 -4h-412z" />
    <glyph glyph-name="uniF440" unicode="ok" horiz-adv-x="1988" 
d="M313 600q-4 36 -4 55q0 44 8 80q20 96 91.5 150.5t166.5 54.5q93 0 173.5 -53.5t129.5 -134t66 -172.5q8 -39 8 -86q0 -93 -32 -172q104 9 202 34v953q-4 52 -40 84t-81 41q-2 2 -10 2h283v-1028q175 71 299 191.5t166 287.5v10q0 35 -25 61.5t-76 30.5h39q11 0 41 1
t47 1h127q-40 -6 -88 -37q-51 -35 -59 -75q-39 -166 -168 -289q17 -28 79.5 -136.5t123 -213t94.5 -158.5q31 -51 94 -80h-289q35 28 35 59q0 24 -22 66q-129 218 -217 381q-137 -100 -313.5 -150.5t-358.5 -50.5q-96 0 -178 15q-144 27 -221.5 100.5t-90.5 177.5zM338 766
q-19 -65 -19 -121q0 -1 -0.5 -9t0 -14t1.5 -17.5t3.5 -22.5t7 -25t12 -29.5t17.5 -31.5q75 -125 267 -164q93 -17 172 -17q14 57 14 144v37q-6 116 -30.5 203t-62 134.5t-78.5 70t-87 22.5q-71 0 -133 -46t-84 -114zM23 467v31q0 91 34 179t99 157q66 71 152.5 111.5
t178.5 41.5q-176 -9 -264 -178q-67 -129 -67 -291q0 -26 4 -76q7 -58 15 -103t22.5 -96.5t37 -89t54 -70.5t77.5 -51t103 -20h18q115 0 192.5 72t111.5 195q70 -4 110 2q-61 -120 -175 -199.5t-241 -79.5q-177 0 -313.5 137.5t-148.5 327.5zM991 2q2 2 6 2q45 7 83 39.5
t42 87.5v182q11 3 46 12t59 17t47 18v-225q1 -52 37 -87t92 -46h-412z" />
    <glyph glyph-name="uniF441" unicode="om" horiz-adv-x="2719" 
d="M338 768q-20 -53 -14 -113q12 -122 133 -178q57 -26 149 -14q97 11 203 78v4q-23 285 -168 364q-43 19 -82 19q-33 0 -70 -13q-117 -53 -151 -147zM23 469q-6 110 30 201q53 139 170 227t264 92q-90 -3 -160 -55.5t-108.5 -128t-52.5 -166.5q-15 -95 -6 -195
q6 -47 12 -83.5t17.5 -83t26 -80.5t38 -69.5t53 -58.5t71 -38t91.5 -17q95 -3 162 37q130 81 168 264q17 98 14 183q7 3 66 39q11 8 33 23t32 22q21 -109 -10 -222q-42 -144 -171.5 -250t-277.5 -106q-90 0 -174 39t-144.5 103.5t-99 149t-44.5 173.5zM1403 2h-412
q52 8 88.5 40.5t42.5 82.5v582q81 51 97 61l55 33v-666q3 -48 26 -74q22 -34 84 -53q3 -1 9.5 -3t9.5 -3zM606 453q-78 -10 -133 10q-121 40 -151 153q-16 60 -5 121q20 95 90.5 150t167.5 55q125 0 225 -93t134 -220q66 49 110 78q54 38 78 51v106q-6 55 -49 92
q-41 29 -84 35h285v-141q162 95 287 129q53 10 81 8q108 -10 177 -82t94 -182q6 91 64 158t147 92q71 20 164 14q72 -4 128.5 -40t89.5 -93t49.5 -122.5t16.5 -135.5v-461q3 -53 38 -88.5t89 -44.5h-409q55 8 91.5 42.5t39.5 88.5v524q0 76 -19 138q-62 161 -213 161
q-79 0 -150 -46t-100 -117q-21 -52 -18 -113q1 -7 2 -20.5t2 -20.5v-43v-461q3 -54 38.5 -89t90.5 -44h-412q43 6 87 37q45 36 45 94v524q0 111 -43 193q-56 98 -158 98q-111 0 -299 -108q-165 -100 -338 -222q-62 -46 -103 -73.5t-106 -56.5t-121 -35z" />
    <glyph glyph-name="uniF442" unicode="on" horiz-adv-x="2074" 
d="M338 768q-20 -53 -14 -113q12 -122 133 -178q57 -26 149 -14q97 11 203 78v4q-23 285 -168 364q-43 19 -82 19q-33 0 -70 -13q-117 -53 -151 -147zM23 469q-6 110 30 201q53 139 170 227t264 92q-90 -3 -160 -55.5t-108.5 -128t-52.5 -166.5q-15 -95 -6 -195
q6 -47 12 -83.5t17.5 -83t26 -80.5t38 -69.5t53 -58.5t71 -38t91.5 -17q95 -3 162 37q130 81 168 264q17 98 14 183q7 3 66 39q11 8 33 23t32 22q21 -109 -10 -222q-42 -144 -171.5 -250t-277.5 -106q-90 0 -174 39t-144.5 103.5t-99 149t-44.5 173.5zM606 453
q-78 -10 -133 10q-121 40 -151 153q-16 60 -5 121q20 95 90.5 150t167.5 55q125 0 225 -93t134 -220q66 49 110 78q54 38 78 51v106q-6 55 -49 92q-41 29 -84 35h285v-141q162 95 287 129q53 10 81 8q73 -6 129.5 -41.5t89 -91.5t48.5 -121t16 -137v-461q3 -54 38.5 -89
t90.5 -44h-412q43 6 87 37q45 36 45 94v524q0 111 -43 193q-56 98 -158 98q-111 0 -299 -108q-165 -100 -338 -222q-180 -144 -330 -165zM1403 2h-412q52 8 88.5 40.5t42.5 82.5v582q81 51 97 61l55 33v-666q3 -48 26 -74q22 -34 84 -53q3 -1 9.5 -3t9.5 -3z" />
    <glyph glyph-name="uniF443" unicode="ss" horiz-adv-x="1386" 
d="M63 586q-40 55 -40 139v16q5 111 74 177.5t204 66.5h14q78 -3 143 -47.5t109.5 -115t81 -156t63.5 -175.5t49.5 -167.5t46.5 -139t48 -84.5q75 -81 195 -84q102 0 174 48t80 116q0 4 1 11.5t1 11.5q0 38 -20.5 69t-63 57.5t-88.5 46.5t-115 44q-65 22 -115.5 47.5
t-94.5 61.5t-67.5 85.5t-23.5 110.5v16q5 109 75.5 176.5t217.5 67.5q78 0 161 -39t144 -96h-2q0 -1 -1 -2t-1 -2l-2 -2q-150 133 -303 133q-19 0 -27 -2q-96 -12 -151.5 -58t-63.5 -112v-17q0 -34 15.5 -63t40.5 -51t65 -43.5t79.5 -37.5t94.5 -34q66 -23 115 -46.5
t94.5 -56t69.5 -76t24 -95.5v-15q-3 -80 -47.5 -141t-112.5 -91t-147 -30q-63 0 -118.5 22.5t-90.5 63.5q-30 27 -62.5 120.5t-59.5 199t-77.5 230t-111.5 200.5q-103 133 -226 133q-4 0 -13 -1t-13 -1q-96 -10 -151.5 -57t-63.5 -113v-17q0 -34 15.5 -63t40.5 -51t65 -43.5
t79.5 -37.5t94.5 -34q67 -23 115.5 -46.5t94 -56.5t69.5 -77.5t24 -99.5v-9q-4 -117 -95 -189.5t-213 -72.5q-102 0 -176 57t-86 144h11q10 -84 79 -137.5t166 -55.5q102 0 174 48t80 116q0 4 1 11.5t1 11.5q0 30 -15 57t-38.5 47.5t-63.5 41.5t-77.5 36.5t-91.5 34.5
q-190 66 -261 166z" />
    <glyph glyph-name="uniF444" unicode="tt" horiz-adv-x="866" 
d="M20 987q177 0 177 281h151q0 -111 -83.5 -193.5t-176.5 -87.5h348q54 0 91.5 26t54.5 70.5t23.5 84.5t6.5 85v15h152q0 -111 -83.5 -193.5t-176.5 -87.5h330v-10h-134v-658q0 -158 25 -229q27 -78 88 -78q9 0 33 4q-47 -14 -88 -14q-123 0 -166 79.5t-43 268.5v627h-264
v-658q0 -161 24 -229q27 -78 90 -78q9 0 33 4q-47 -14 -90 -14q-123 0 -166 79.5t-43 268.5v627h-113v10z" />
    <glyph glyph-name="uniF445" unicode="tb" horiz-adv-x="1480" 
d="M20 977v10q177 0 177 281h151q0 -111 -83.5 -193.5t-176.5 -87.5h330v-10h-133v-658q0 -307 90 -307q5 0 31 11q27 18 48 61.5t50 132.5t49 139v947q0 107 -131 135h283v-713q92 183 190 229q13 8 29 11q64 24 135 24q31 0 45 -2q95 -6 166 -51t116 -119q72 -119 72 -282
q0 -119 -43 -228q-36 -86 -88 -141q-64 -65 -136.5 -102t-168.5 -56q-38 -6 -72 -6q-148 0 -262 88q-19 -39 -56.5 -63.5t-80.5 -24.5h-127q57 11 92.5 46t36.5 89v107q13 33 44.5 117.5t56.5 148t51 119.5v-471q0 -31 -13 -60q110 -84 238 -84q115 0 211 74
q64 51 107.5 132t56.5 159q12 77 12 131q0 142 -49 250q-83 176 -248 190q-10 2 -33 2q-31 0 -69 -10q-116 -43 -213 -242q-14 -28 -28.5 -60.5t-25 -57.5t-26.5 -65.5t-23.5 -60t-25.5 -66t-23 -60.5q-13 -36 -35 -101t-34 -97.5t-31 -66.5t-39 -47q-21 -18 -70 -18
q-124 0 -167.5 79.5t-43.5 270.5v627h-113z" />
    <glyph glyph-name="uniF446" unicode="th" horiz-adv-x="1505" 
d="M133 977h-113v10q177 0 177 281h151q0 -111 -83.5 -193.5t-176.5 -87.5h330v-10h-133v-658q0 -307 90 -307q5 0 31 11q27 18 48 61.5t50 132.5t49 139v949q0 59 -39.5 90t-91.5 41h283v-711q64 130 139.5 196t199.5 66q137 0 224.5 -104.5t87.5 -272.5v-14v-461
q1 -52 37 -87t92 -46h-412q47 5 89 40t42 91v524q0 144 -64 219.5t-155 75.5q-51 0 -95 -22t-79 -63.5t-58 -78.5t-48 -88q-14 -28 -28.5 -60.5t-25 -57.5t-26.5 -65.5t-23.5 -60t-25.5 -66t-23 -60.5q-13 -36 -35 -101t-34 -97.5t-31 -66.5t-39 -47q-21 -18 -70 -18
q-124 0 -167.5 79.5t-43.5 270.5v627zM834 2h-412q47 7 86.5 38t44.5 85v119q13 33 44.5 117.5t56.5 148t51 119.5v-494q1 -52 37 -87t92 -46z" />
    <glyph glyph-name="uniF447" unicode="tm" horiz-adv-x="2152" 
d="M133 977h-113v10q177 0 177 281h151q0 -111 -83.5 -193.5t-176.5 -87.5h330v-10h-133v-658q0 -307 90 -307q5 0 31 11q27 18 47.5 61.5t50 132.5t49.5 139v502q0 59 -40 91t-91 42h283v-266q32 64 60.5 107t68.5 81t92 56t118 18q111 0 190.5 -69t108.5 -195
q6 87 62.5 155.5t150.5 94.5q59 16 121 16q7 0 20.5 -1t20.5 -1q122 -8 203.5 -112.5t81.5 -278.5v-461q1 -53 36.5 -87.5t92.5 -45.5h-412q47 5 89 40t42 91v524q0 150 -66.5 224.5t-164.5 74.5q-106 0 -187 -77.5t-81 -180.5v-18q4 -54 4 -84v-461q1 -52 37 -87t92 -46
h-412q47 5 89 40t42 91v524q0 144 -64 219.5t-155 75.5q-51 0 -95 -22t-79 -63.5t-58 -78.5t-48 -88q-14 -28 -28.5 -60.5t-25 -57.5t-26.5 -65.5t-23.5 -60t-25.5 -66t-23 -60.5q-13 -36 -35 -101t-34 -97.5t-31 -66.5t-39 -47q-21 -18 -70 -18q-124 0 -167.5 79.5
t-43.5 270.5v627zM834 2h-412q47 7 86.5 38t44.5 85v119q13 33 44.5 117.5t56.5 148t51 119.5v-494q1 -52 37 -87t92 -46z" />
    <glyph glyph-name="uniF448" unicode="tn" horiz-adv-x="1505" 
d="M20 977v10q177 0 177 281h151q0 -111 -83.5 -193.5t-176.5 -87.5h330v-10h-133v-658q0 -307 90 -307q5 0 31 11q27 18 47.5 61.5t50 132.5t49.5 139v502q0 59 -40 91t-91 42h283v-266q64 130 139.5 196t199.5 66q137 0 224.5 -104.5t87.5 -272.5v-14v-461q1 -52 37 -87
t92 -46h-412q47 5 89 40t42 91v524q0 144 -64 219.5t-155 75.5q-51 0 -95 -22t-79 -63.5t-58 -78.5t-48 -88q-14 -28 -28.5 -60.5t-25 -57.5t-26.5 -65.5t-23.5 -60t-25.5 -66t-23 -60.5q-13 -36 -35 -101t-34 -97.5t-31 -66.5t-39 -47q-21 -18 -70 -18q-124 0 -167.5 79.5
t-43.5 270.5v627h-113zM834 2h-412q47 7 86.5 38t44.5 85v119q13 33 44.5 117.5t56.5 148t51 119.5v-494q1 -52 37 -87t92 -46z" />
    <glyph glyph-name="uniF449" unicode="ub" horiz-adv-x="2154" 
d="M1380 803v-674q0 -30 -12 -57q53 -41 115 -62q54 -22 123 -22q152 0 252 112t127 273q14 85 4 188q-13 140 -88 245t-205 118q-50 5 -111 -11q-102 -31 -205 -110zM672 963h411q-52 -8 -88.5 -40t-42.5 -81v-420q-36 -39 -80 -100q-7 -8 -34 -46q-30 -42 -37 -51v606
q-3 54 -38.5 88.5t-90.5 43.5zM20 963h412q-55 -8 -91.5 -43t-39.5 -89v-524q0 -79 21 -135q24 -75 76.5 -119.5t129.5 -44.5q57 0 115.5 26.5t95.5 69.5q41 41 109 123q1 1 119 148q49 65 83.5 108.5t92 111t104 113t110.5 98t121 84t125 52.5t134 21q77 0 159 -29
q107 -45 165 -141.5t71 -221.5q9 -125 -23 -235q-84 -287 -411 -356q-88 -12 -174 6q-93 22 -160 75q-17 -39 -55 -63q-41 -23 -84 -23h-125q54 9 90 44.5t39 89.5v559q-127 -130 -277 -330v-238q6 -54 52 -88q21 -18 37 -25t44 -12h-108q-75 0 -125.5 51t-50.5 126
q-56 -72 -112 -114t-132 -54q-59 -10 -125 -4q-93 4 -163 68.5t-99 158.5q-23 77 -20 164v460q-3 53 -39 88t-91 44zM1229 748v526q0 33 -12 57q-18 28 -33 41q-44 32 -86 37h282v-532q-35 -23 -77 -62q-13 -11 -37.5 -33t-36.5 -34z" />
    <glyph glyph-name="uniF450" unicode="uh" horiz-adv-x="2179" 
d="M111 946q-37 34 -91 43h412q-49 -7 -89.5 -40.5t-41.5 -90.5v-522q0 -151 65.5 -225t161.5 -74q57 0 113.5 25t97.5 69q65 65 227.5 272.5t262.5 309.5q86 91 192.5 168t200.5 100q41 8 82 8q7 0 21.5 -1t21.5 -1q120 -8 201.5 -112t81.5 -265v-14v-461q1 -52 37 -87
t92 -46h-412q47 5 89 40t42 91v524q0 145 -59 217t-150 80h-14q-120 0 -277 -127v-692q1 -52 37 -87t92 -46h-409q44 5 84.5 37.5t44.5 85.5v567q-122 -124 -275 -327v-238q4 -53 46.5 -86.5t86.5 -38.5h-108q-74 0 -125 49t-51 127q-78 -95 -148 -133q-71 -41 -172 -41
q-33 0 -49 2q-120 8 -201 110t-81 267v14v461q-3 55 -39 88zM762 946q-37 34 -90 43h411q-46 -7 -86 -38t-45 -83v-419q-66 -75 -151 -197v606q-3 55 -39 88zM1141 1427q-28 11 -45 13h282v-535q-63 -45 -151 -129v527q0 86 -86 124z" />
    <glyph glyph-name="uniF451" unicode="um" horiz-adv-x="2826" 
d="M111 946q-37 34 -91 43h412q-49 -7 -89.5 -40.5t-41.5 -90.5v-522q0 -151 65.5 -225t161.5 -74q57 0 113.5 25t97.5 69q65 65 227.5 272.5t262.5 309.5q86 91 192.5 168t200.5 100q41 8 82 8q7 0 21.5 -1t21.5 -1q97 -8 171 -76.5t99 -187.5q8 87 64.5 155.5t148.5 94.5
q56 16 121 16q27 0 41 -2q122 -8 203.5 -112.5t81.5 -278.5v-461q1 -52 37 -87t92 -46h-412q47 5 89 40t42 91v524q0 150 -66.5 224.5t-164.5 74.5q-106 0 -187.5 -77t-81.5 -179v-18q5 -57 5 -66v-20v-461q1 -52 37 -87t92 -46h-412q47 5 89 40t42 91v524q0 145 -59 217
t-150 80h-14q-120 0 -277 -127v-692q1 -52 37 -87t92 -46h-409q44 5 84.5 37.5t44.5 85.5v567q-122 -124 -275 -327v-238q4 -53 46.5 -86.5t86.5 -38.5h-108q-74 0 -125 49t-51 127q-78 -95 -148 -133q-71 -41 -172 -41q-33 0 -49 2q-120 8 -201 110t-81 267v14v461
q-3 55 -39 88zM762 946q-37 34 -90 43h411q-46 -7 -86 -38t-45 -83v-419q-66 -75 -151 -197v606q-3 55 -39 88zM1141 977q-24 9 -45 12h282v-84q-63 -45 -151 -129v78q0 47 -24.5 78.5t-61.5 44.5z" />
    <glyph glyph-name="uniF452" unicode="un" horiz-adv-x="2179" 
d="M111 946q-37 34 -91 43h412q-49 -7 -89.5 -40.5t-41.5 -90.5v-522q0 -151 65.5 -225t161.5 -74q57 0 113.5 25t97.5 69q65 65 227.5 272.5t262.5 309.5q86 91 192.5 168t200.5 100q41 8 82 8q7 0 21.5 -1t21.5 -1q97 -8 171 -76.5t99 -187.5q13 -50 13 -100v-27v-461
q1 -52 37 -87t92 -46h-412q47 5 89 40t42 91v524q0 145 -59 217t-150 80h-14q-120 0 -277 -127v-692q1 -52 37 -87t92 -46h-409q44 5 84.5 37.5t44.5 85.5v567q-122 -124 -275 -327v-238q4 -54 45 -87t88 -38h-108q-74 0 -125 49t-51 127q-78 -95 -148 -133
q-71 -41 -172 -41q-33 0 -49 2q-120 8 -201 110t-81 267v14v461q-3 55 -39 88zM762 946q-37 34 -90 43h403q-46 -7 -82 -36.5t-41 -84.5v-419q-66 -75 -151 -197v606q-3 55 -39 88zM1141 979q-15 6 -45 10h282v-84q-63 -45 -151 -129v78q0 87 -86 125z" />
    <glyph glyph-name="uniF453" unicode="Th" horiz-adv-x="1826" 
d="M20 1384v52h1006v-670q18 74 71.5 129t133.5 78q59 16 123 16q7 0 20.5 -1t20.5 -1q120 -8 201 -111t81 -266v-14v-461q1 -52 37 -87t92 -46h-411q47 5 89 40t42 91v524q0 150 -67 224.5t-165 74.5q-104 0 -186 -74t-82 -186v-561q1 -52 37 -87t92 -46h-412q47 7 86.5 38
t44.5 85v1180q-1 46 -27 76.5t-65 43.5h-188v-1302q4 -48 40 -79t89 -42h-412q46 5 86 37t47 84v1302h-268q-46 0 -108 -20q-33 -12 -48 -21z" />
    <glyph glyph-name="uniF454" unicode="va" horiz-adv-x="1990" 
d="M20 991h306q-9 -5 -15.5 -10.5t-10.5 -11.5t-6.5 -11t-3.5 -11.5t-1 -9.5v-9v-6q0 -17 4 -41q16 -90 67.5 -189.5t114.5 -184t124.5 -164.5t105 -157t47.5 -135q148 404 249 668q64 191 228 246q21 7 43.5 12.5t37.5 8t35 4t28 1.5h26h18q30 0 96 -4q63 -4 117 -23
t103.5 -56.5t78.5 -105t29 -157.5v-508q1 -54 37 -89t92 -46h-125q-66 0 -110.5 45t-44.5 111q-183 -168 -365 -168q-137 0 -226 79.5t-89 209.5v22q11 215 239 313l8 4q149 60 277 60q69 0 156 -19q0 83 -21 150q-45 149 -174 166q-52 6 -109 6q-83 0 -157 -27
q-158 -58 -219 -239q-24 -64 -84 -221t-88 -232q-52 -133 -97 -260h-123q-22 92 -72 181t-107 163t-114 149.5t-105 170.5t-68 196q-15 41 -51.5 81.5t-80.5 47.5zM1151 373q-6 -30 -6 -62q0 -64 20 -123q26 -80 82 -127t123 -47q17 0 27 2q153 20 293 154v479
q-73 21 -148 21q-151 0 -258.5 -83.5t-132.5 -213.5z" />
    <glyph glyph-name="uniF455" unicode="vi" horiz-adv-x="1617" 
d="M20 991h306q-9 -5 -15.5 -10.5t-10.5 -11.5t-6.5 -11t-3.5 -11.5t-1 -9.5v-9v-6q0 -17 4 -41q16 -90 67.5 -189.5t114 -183t123.5 -162.5t104.5 -155.5t47.5 -135.5q24 60 116 314.5t138 375.5q20 60 57.5 149t92 196.5t118.5 181.5t117 74q37 0 63.5 -28t26.5 -69
t-26.5 -68.5t-63.5 -27.5t-64 27.5t-27 68.5q0 24 13 47q-87 -83 -165 -235t-134 -320q-115 -308 -172 -467q-66 -180 -99 -272h-123q-22 92 -72 181t-107 163t-114 149.5t-105 170.5t-68 196q-15 41 -51.5 81.5t-80.5 47.5zM1169 991h299v-856q3 -47 33 -84q37 -40 96 -49
h-411q48 7 87.5 40t43.5 89v733q-4 61 -53 94t-95 33z" />
    <glyph glyph-name="uniF456" unicode="vj" horiz-adv-x="1499" 
d="M1108 -541l-2 9q104 51 147 118q29 44 44.5 122.5t17.5 131.5t2 133v895q-7 53 -45.5 82.5t-87.5 40.5h282v-995q0 -183 -98.5 -324t-259.5 -213zM20 991h306q-9 -5 -15.5 -10.5t-10.5 -11.5t-6.5 -11t-3.5 -11.5t-1 -9.5v-9v-6q0 -17 4 -41q16 -90 67.5 -189.5t114 -183
t123.5 -162.5t104.5 -155.5t47.5 -135.5q24 60 116 314.5t138 375.5q25 82 75.5 198t128.5 239t142 153q9 6 16 6q20 5 23 5q37 0 63.5 -28t26.5 -69t-26.5 -68.5t-63.5 -27.5t-64 27.5t-27 68.5q0 24 13 47q-87 -83 -165 -235t-134 -320q-115 -308 -172 -467
q-66 -180 -99 -272h-123q-22 92 -72 181t-107 163t-114 149.5t-105 170.5t-68 196q-15 41 -51.5 81.5t-80.5 47.5z" />
    <glyph glyph-name="uniF457" unicode="wa" horiz-adv-x="2490" 
d="M20 991h306q-9 -5 -15.5 -10.5t-10.5 -11.5t-6.5 -11t-3.5 -11.5t-1 -9.5v-9v-6q0 -17 4 -41q16 -90 67.5 -189.5t114.5 -184t124.5 -164.5t105 -157t47.5 -135q14 39 61 164.5t74 198.5q11 28 30 81t23 64q1 -3 3 -5t3 -5q34 -50 98.5 -136t100.5 -136t68 -114t36 -112
q5 13 23 60t31 79q15 37 75 203q25 64 123 326q64 191 228 246q21 7 43 12.5t37 8t35.5 4t28 1.5h25.5h19q30 0 96 -4q63 -4 117 -23t103.5 -56.5t78.5 -105t29 -157.5v-508q1 -54 36.5 -89t92.5 -46h-127q-63 0 -108.5 45t-45.5 111q-183 -168 -364 -168
q-137 0 -226.5 79.5t-89.5 209.5v22q11 214 240 313l8 4q145 60 275 60q70 0 157 -19q0 86 -20 150q-45 148 -176 166q-53 6 -109 6q-84 0 -158 -27q-158 -58 -219 -239q-24 -65 -83 -222t-87 -231q-43 -109 -96 -260h-123q-18 74 -59 152.5t-71.5 122t-94.5 129.5
q-53 -148 -105 -279q-8 -24 -24.5 -65.5t-22.5 -59.5h-123q-22 92 -72 181t-107 163t-114 149.5t-105 170.5t-68 196q-15 41 -51.5 81.5t-80.5 47.5zM1651 373q-6 -30 -6 -62q0 -64 20 -123q26 -80 82 -127t123 -47q16 0 26 2q153 20 293 154v479q-73 21 -147 21
q-154 0 -260 -83.5t-131 -213.5z" />
    <glyph glyph-name="uniF458" unicode="wi" horiz-adv-x="2117" 
d="M20 991h306q-9 -5 -15.5 -10.5t-10.5 -11.5t-6.5 -11t-3.5 -11.5t-1 -9.5v-9v-6q0 -17 4 -41q16 -90 67.5 -189.5t114.5 -184t124.5 -164.5t105 -157t47.5 -135q14 39 61 164.5t74 198.5l6 18q34 87 47 127q1 -3 3 -5t3 -5q32 -46 124.5 -167.5t133 -193t45.5 -133.5
q24 60 116 314.5t138 375.5q20 60 57.5 149t92 196.5t118.5 181.5t117 74q37 0 63.5 -28t26.5 -69t-26.5 -68.5t-63.5 -27.5q-38 0 -64 27.5t-26 68.5q0 26 12 47q-87 -83 -165 -235t-134 -320q-115 -308 -172 -467q-20 -55 -98 -272h-123q-18 74 -59 152.5t-71.5 122
t-94.5 129.5q-53 -148 -105 -279q-8 -24 -24.5 -65.5t-22.5 -59.5h-123q-22 92 -72 181t-107 163t-114 149.5t-105 170.5t-68 196q-15 41 -51.5 81.5t-80.5 47.5zM1669 991h299v-856q4 -55 38.5 -88.5t90.5 -44.5h-411q45 5 86 39.5t45 89.5v733q-4 61 -53 94t-95 33z" />
    <glyph glyph-name="uniF459" unicode="wj" horiz-adv-x="1998" 
d="M20 991h306q-9 -5 -15.5 -10.5t-10.5 -11.5t-6.5 -11t-3.5 -11.5t-1 -9.5v-9v-6q0 -17 4 -41q16 -90 67.5 -189.5t114.5 -184t124.5 -164.5t105 -157t47.5 -135q27 73 81.5 220t81.5 221l25 67q1 -3 3 -5t3 -5q32 -46 124.5 -167.5t133 -193t45.5 -133.5q24 60 116 314.5
t138 375.5q20 60 57.5 149t92 196.5t118.5 181.5t117 74q37 0 63.5 -28t26.5 -69t-26.5 -68.5t-63.5 -27.5q-38 0 -64 27.5t-26 68.5q0 26 12 47q-87 -83 -165 -235t-134 -320q-115 -308 -172 -467q-20 -55 -98 -272h-123q-18 74 -59 152.5t-71.5 122t-94.5 129.5
q-53 -148 -105 -279q-8 -24 -24.5 -65.5t-22.5 -59.5h-123q-22 92 -72 181t-107 163t-114 149.5t-105 170.5t-68 196q-15 41 -51.5 81.5t-80.5 47.5zM1606 -532q85 43 126 89.5t62 131.5q21 89 21 284v895q-4 52 -43 81.5t-89 41.5h283v-995q0 -183 -98.5 -324t-259.5 -213z
" />
    <glyph glyph-name="uniF460" unicode="ya" horiz-adv-x="1959" 
d="M104 952q-43 31 -84 39h314q-19 -7 -32 -33.5t-13 -52.5v-14q7 -64 52 -141.5t107 -151.5t125.5 -146.5t117 -148.5t71.5 -135q10 22 22 57q-23 -62 -43.5 -118t-29.5 -79.5t-11 -29.5q2 4 25 65t51.5 135.5t69 183.5t74.5 202q9 28 28 76.5t23 58.5q64 191 227 246
q25 9 48.5 14.5t45 7.5t34 2.5t30.5 0.5l18 -1q35 0 109 -4q62 -4 116.5 -23t104 -56.5t78 -104t28.5 -156.5v-510q0 -54 36 -89.5t93 -43.5h-127q-63 0 -108 45.5t-45 108.5q-187 -168 -367 -168q-136 0 -224.5 80t-88.5 211v22q4 108 68 186t172 125l8 4q142 62 276 62
q69 0 156 -19q0 83 -21 150q-46 151 -176 164q-52 6 -108 6q-84 0 -158 -27q-158 -58 -219 -239q-4 -13 -12.5 -35.5t-10.5 -28.5q-251 -663 -254 -672q-27 -76 -90.5 -188.5t-128.5 -189.5q-14 -20 -14 -41q0 -11 1.5 -18t19 -20.5t51.5 -19.5h-256q38 5 91.5 31t86.5 59
q65 73 129 187t102 207q-18 68 -55 136.5t-81.5 127t-95.5 117.5t-100 117.5t-91.5 117.5t-73.5 126.5t-43 135.5q-9 59 -48 90zM1120 371q-6 -30 -6 -62q0 -59 21 -121q26 -81 80 -127.5t122 -46.5q19 0 29 2q63 7 139.5 44.5t153.5 107.5v479q-73 21 -150 21
q-152 0 -258 -83.5t-131 -213.5z" />
    <glyph glyph-name="uniF461" unicode="yi" horiz-adv-x="1595" 
d="M20 989h314q-19 -6 -32 -32t-13 -52v-14q8 -78 66 -164.5t157 -200.5q102 -115 165 -200.5t85 -159.5q18 44 54.5 144.5t55.5 148.5l60 159q10 28 57 152q19 57 57 143t91.5 188.5t115.5 173.5t113 71q37 0 63.5 -28t26.5 -69t-26.5 -68.5t-63.5 -27.5q-38 0 -64 27.5
t-26 68.5q0 26 12 47q-84 -81 -161 -230.5t-134 -313.5q-285 -756 -293 -775q-27 -76 -90.5 -188.5t-128.5 -189.5q-14 -20 -14 -41q0 -11 1.5 -18t19 -20.5t51.5 -19.5h-256q39 5 92 30.5t86 59.5q65 73 129 187t102 207q-18 68 -55 136.5t-81.5 127t-95.5 117.5
t-100 117.5t-91.5 117.5t-73.5 126.5t-43 135.5q-19 109 -132 127zM1190 985q-24 6 -43 6h299v-856q0 -54 36.5 -89.5t92.5 -43.5h-412q45 5 86 39.5t45 89.5v733q-3 45 -33 76t-71 45z" />
    <glyph glyph-name="uniF462" unicode="yj" horiz-adv-x="1476" 
d="M20 991h314q-19 -7 -32 -33.5t-13 -52.5v-14q7 -64 52 -141.5t107 -151.5t125.5 -146.5t117 -148.5t71.5 -135q19 49 60.5 160.5t51.5 138.5l62 164q11 29 31 80.5t28 74.5q31 91 80.5 199.5t121 216t130.5 133.5q2 2 14 6l5 2h2q3 0 9 1.5t9 1.5q37 0 63.5 -28t26.5 -69
t-26.5 -68.5t-63.5 -27.5q-38 0 -64 27.5t-26 68.5q0 26 12 47q-83 -79 -160.5 -226t-132.5 -308q-279 -744 -295 -785q-27 -76 -90.5 -188.5t-128.5 -189.5q-14 -20 -14 -41q0 -11 1.5 -18t19 -20.5t51.5 -19.5h-256q38 5 91.5 31t86.5 59q65 73 129 187t102 207
q-18 68 -55 136.5t-81.5 127t-95.5 117.5t-100 117.5t-91.5 117.5t-73.5 126.5t-43 135.5q-18 104 -132 129zM1085 -541l-2 9q85 43 126.5 89.5t62.5 131.5q20 85 20 284v895q-4 52 -43 81.5t-88 41.5h283v-995q0 -183 -99 -324t-260 -213z" />
    <glyph glyph-name="uniF463" unicode="Gangitem" horiz-adv-x="7888" 
d="M817 1436q-164 0 -311 -81.5t-230 -221.5q-107 -180 -104 -443q3 -128 50 -249.5t127 -216t196 -153t248 -61.5q111 -3 213 39q94 39 161 133v488h-409q131 32 233.5 124t136.5 218q20 73 17 149q-12 131 -102 203t-226 72zM3604 539q-15 -125 7 -220q20 -89 69 -157
l459 741q-74 62 -137 68q-54 6 -123 -17q-62 -20 -112 -64.5t-82 -103t-52 -120t-29 -127.5zM4147 897l-461 -743q88 -113 209 -127q41 -6 105 10q87 23 150.5 93.5t93.5 153.5t40 177q8 72 2 145q-28 188 -139 291zM5360 621l-2 -9q-12 -98 2 -194q12 -98 53 -182
q-6 84 47 155q82 105 229 163.5t297 66.5q3 77 -24 147q-35 92 -110.5 152.5t-168.5 60.5q-72 0 -130.5 -31t-96 -84.5t-61 -114t-35.5 -130.5zM2359 0h-125q-54 0 -96.5 34t-54.5 87q9 9 63 76q10 13 38.5 46.5t45.5 55.5v-166q3 -54 38.5 -89t90.5 -44zM25 719
q0 221 92 375q105 174 270 274t363 100q75 0 142.5 -17.5t124.5 -52.5t94 -95t44 -138q6 -71 -12 -141q-35 -122 -119 -211.5t-203 -132.5h598v-10h-100v-348q-17 -44 -64 -103q-91 -116 -238.5 -174.5t-307.5 -58.5q-144 0 -272 61t-218 162t-142 234.5t-52 275.5zM1663 -2
q-60 11 -107 44.5t-71 86.5q-22 43 -25 86q-3 44 6 90q10 48 32.5 87t60.5 70t70 50.5t85 46.5q79 42 129 82.5t78 101.5q19 42 16 82q-6 38 -26 64q-23 27 -51 35q-34 10 -62 2q-22 -6 -31 -21q-4 -5 -11.5 -13.5t-10.5 -12.5q-9 -16 -25 -25q-18 -11 -43 -8q-32 4 -45 22
q-15 18 -12 43q6 34 39 54t70 20q88 0 172 -70q37 -34 45 -71q6 -38 -7 -80q-27 -95 -161 -229l-54 -54q-113 -113 -120 -209q-3 -45 10 -86q26 -81 86 -131q56 -50 145 -41q61 7 123 53t111 107v473q3 40 -4 98q-9 79 -43 147t-95 91q139 -7 216 -101t77 -239v-287
q119 151 273 318v188q-6 55 -49 90q-41 29 -84 35h284v-158q42 37 65.5 56t62.5 45t77 39t80 16q41 3 82 0q121 -11 191 -95.5t89 -211.5q1 -6 2 -18t2 -17v-68v-444q3 -52 39.5 -87t89.5 -44h-411q42 5 86 37q45 36 45 94v524q0 55 -12 111q-19 60 -42.5 97t-70.5 67
q-47 24 -107 24q-83 0 -145 -45q-135 -99 -250 -223q-113 -124 -252 -293q-24 -27 -63 -74.5t-47 -56.5q-49 -62 -84 -102q-54 -67 -130 -115t-149 -51q-81 -3 -139 4zM2783 0h-411q69 12 114 72q14 25 17 49v497q13 13 38 40.5t39 41.5q37 40 74 74v-643q3 -52 39.5 -87
t89.5 -44zM3463 479q0 219 141.5 363.5t362.5 144.5q125 0 203 -37q85 141 203 243.5t262 143.5q8 4 16 4h16q37 -3 62 -28q24 -27 24 -66q0 -38 -26.5 -67t-63.5 -29t-63.5 29t-26.5 67t27 68q-72 -24 -132 -60t-112 -88t-90 -100t-88 -121q126 -55 191 -167.5t65 -254.5
q0 -223 -143 -368.5t-369 -145.5q-74 0 -149 20.5t-128 61.5q-8 -16 -14 -26q-12 -21 -14 -29q-3 -16 2 -27q2 -12 26 -22q32 -14 99 -11q71 3 133 3q53 0 108 -3q243 0 338 -77q81 -66 78 -162q0 -52 -31.5 -95.5t-78 -70.5t-106.5 -46t-112 -27.5t-98 -10.5h-33
q-6 -2 -24 -2q-68 0 -107 2q-173 8 -241 68q-26 20 -41 47q-14 25 -11 57q3 26 21 41q16 16 39 16q22 0 43 -16t24 -37t0 -39q-3 -21 7 -45q30 -66 155 -80q8 -1 26 -2t27 -2q45 0 70 2q38 3 78 6q186 29 244 162q22 63 10 117q-18 66 -71 110t-124 60q-73 17 -164 14
q-57 -2 -155 -2h-35q-7 1 -21.5 3t-21.5 3q-55 9 -66 39q-7 17 9 45q19 34 26 43q-86 62 -131 165.5t-45 215.5zM4874 0h-411q40 5 84 37q14 11 32 37q12 21 15 51v739q-3 34 -15 54q-16 23 -32 36q-37 27 -84 33h282v-860q3 -53 38.5 -85t90.5 -42zM4911 352v627h-113v10
q51 0 87.5 24.5t55 65.5t26.5 84t8 92v15h151q0 -104 -78.5 -188.5t-181.5 -92.5h330v-10h-133v-657q0 -49 4 -127q2 -49 17.5 -96.5t47.5 -69.5q29 -23 78 -11q-51 -14 -90 -14q-43 0 -76 11.5t-55 28t-37.5 46.5t-23 55.5t-12 66.5t-5 68t-0.5 72zM6576 0h-412
q70 12 115 72q14 25 17 49v391q12 18 37 57.5t38 59.5q10 14 35.5 50.5t40.5 57.5v-606q0 -53 37 -87t92 -44zM5206 477q-3 127 43 225q68 140 192 218.5t281 78.5q177 0 289.5 -104t112.5 -283q-129 6 -261 -18q-119 -24 -225.5 -74t-167.5 -129q-59 -77 -47 -172
q99 -170 291 -188q87 -6 164 41q81 49 149.5 126.5t136.5 180.5q21 34 65.5 101.5t66.5 101.5v280q-6 54 -50 90q-41 29 -84 35h283v-35q0 -16 2 -26v-41v-76q67 90 156 137q80 42 211 39q108 -10 178 -81.5t94 -182.5q6 90 64 156.5t147 91.5q83 22 164 16q96 -4 164.5 -68
t97.5 -161q23 -77 20 -164v-461q3 -52 39.5 -87t90.5 -44h-412q42 5 86 37q45 36 45 94v524q0 79 -18 138q-62 161 -213 161q-79 0 -150 -46t-100 -117q-22 -55 -19 -113q6 -41 6 -86v-461q3 -52 39.5 -87t89.5 -44h-411q42 5 86 37q45 36 45 94v524q0 76 -19 138
q-63 161 -209 161q-79 0 -151.5 -47.5t-120.5 -118.5q-37 -45 -76 -106q-12 -17 -24.5 -36.5t-27.5 -43.5t-23 -37q-24 -39 -69.5 -108.5t-62.5 -96.5q-46 -72 -92.5 -129t-108 -112.5t-135 -86t-151.5 -30.5q-33 0 -74 6q-185 37 -288 157t-109 312z" />
    <glyph glyph-name=".notdef" horiz-adv-x="915" 
d="M20 1434h875v-1434h-875v1434zM78 1393l379 -633l381 633h-760zM432 717l-369 614v-1231zM459 674l-379 -631h758zM483 717l371 -621v1239z" />
    <glyph glyph-name="uni0000" horiz-adv-x="0" 
 />
    <glyph glyph-name="uni0000" horiz-adv-x="0" 
 />
    <glyph glyph-name="uni000D" unicode="&#xd;" horiz-adv-x="0" 
 />
    <glyph glyph-name="uni000A" unicode="&#xa;" horiz-adv-x="0" 
 />
    <glyph glyph-name="space" unicode=" " horiz-adv-x="694" 
 />
    <glyph glyph-name="exclam" unicode="!" horiz-adv-x="249" 
d="M121 358l-101 963h209l-96 -963h-12zM31 109q0 41 28 70.5t66 29.5q41 0 68.5 -29t27.5 -71t-27.5 -72.5t-68.5 -30.5q-38 0 -66 31t-28 72z" />
    <glyph glyph-name="quotedbl" unicode="&#x22;" horiz-adv-x="307" 
d="M23 1358v10q0 31 13.5 46.5t35.5 15.5q51 0 51 -72q-12 -271 -51 -271q-40 0 -49 271zM188 1358v10q0 62 50 62q49 0 49 -72q-9 -271 -49 -271q-41 0 -50 271z" />
    <glyph glyph-name="numbersign" unicode="#" horiz-adv-x="1998" 
d="M20 426h568l153 684h-563v14h567l136 607h14l-135 -607h639l137 607h12l-137 -607h567v-14h-571l-152 -684h564v-12h-568l-137 -607h-12l137 607h-639l-137 -607h-14l137 607h-566v12zM756 1110l-154 -684h641l152 684h-639z" />
    <glyph glyph-name="dollar" unicode="$" horiz-adv-x="929" 
d="M471 645v-637q116 0 226.5 79t127.5 189q9 80 -18 138q-27 55 -76 98q-58 45 -119 72q-95 42 -141 61zM123 1194q-6 -73 20 -121q47 -99 183 -158q65 -32 131 -57v590q-80 0 -151.5 -27.5t-123 -87t-59.5 -139.5zM471 -133h-14v127q-88 3 -167.5 30.5t-146 85
t-98.5 138.5q-28 73 -22 149h8q-6 -71 22 -143q27 -70 86 -123q116 -116 318 -123v643q-52 22 -86.5 37.5t-81 40.5t-77 48t-64 56.5t-53 69t-32 82.5t-12.5 100q0 166 117 269.5t289 103.5v111h14v-111q123 -3 222 -63t165 -166l-8 -4q-69 109 -188 176q-58 26 -99 37
q-55 10 -92 10v-594q30 -13 86.5 -37t71.5 -31q80 -39 141 -86q71 -62 105 -131t34 -159q0 -117 -59.5 -213t-160 -149.5t-218.5 -53.5v-127z" />
    <glyph glyph-name="percent" unicode="%" horiz-adv-x="1722" 
d="M1016 281q-29 69 -29 141q0 151 108 258.5t251 107.5q148 0 252 -108.5t104 -257.5q0 -152 -106 -255.5t-253 -103.5q-108 0 -197.5 60.5t-129.5 157.5zM49 872q-29 69 -29 142q0 150 108 257t251 107q147 0 251.5 -107t104.5 -257q0 -152 -105.5 -255.5t-252.5 -103.5
q-112 0 -200 59.5t-128 157.5zM1100 422q0 -230 151 -313q53 -27 99 -27q101 0 171 101.5t70 238.5q0 58 -14 116.5t-41.5 111.5t-76.5 86.5t-111 33.5q-65 0 -115 -32t-78 -84.5t-41.5 -111.5t-13.5 -120zM133 1014q0 -106 36 -189t116 -125q51 -26 98 -26
q101 0 170.5 101.5t69.5 238.5q0 58 -14 116.5t-41.5 111t-76 85.5t-110.5 33q-64 0 -114 -32t-78 -84.5t-42 -111t-14 -118.5zM516 -6l711 1446h12l-711 -1446h-12z" />
    <glyph glyph-name="ampersand" unicode="&#x26;" horiz-adv-x="1280" 
d="M27 344q-7 44 -7 72q0 133 84 225q47 54 116.5 83.5t148.5 29.5q46 0 116 -17q-146 52 -208 88q-156 92 -156 242v16q3 63 53.5 127t122.5 104t137 40q90 0 177.5 -62t162.5 -192l-8 -4q-67 119 -154 183t-170 64q-66 0 -110 -38t-61 -91.5t-17 -119.5q0 -124 83.5 -225
t240.5 -160q-3 -3 -3 -4t-1 -4t-1 -7q-82 31 -147 31q-136 0 -209 -113q-57 -89 -57 -225q0 -35 2 -51q13 -129 115 -220.5t266 -95.5h12q225 0 350 152q90 110 90 274q0 98 -34 166q-29 56 -78 78l4 10q54 -28 117 -28q71 0 133 41q112 82 112 211q0 84 -47 137
q-31 33 -72 33q-28 0 -55 -21q-18 -14 -38 -46.5t-34.5 -64.5t-38 -87.5t-38.5 -86.5l-6 7q55 127 83 184.5t56 89.5q26 33 71 33q55 0 97 -60q33 -59 33 -122q0 -51 -27 -110t-92 -103q-63 -45 -137 -45q-36 0 -78 10q27 -24 46 -66.5t27.5 -94t3 -109.5t-23 -115
t-55.5 -109t-89.5 -91.5t-129 -63t-170.5 -23.5q-104 0 -197 30.5t-157 80t-104.5 110.5t-49.5 123z" />
    <glyph glyph-name="quotesingle" unicode="'" horiz-adv-x="143" 
d="M23 1352v10q0 31 13.5 46t35.5 15q51 0 51 -71q-12 -271 -51 -271q-40 0 -49 271z" />
    <glyph glyph-name="parenleft" unicode="(" horiz-adv-x="475" 
d="M20 705q0 337 113.5 563.5t317.5 292.5l4 -15q-198 -66 -309 -287.5t-111 -553.5q0 -330 111 -553t309 -289l-4 -13q-204 66 -317.5 292t-113.5 563z" />
    <glyph glyph-name="parenright" unicode=")" horiz-adv-x="475" 
d="M199 1438q-77 69 -179 104l5 14q201 -66 315.5 -293t114.5 -563t-114 -562t-316 -292l-5 13q198 66 309 288.5t111 552.5q0 248 -62.5 438.5t-178.5 299.5z" />
    <glyph glyph-name="asterisk" unicode="*" horiz-adv-x="460" 
d="M27 1235q-7 14 -7 25q0 5 5 20q12 37 45 37q31 0 137 -74q-9 27 -25 125q-2 6 -2 21q0 23 14 37t37 14q21 0 36.5 -15t15.5 -39q0 -12 -2 -18q-18 -96 -27 -125q106 74 137 74q35 0 47 -37q0 -2 1 -7t1 -7q0 -51 -51 -60q-118 -12 -121 -12q11 -6 21 -16t34 -34.5
t37 -37.5q23 -20 23 -39q0 -29 -25 -49q-15 -12 -30 -12q-30 0 -47 38q-44 96 -50 119q-7 -19 -49 -119q-17 -38 -47 -38q-18 0 -33 12q-22 17 -22 47q0 19 22 41q55 60 91 88q-11 0 -27 1.5t-44 5t-52 5.5q-33 6 -43 29z" />
    <glyph glyph-name="plus" unicode="+" horiz-adv-x="712" 
d="M348 1065h-328v14h328v351h14v-351h330v-14h-330v-352h-14v352z" />
    <glyph glyph-name="comma" unicode="," horiz-adv-x="229" 
d="M20 100q0 41 28.5 71t66.5 30q41 0 67.5 -29.5t26.5 -71.5q0 -141 -156 -274l-6 4q119 104 143 205q-14 -14 -36 -25.5t-39 -11.5q-38 0 -66.5 30.5t-28.5 71.5z" />
    <glyph glyph-name="hyphen" unicode="-" horiz-adv-x="712" 
d="M692 627h-672v14h672v-14z" />
    <glyph glyph-name="period" unicode="." horiz-adv-x="231" 
d="M20 104q0 42 28 71.5t69 29.5q38 0 66 -30t28 -71t-28 -71.5t-66 -30.5q-41 0 -69 30t-28 72z" />
    <glyph glyph-name="slash" unicode="/" horiz-adv-x="675" 
d="M641 1675h14l-620 -1923h-15z" />
    <glyph glyph-name="zero" unicode="0" horiz-adv-x="1087" 
d="M20 727q0 237 88.5 418.5t233.5 261.5q74 49 203 49q64 0 88 -8q180 -45 307 -251t127 -470q0 -100 -18.5 -199t-59.5 -194t-100.5 -168.5t-149 -120t-196.5 -51.5h-15q-94 0 -186.5 58t-163 155t-114.5 234t-44 286zM172 803q-2 -27 -2 -78q0 -64 6 -125
q9 -82 26 -160.5t47 -155.5t69 -135t94.5 -93.5t119.5 -35.5q32 0 76 13q175 50 256 301q51 158 51 371q0 75 -6 151q-20 202 -89 346.5t-173 208.5q-40 25 -86 31q-10 2 -29 2q-88 0 -165 -68t-123 -194q-63 -165 -72 -379z" />
    <glyph glyph-name="one" unicode="1" horiz-adv-x="460" 
d="M20 1262q53 31 148 88l145 90v-1297q0 -54 35.5 -90t91.5 -47h-401q48 5 88.5 41t40.5 94v1198q-27 -18 -78.5 -48t-64.5 -38q-2 0 -2 4q0 2 -3 5z" />
    <glyph glyph-name="two" unicode="2" horiz-adv-x="897" 
d="M20 6v14q94 79 181.5 164.5t176.5 188.5t161 219t114 229l4 13q47 128 50 253q-2 12 -2 37q-5 90 -29 157t-77.5 111.5t-133.5 47.5q-40 0 -85 -18t-85.5 -50.5t-68 -86.5t-29.5 -118l-31 2q69 266 291 279h26q134 0 241.5 -75t135.5 -208q10 -58 10 -104
q0 -188 -155 -393q-58 -75 -148.5 -166.5t-167 -160t-209.5 -183.5h560q52 4 84 37.5t43 87.5v-277h-857z" />
    <glyph glyph-name="three" unicode="3" horiz-adv-x="899" 
d="M20 381h9q3 -94 46.5 -178t126.5 -139.5t187 -55.5q165 0 251.5 106t94.5 281v29q0 185 -96 293q-96 102 -244 102q-5 0 -15 -1t-15 -1q121 65 189.5 158.5t68.5 208.5v12q-5 118 -54 185.5t-135 68.5h-10q-117 0 -213 -45t-143 -135l-7 6q110 184 375 184q154 0 243 -73
t89 -201q0 -70 -23.5 -127t-67 -96.5t-87.5 -65t-103 -49.5q174 -15 289 -137q103 -109 103 -265q0 -29 -2 -43q-9 -81 -46 -153t-98 -128t-150.5 -89t-195.5 -33t-190.5 57t-129 143t-47.5 181z" />
    <glyph glyph-name="four" unicode="4" horiz-adv-x="1056" 
d="M20 330q468 644 601 831q131 184 143 199q14 20 57 80h17v-1102h198v-8h-198v-189q0 -54 34.5 -89t90.5 -46h-400q45 6 87 42.5t42 94.5v187h-672zM39 338h653v905z" />
    <glyph glyph-name="five" unicode="5" horiz-adv-x="935" 
d="M23 385v12q0 154 86 258l8 -4q-53 -65 -74 -153q-10 -52 -10 -97q0 -127 65 -231q45 -74 119 -119t168 -45q118 0 203 55.5t127 146.5t47 210v31q0 84 -22.5 157.5t-66 131.5t-113.5 92t-159 34q-121 0 -262 -63q1 5 3.5 23t4.5 32l15 86q23 151 35 215q17 103 45 283
h610v-279q-11 56 -46 90.5t-89 34.5h-6h-484q-15 -92 -18 -112l-17.5 -105t-17.5 -111q-13 -82 -16 -96q-5 -35 -6 -41q139 78 299 78q100 0 188.5 -33.5t151.5 -95.5q122 -119 122 -293q0 -33 -2 -49q-13 -129 -89 -229t-189.5 -151.5t-243.5 -51.5q-110 0 -194 57.5
t-126.5 144.5t-45.5 187z" />
    <glyph glyph-name="six" unicode="6" horiz-adv-x="1007" 
d="M23 561q0 218 98.5 411t273 319.5t387.5 150.5l2 -6q-284 -51 -451 -244t-179 -518q0 -130 20 -244v10q0 102 40 179.5t105 121.5q117 84 267 84q21 0 53 -4q172 -24 270 -153q76 -102 76 -232q0 -43 -4 -63q-10 -69 -47.5 -135.5t-96.5 -121.5t-146.5 -88.5
t-188.5 -33.5q-164 0 -273 76t-159 219q-47 139 -47 272zM184 469v-25q0 -137 72 -262q95 -165 236 -176q12 -2 36 -2q138 0 226 102q88 101 98 256q0 6 1 18.5t1 18.5q0 177 -100 283q-98 104 -246 104q-82 0 -151 -34t-117 -107.5t-56 -175.5z" />
    <glyph glyph-name="seven" unicode="7" horiz-adv-x="937" 
d="M20 1440h898v-15q-114 -68 -232.5 -181.5t-206.5 -256.5q-135 -218 -135 -477v-82q3 -85 59 -233q39 -105 89 -189h-226q-49 162 -49 311q0 45 12 162q12 116 86 281q128 290 406 530h-701v150z" />
    <glyph glyph-name="eight" unicode="8" horiz-adv-x="999" 
d="M59 195q-39 62 -39 151q0 252 357 422q-240 144 -240 346v12q5 137 117.5 230.5t277.5 93.5q147 0 248 -79.5t101 -219.5q0 -54 -23 -103t-54.5 -83t-79 -65.5t-82.5 -49t-79 -35.5q19 -11 59.5 -33t61 -33t56.5 -33t56 -36t49 -37t45.5 -42t36 -45t29 -51.5t16.5 -57
t7 -64.5q0 -165 -137 -277t-338 -112q-156 0 -273.5 52.5t-171.5 148.5zM143 418v-25q0 -97 32.5 -174t87 -122.5t120.5 -69t139 -23.5q27 0 63.5 6t87 25t92 48t72 82t33.5 120v24q0 96 -61 174q-42 52 -108.5 97.5t-167.5 99.5t-146 82q-238 -105 -244 -344zM244 1194v-20
q0 -108 80.5 -192t226.5 -159q94 39 151.5 129.5t57.5 204.5v17q-4 68 -29 121.5t-62.5 83.5t-78 45.5t-80.5 15.5q-41 0 -85 -15t-84.5 -43t-67.5 -77.5t-29 -110.5z" />
    <glyph glyph-name="nine" unicode="9" horiz-adv-x="1005" 
d="M33 915q-10 39 -10 93q0 42 4 65q10 68 47.5 134t96.5 121t146.5 88.5t186.5 33.5h8q159 0 267.5 -75.5t158.5 -217.5q9 -29 17 -56.5t13 -50.5t8.5 -43.5t5.5 -37.5t3 -31t1 -24.5v-17.5v-12l-1 -5q0 -193 -80 -369.5t-225 -302.5q-201 -178 -455 -205l-4 8
q286 51 452.5 243.5t178.5 518.5v37q0 105 -18 207v-10q0 -102 -40 -179.5t-106 -121.5q-117 -84 -266 -84q-21 0 -53 4q-128 19 -218 97.5t-118 192.5zM156 1083q0 -6 -1 -18t-1 -18q0 -175 100 -281q101 -107 246 -107q126 0 219 83t104 235v22q0 43 -11 96.5t-35.5 112.5
t-59 108.5t-87.5 84t-114 39.5q-12 2 -37 2q-136 0 -225 -103q-88 -101 -98 -256z" />
    <glyph glyph-name="colon" unicode=":" horiz-adv-x="229" 
d="M47 276q-27 30 -27 72t27 71.5t68 29.5t67.5 -29.5t26.5 -71.5t-26.5 -72t-67.5 -30t-68 30zM47 981q-27 27 -27 72q0 42 27 71t68 29t67.5 -29t26.5 -71q0 -43 -26.5 -72t-67.5 -29q-39 0 -68 29z" />
    <glyph glyph-name="semicolon" unicode=";" horiz-adv-x="243" 
d="M35 283q0 42 26.5 71t67.5 29t67.5 -29t26.5 -71q0 -143 -155 -275l-7 4q120 105 144 205q-13 -13 -36 -25t-40 -12q-40 0 -67 30.5t-27 72.5zM20 952q0 42 27 71.5t68 29.5t67.5 -29.5t26.5 -71.5q0 -43 -26.5 -71.5t-67.5 -28.5t-68 28.5t-27 71.5z" />
    <glyph glyph-name="less" unicode="&#x3c;" horiz-adv-x="567" 
d="M547 389l-527 248v14l527 248v-16l-508 -238l508 -242v-14z" />
    <glyph glyph-name="equal" unicode="=" horiz-adv-x="712" 
d="M20 567h672v-14h-672v14zM692 877h-672v12h672v-12z" />
    <glyph glyph-name="greater" unicode="&#x3e;" horiz-adv-x="569" 
d="M530 647l-510 238v16l529 -248v-14l-529 -248v15z" />
    <glyph glyph-name="question" unicode="?" horiz-adv-x="729" 
d="M29 926h-9q24 181 111 290t191 117h26q130 0 227 -65q115 -81 130 -203q4 -32 4 -49q0 -142 -125 -293q-25 -30 -53 -61t-67.5 -69t-62.5 -59.5t-77.5 -71t-71.5 -65.5l-6 6q195 178 270 355q49 115 49 235q0 6 -1 17.5t-1 17.5q-8 120 -74 203.5t-172 83.5
q-97 0 -180.5 -104.5t-107.5 -284.5zM184 31q-26 29 -26 71t26.5 71.5t67.5 29.5q38 0 65 -30t27 -71q0 -42 -27 -72t-65 -30q-40 0 -68 31z" />
    <glyph glyph-name="at" unicode="@" horiz-adv-x="1714" 
d="M39 506q-16 71 -16 178q0 55 2 84q9 145 57 270q54 139 151 247.5t213.5 173t239 97.5t242.5 33h14q150 -2 287.5 -60.5t240 -157.5t163.5 -240t61 -300q0 -110 -30.5 -208t-80 -164.5t-111 -106t-124.5 -43.5q-4 0 -12 -1t-11 -1q-21 0 -43 4.5t-49.5 18t-49.5 34.5
t-40 58t-25 84q-185 -170 -364 -170q-136 0 -227 80t-91 211v22q8 209 240 314q-17 53 -17 102l-1 5v12t1 15.5t3 20t5.5 23.5t10 28t14.5 31q73 135 248 135q49 0 94.5 -11t88.5 -37t74 -64.5t50 -97.5t19 -132v-446q5 -106 27.5 -155.5t80.5 -49.5h10q37 3 77 26t78 66.5
t68 100.5t48 134t18 162q0 154 -59 291t-158 233.5t-233 154t-281 59.5h-22q-142 0 -289 -47.5t-271 -141.5q-136 -105 -220 -259.5t-95 -352.5q-2 -25 -2 -74q0 -193 75.5 -358.5t209.5 -265.5q121 -91 257.5 -135t250.5 -44h16q179 0 330.5 62t230.5 131l43 37l14 -12
q-10 -10 -31 -28t-82.5 -57t-130 -70t-174.5 -56t-216 -27h-13q-50 0 -113 10t-150 40t-167 75t-158.5 124t-128.5 179q-45 89 -67 207zM578 721q-7 -40 -7 -68q0 -51 19 -116q26 -81 81.5 -128t123.5 -47q13 0 28 3q62 7 139.5 44t153.5 107v481q-74 21 -147 21
q-154 0 -260 -83.5t-131 -213.5zM670 1092q-2 -12 -2 -33q0 -42 16 -92q143 59 274 59q76 0 158 -18v24q0 26 -3.5 56.5t-16 74t-32 77t-57.5 57.5t-87 24q-104 0 -172.5 -66t-77.5 -163z" />
    <glyph glyph-name="A" unicode="A" horiz-adv-x="1357" 
d="M274 2h-254q46 5 89 39t65 96l68 203q17 49 66.5 202t80.5 244l217 648h154q287 -799 443 -1237q29 -82 31 -86q1 -1 1 -2q19 -40 41.5 -65t60.5 -42h-280q35 28 35 59q0 19 -17 68q-225 619 -268 745q-3 -57 -29.5 -103.5t-68 -79t-92 -60t-104 -53.5t-101.5 -52.5
t-88 -63.5t-60 -81q-17 -48 -43.5 -130.5t-36.5 -111.5q-6 -15 -6 -33t17 -57q15 -35 79 -47zM276 414q23 40 65.5 74t89.5 59t99.5 50t99.5 52.5t85.5 60t61 80t22.5 105.5q-186 521 -189 526q-56 -172 -114 -349.5t-70 -213.5l-41 -121q-13 -40 -48.5 -143.5t-60.5 -179.5
z" />
    <glyph glyph-name="B" unicode="B" horiz-adv-x="1286" 
d="M301 430v-420h332q74 0 148.5 16t145 47.5t122.5 87.5t69 128q0 6 2 8v8q1 5 2 16.5t2 16.5q0 56 -6 92.5t-26 77.5q-59 123 -170.5 193.5t-249.5 70.5q-31 0 -45 -2q-8 -1 -24.5 -3t-24.5 -3q-128 -33 -195 -116.5t-82 -217.5zM506 1425h-205v-948q17 121 91.5 197
t195.5 104q97 23 169 81.5t99 148.5q17 65 2 141q-31 122 -128 199t-224 77zM633 2h-613q42 5 86 37q44 38 44 98v1161q0 32 -13 58q-14 25 -31 39q-51 35 -86 39h482q69 0 136 -12t132.5 -38.5t115 -75t70.5 -114.5q21 -70 9 -143q-18 -101 -95 -166t-188 -94q31 3 72 0
q165 -12 284 -67t187 -181q35 -72 41 -148q3 -77 -25 -153q-19 -48 -52 -85.5t-70.5 -62.5t-89.5 -42.5t-96.5 -27t-104 -15t-100 -6.5t-95.5 -1z" />
    <glyph glyph-name="C" unicode="C" horiz-adv-x="1372" 
d="M78 436q-58 131 -58 285q0 149 59.5 285.5t158 234t231.5 155.5t274 58q170 0 313 -72t226 -182l-6 -8q-82 113 -216 170t-278 57q-132 0 -237 -45q-233 -99 -326 -323q-11 -26 -19 -52t-13.5 -47t-9 -42t-5 -36.5t-2.5 -31t-1 -24t0.5 -17.5t0.5 -10q0 -113 35 -238
q69 -242 230.5 -381t377.5 -139q360 0 530 377l9 -2q-190 -418 -627 -418q-212 0 -386.5 123t-260.5 323z" />
    <glyph glyph-name="D" unicode="D" horiz-adv-x="1374" 
d="M586 2h-566q49 5 89.5 40t40.5 95v1161q0 62 -39.5 94t-90.5 42h566q153 0 292.5 -51.5t245 -143.5t168 -227.5t62.5 -294.5t-62.5 -294.5t-168 -226.5t-245 -142.5t-292.5 -51.5zM586 1425h-285v-1415h285q140 0 258 57.5t195 155t120 225t43 269.5t-43 270t-120 225.5
t-195 155t-258 57.5z" />
    <glyph glyph-name="E" unicode="E" horiz-adv-x="849" 
d="M20 2q48 5 90 40t42 95v1161q0 60 -38.5 93.5t-88.5 42.5h800v-52q-24 12 -51 21q-68 22 -121 22h-350v-743q53 -12 98 -12q44 0 129 13t134 13q63 0 118 -14v-8q-59 12 -112 12q-50 0 -138 -12t-131 -12q-58 0 -98 12v-664h352q52 0 121 21q38 13 53 22v-51h-809z" />
    <glyph glyph-name="F" unicode="F" horiz-adv-x="845" 
d="M20 2q48 5 90 40t42 95v1161q0 60 -38.5 93.5t-88.5 42.5h800v-52q-24 12 -51 21q-68 22 -121 22h-350v-743q53 -12 98 -12q44 0 129 13t134 13q63 0 118 -14v-8q-59 12 -112 12q-50 0 -138 -12t-131 -12q-58 0 -98 12v-537q0 -54 36 -90.5t93 -44.5h-412z" />
    <glyph glyph-name="G" unicode="G" horiz-adv-x="1419" 
d="M76 436q-56 133 -56 285q0 137 40 257t109 207.5t160 151.5t194 95.5t210 31.5q138 0 263.5 -52.5t220.5 -158.5l-5 -6q-183 183 -424 183q-225 0 -404.5 -152.5t-211.5 -388.5q-6 -53 -6 -107q0 -143 43 -278q29 -95 84 -185q81 -138 207 -220t288 -85h11q248 0 364 172
v488h-213v8h449v-8h-84v-348q-16 -39 -45.5 -81t-82.5 -88.5t-119 -82.5t-161 -60t-202 -24q-210 0 -380 123t-249 323z" />
    <glyph glyph-name="H" unicode="H" horiz-adv-x="1269" 
d="M432 2h-412q5 0 21 4q103 30 111 121v1173q0 59 -40.5 91.5t-91.5 42.5h412q-58 -11 -93.5 -46.5t-35.5 -89.5v-888q19 53 77 95.5t130.5 68.5t153.5 57t147.5 61t111 81t46.5 116v407q0 61 -39 94t-92 44h411q-55 -8 -90 -41t-39 -84v-1182q4 -53 39 -85t90 -40h-411
q25 3 55 16q76 45 76 119v703q-12 -48 -51 -87t-93.5 -66t-118 -50.5t-128.5 -47t-120.5 -49t-97.5 -63.5t-57 -84v-256q0 -54 36 -90.5t93 -44.5z" />
    <glyph glyph-name="I" unicode="I" 
d="M20 2q48 5 90 40t42 93v1165q0 59 -40.5 91.5t-91.5 42.5h412q-57 -11 -93 -46t-36 -90v-1165q1 -53 37.5 -88t91.5 -43h-412z" />
    <glyph glyph-name="J" unicode="J" horiz-adv-x="450" 
d="M-119 -205l-2 8q5 3 16.5 7.5t16.5 7.5q85 37 136 96t77.5 161.5t26.5 258.5v973q-7 98 -132 127h410q-56 -11 -90.5 -44.5t-38.5 -86.5v-969q0 -189 -116.5 -329t-303.5 -210z" />
    <glyph glyph-name="K" unicode="K" horiz-adv-x="1163" 
d="M20 1434h412q-58 -11 -93.5 -47t-35.5 -91v-678l631 701q18 29 18 53q0 8 -2 17t-17.5 24.5t-43.5 20.5h254q-41 -7 -100.5 -42.5t-98.5 -74.5q-132 -148 -209 -236q-65 -76 -112 -125q27 -56 81 -169t80 -169q51 -109 149.5 -311t104.5 -215q27 -60 99 -90h-289
q31 25 31 55q0 26 -17 70q-15 32 -92 196.5t-119 249.5q-21 43 -64.5 133.5t-66.5 137.5l-217 -240v-467q0 -54 36 -90.5t93 -44.5h-412q48 5 88 37.5t44 87.5v1167q-4 57 -45 95t-87 45z" />
    <glyph glyph-name="L" unicode="L" horiz-adv-x="927" 
d="M907 2h-887q43 5 85.5 43t46.5 92v1161q-6 55 -47 92t-85 44h412q-56 -11 -92 -45t-37 -86v-1293h442q44 0 115 23q35 13 47 20v-51z" />
    <glyph glyph-name="M" unicode="M" horiz-adv-x="1587" 
d="M274 2h-254q57 11 89 47t32 70v1315h125q13 -25 78 -144t100 -184q227 -422 342 -629q155 271 349 633q51 95 176 324h129v-1307q0 -54 35 -85.5t92 -39.5h-410q45 6 87 38.5t46 86.5v1245l-82.5 -148.5t-87.5 -158.5q-55 -102 -172 -314t-155 -282q14 -23 35.5 -64
t23.5 -45q68 -126 68 -208q0 -58 -31 -97q-45 -57 -127 -57q-50 0 -86.5 25.5t-42.5 74.5q-2 8 -2 25q0 46 22 102q9 23 58 113l-559 1022v-1241q4 -45 40.5 -78t81.5 -39zM659 209q-18 -40 -18 -80q0 -4 1 -11.5t1 -11.5q4 -40 27 -65t53 -25q44 0 70 47q14 25 14 52
q0 29 -14 67q-20 52 -66 127l-12 19q-9 -17 -10 -19q-3 -7 -20.5 -44t-25.5 -56z" />
    <glyph glyph-name="N" unicode="N" horiz-adv-x="1193" 
d="M20 2q42 5 81.5 38.5t39.5 74.5v1319h25l874 -1184v1067q0 34 -32 70t-88 47h254q-43 -6 -81 -39t-42 -74v-1319h-29q-4 7 -870 1188v-1073q4 -43 41 -76t81 -39h-254z" />
    <glyph glyph-name="O" unicode="O" horiz-adv-x="1431" 
d="M76 442q-56 133 -56 279q0 143 53.5 277t144.5 234.5t221 161t274 60.5q106 0 208.5 -32.5t190.5 -96t155 -151t105.5 -204.5t38.5 -249q0 -140 -54 -274t-145 -235.5t-220.5 -163.5t-270.5 -62q-217 0 -391 127.5t-254 328.5zM190 870q-10 -64 -10 -149v-39
q3 -102 26 -198.5t68 -182.5t106.5 -150t147 -101.5t183.5 -37.5h8q132 0 235.5 61t173.5 171q125 193 125 473v47q-11 234 -101.5 391.5t-227.5 228.5q-98 52 -209 52q-150 0 -266 -80q-104 -67 -169.5 -198.5t-89.5 -287.5z" />
    <glyph glyph-name="P" unicode="P" horiz-adv-x="1048" 
d="M20 1434h379q99 0 189 -13.5t171 -44t140.5 -75.5t94 -112.5t34.5 -150.5q0 -128 -80 -211t-217 -119t-332 -36h-94v-559q8 -93 129 -111h-411q47 5 87 36t44 85v1177q0 41 -24 71.5t-51.5 43.5t-58.5 19zM399 1425h-94v-743h94q244 0 361 98.5t117 257.5q0 82 -27 150.5
t-82.5 122.5t-149.5 84t-219 30z" />
    <glyph glyph-name="Q" unicode="Q" horiz-adv-x="1431" 
d="M55 489q-35 110 -35 230q0 143 54 277t145.5 234t221.5 160t274 60q132 0 257 -52t223 -144.5t157 -232t59 -302.5q0 -141 -50 -270.5t-134 -224.5t-195 -157t-231 -77q60 -19 135.5 -28t308.5 -28q-1 -9 -12.5 -44.5t-13.5 -43.5q-6 2 -129 35.5t-201 58t-131 46.5
q-6 0 -19 -1t-20 -1q-119 0 -234 45q-151 55 -264 176.5t-166 283.5zM190 866q-10 -64 -10 -147v-39q4 -129 40.5 -247t101.5 -213t166 -152.5t223 -59.5h2q-66 38 -105 95.5t-41 99.5q-1 10 -2 21.5t-1.5 17.5t-0.5 10q0 118 82 203q80 86 197 86q25 0 37 -2
q106 -12 182.5 -85.5t89.5 -177.5q102 189 102 449v37q-11 234 -101.5 391.5t-227.5 228.5q-98 52 -209 52q-150 0 -266 -80q-104 -66 -169.5 -199t-89.5 -289zM582 324q-11 -42 -11 -68q0 -84 58 -158q41 -53 119 -88q258 14 395 254q-12 112 -99.5 190t-201.5 78
q-96 0 -166.5 -59.5t-93.5 -148.5z" />
    <glyph glyph-name="R" unicode="R" horiz-adv-x="1150" 
d="M432 2h-412q47 5 87.5 36t44.5 85v1190q-2 30 -15 52.5t-35 35.5t-40 20t-42 13h467q86 0 165.5 -13.5t152 -44t126 -74.5t85 -109.5t31.5 -145.5q0 -138 -92 -228t-244 -129q19 -35 56 -105.5t56 -105.5q102 -195 193 -358q3 -5 12 -21.5t14.5 -25t16 -23t20 -23
t23 -16.5t28.5 -10h-288q26 24 26 68q0 10 -5.5 34t-12.5 35q-11 20 -182 338q-35 63 -101 189q-62 -4 -86 -4q-72 0 -114 -16.5t-64 -61.5v-461q4 -49 40 -81t89 -40zM303 1425v-825q30 72 178 72q414 0 414 375q0 55 -7.5 101t-33 99.5t-68.5 90.5t-121.5 62t-183.5 25
h-178z" />
    <glyph glyph-name="S" unicode="S" horiz-adv-x="931" 
d="M23 371h10q0 -75 35 -145.5t98 -121.5q124 -100 303 -100q33 0 49 2q93 5 195 89.5t114 176.5q2 12 2 37q0 120 -102 201q-77 59 -268 137q-61 25 -101.5 43.5t-93 48t-86 61t-64.5 73t-46 94t-15 114.5q0 64 26 131.5t77 120.5q114 121 305 121h24q111 -5 210.5 -64.5
t164.5 -164.5l-8 -4q-2 6 -10 14q-85 124 -213 178q-76 31 -164 31q-29 0 -41 -2q-134 -13 -211 -83.5t-88 -168.5q0 -4 -1 -13.5t-1 -13.5q0 -60 28.5 -109.5t85 -88.5t118.5 -68t151 -61q241 -88 346 -224q59 -80 59 -206q0 -166 -112 -281.5t-289 -132.5q-16 -2 -49 -2
q-184 0 -305 104q-63 54 -98 126.5t-35 150.5z" />
    <glyph glyph-name="T" unicode="T" horiz-adv-x="1034" 
d="M20 1382v52h994v-52q-12 7 -45 21q-46 17 -105 20h-270v-1300q4 -49 40.5 -81t88.5 -40h-412q46 5 87 36t46 85v1300h-268q-46 0 -108 -20q-33 -12 -48 -21z" />
    <glyph glyph-name="U" unicode="U" horiz-adv-x="1282" 
d="M20 1434h412q-50 -8 -86 -37t-43 -74v-793q0 -254 117 -393q106 -125 274 -125q33 0 49 2q178 17 281.5 151.5t103.5 315.5v842q-6 33 -37 67.5t-85 43.5h256q-44 -6 -82.5 -40t-42.5 -75v-836q0 -215 -128.5 -354t-330.5 -139q-110 0 -204 33t-166.5 98t-114 170
t-41.5 239v789q-7 50 -46.5 79t-85.5 36z" />
    <glyph glyph-name="V" unicode="V" horiz-adv-x="1384" 
d="M10 1423h314q-21 -12 -32 -28t-12 -24t-1 -21q0 -20 6 -41q25 -118 77.5 -235t103.5 -196t135.5 -205t133.5 -208v2q73 134 164 299t183.5 332t119.5 217q2 6 2 20q0 71 -84 86h254q-40 -5 -87.5 -34.5t-72.5 -71.5q-58 -101 -258.5 -467t-214.5 -391v-2
q79 -138 102 -197q53 -138 -5 -215q-44 -55 -127 -55q-52 0 -87.5 24.5t-41.5 75.5q-2 8 -2 25q0 44 22 100q12 30 57 113q-44 75 -134 209t-153 231t-131.5 242.5t-103.5 287.5q-12 38 -48 77.5t-79 49.5zM610 207q-20 -52 -20 -90q0 -4 1 -12t1 -11q6 -40 29 -64t53 -24
q43 0 69 47q9 15 9 37q0 33 -21 90q-8 22 -19.5 46t-27.5 52.5t-20 36.5q-48 -93 -54 -108z" />
    <glyph glyph-name="W" unicode="W" horiz-adv-x="2674" 
d="M92 1382q-37 43 -82 52h314q-9 -5 -16.5 -10.5t-12 -10t-8 -10t-5 -9t-2.5 -9.5t-1 -8v-7v-6q0 -23 6 -47q23 -109 68.5 -215.5t99 -190t119.5 -183.5t126 -192t122 -220t106 -263q1 1 2 3t2 3q0 2 2 2q23 42 81 146.5t89 161.5q46 85 159 290.5t169 307.5
q-5 9 -15.5 27.5t-15.5 27.5l-29 53q-67 131 -67 209q0 57 30 96q45 56 127 56q51 0 87 -25t42 -76q2 -8 2 -24q0 -47 -22 -103q-8 -20 -58 -112q11 -20 39 -73t45 -83q59 -112 189 -344q287 -520 295 -539q25 80 106.5 325.5t181 544t132.5 398.5q4 12 4 21
q0 28 -20.5 53.5t-74.5 34.5h256q-47 -9 -94 -39.5t-63 -75.5q-34 -102 -143 -431t-192 -579.5t-101 -308.5h-117q-38 71 -232.5 429.5t-285.5 526.5q-429 -771 -527 -956h-116q-15 74 -43 148t-75.5 157t-83 138.5t-102.5 154.5q-129 188 -217 353t-135 354q-8 30 -45 77z
M1427 1370q-14 -20 -14 -49q0 -32 14 -68q15 -40 68 -127l10 -20q6 8 11 18q2 5 11 23t11.5 23.5t9.5 20.5t9.5 21.5t7.5 19t7 20t4.5 18t3.5 19.5t1 18q0 3 -1 10.5t-1 11.5q-4 40 -27 64t-53 24q-39 0 -72 -47z" />
    <glyph glyph-name="X" unicode="X" horiz-adv-x="1249" 
d="M10 1434h305q-24 -21 -24 -45q0 -31 35 -84q66 -99 177.5 -273t155.5 -241q267 446 326 536q10 17 10 33q0 59 -86 74h256q-43 -8 -95.5 -41.5t-76.5 -73.5q-6 -9 -327 -539q391 -598 426 -657q82 -110 147 -121h-297q21 12 21 35q0 24 -23 59q-3 8 -11 19t-11 16
q-59 92 -176.5 273.5t-157.5 242.5q-206 -337 -324 -536q-8 -16 -8 -33q0 -24 20 -46t58 -30h-254q43 5 97 38.5t79 74.5q9 16 54.5 91t127 208.5t146.5 240.5q-374 577 -430 664q-21 36 -60.5 72t-79.5 43z" />
    <glyph glyph-name="Y" unicode="Y" horiz-adv-x="1495" 
d="M113 1389q-43 36 -93 45h347q-9 -2 -16 -4.5t-12.5 -5t-9.5 -5.5t-6.5 -5.5t-4.5 -6t-3 -5.5t-1.5 -5.5t-0.5 -4.5v-4v-4q0 -15 9 -30q35 -67 99 -130.5t137.5 -118.5t149.5 -113.5t153.5 -139t131.5 -170.5l299 645q8 16 8 33q0 16 -3 27t-22 26t-54 21h254
q-47 -7 -99 -37t-76 -74l-303 -649v-553q6 -48 42 -79.5t89 -39.5h-411q46 5 86 36t45 85v514q-35 74 -98 144t-138 130.5t-151.5 120t-156 136t-134.5 155.5q-23 35 -57 66z" />
    <glyph glyph-name="Z" unicode="Z" horiz-adv-x="993" 
d="M20 2q88 118 165.5 260t139 278t126.5 276.5t156.5 300.5t199.5 306h-535q-60 -3 -106 -20q-25 -11 -43 -21v52h850q-108 -152 -200.5 -318t-157 -307t-126.5 -277t-139 -272.5t-166 -249.5h537q54 0 123 21q34 11 51 22v-51h-875z" />
    <glyph glyph-name="bracketleft" unicode="[" horiz-adv-x="409" 
d="M389 -201h-369v1923h369v-14h-356v-1894h356v-15z" />
    <glyph glyph-name="backslash" unicode="\" horiz-adv-x="673" 
d="M33 1747l620 -1923h-12l-621 1923h13z" />
    <glyph glyph-name="bracketright" unicode="]" horiz-adv-x="409" 
d="M377 1663h-357v14h369v-1923h-369v15h357v1894z" />
    <glyph glyph-name="asciicircum" unicode="^" horiz-adv-x="526" 
d="M262 1444l244 -299l-10 -8l-234 288l-231 -288l-11 8z" />
    <glyph glyph-name="underscore" unicode="_" horiz-adv-x="712" 
d="M692 8h-672v12h672v-12z" />
    <glyph glyph-name="grave" unicode="`" horiz-adv-x="346" 
d="M23 1276v10q0 18 8 29q16 22 39 22t43 -20q55 -51 135 -131l78 -78l-11 -16q-102 38 -260 139q-29 20 -32 45z" />
    <glyph glyph-name="a" unicode="a" horiz-adv-x="1003" 
d="M45 164q-22 45 -22 117v20q8 207 239 313q-16 50 -16 103v5q-1 6 -1 12t1 15.5t3 20t5.5 23.5t10 28t14.5 31q73 135 247 135q62 0 118 -18.5t104.5 -57t77 -107t28.5 -159.5v-510q0 -52 35.5 -87t93.5 -46h-127q-64 0 -109 45t-45 111q-189 -170 -362 -170
q-102 0 -180.5 44.5t-114.5 131.5zM164 373q-6 -30 -6 -62q0 -64 20 -123q26 -80 81 -127t122 -47q19 0 29 2q151 20 292 154v479q-74 21 -147 21q-154 0 -260 -83.5t-131 -213.5zM258 743q-2 -12 -2 -36q0 -48 14 -89q145 60 275 60q70 0 157 -19v17q0 78 -18 139
q-45 155 -178 158q-104 0 -171.5 -66t-76.5 -164z" />
    <glyph glyph-name="b" unicode="b" horiz-adv-x="1077" 
d="M20 1436h283v-682q38 114 148 178q94 55 221 55h30q95 -6 166.5 -51.5t116.5 -120.5q72 -121 72 -280q0 -124 -43 -228q-34 -83 -90 -141q-110 -121 -303 -160q-23 -4 -68 -4q-154 0 -266 86q-19 -39 -56.5 -62.5t-83.5 -23.5h-124q56 8 92 43.5t37 89.5v1165
q0 60 -40.5 93t-91.5 43zM291 98q113 -86 237 -86q113 0 211 76q64 48 107.5 130t56.5 161q12 77 12 131q0 142 -49 250q-83 176 -248 190h-24q-56 0 -113 -22.5t-108.5 -75t-69.5 -125.5v-571q0 -34 -12 -58z" />
    <glyph glyph-name="c" unicode="c" horiz-adv-x="978" 
d="M23 467q0 6 -1.5 19.5t-1.5 19.5q0 106 43.5 199t120.5 159q70 61 159.5 92t174.5 31h10q71 -2 136.5 -28.5t115 -69t87 -90.5t63.5 -101l-8 -4q-56 117 -159 197t-222 80t-214.5 -80.5t-133.5 -198.5q-27 -89 -27 -170q0 -95 31 -186q52 -156 156 -239t229 -83
q29 0 45 2q103 11 186 85t137 182l8 -4q-139 -271 -401 -289q-6 0 -18.5 -1t-18.5 -1q-187 0 -323 108q-163 129 -174 371z" />
    <glyph glyph-name="d" unicode="d" horiz-adv-x="1093" 
d="M25 479q-2 18 -2 58q0 158 71 278q45 75 116.5 120.5t166.5 51.5q14 2 41 2q71 0 142 -25.5t131.5 -80t84.5 -127.5v682h297q-49 0 -97 -35.5t-48 -99.5v-1168q1 -52 37 -87t92 -46h-125q-46 0 -83 24t-56 64q-114 -88 -263 -88q-34 0 -71 6q-159 22 -279 133l-12 13
q-8 8 -14 12q-113 122 -129 313zM168 588q-4 -54 -4 -76q0 -161 67 -289q40 -81 109 -135q96 -74 211 -74q127 0 237 84q-12 27 -12 60v571q-27 106 -114.5 163.5t-176.5 57.5h-24q-85 -8 -149 -60.5t-99 -129.5t-45 -172z" />
    <glyph glyph-name="e" unicode="e" horiz-adv-x="960" 
d="M23 467v20q0 112 45 208t118 159.5t165 99t188 35.5q79 0 150 -24t127.5 -70.5t90 -122t33.5 -170.5q-8 0 -25.5 1t-25.5 1q-249 0 -440 -96q-101 -51 -156 -120t-55 -146q0 -23 2 -33q110 -189 321 -189h25q125 5 224 90t116 212h10q-6 -57 -34 -113.5t-76.5 -106.5
t-127 -81t-174.5 -31q-95 0 -181 28t-158 83t-116 149.5t-46 216.5zM174 602q-6 -46 -6 -92q0 -162 61 -283v19q0 145 183 252q169 99 391 112v11q0 71 -27 139.5t-76 120.5q-85 90 -200 90q-32 0 -62 -6q-110 -23 -176 -125.5t-86 -229.5z" />
    <glyph glyph-name="f" unicode="f" horiz-adv-x="532" 
d="M20 2q43 7 82 34t48 73q0 4 1 12.5t1 13.5v842h-113v10h207q-59 0 -129 70q-70 63 -70 155q0 81 57 150q37 42 97 61q44 13 96 13q33 0 49 -2q71 -14 122.5 -58.5t51.5 -97.5v-8q-5 -26 -21.5 -42t-39.5 -16q-24 0 -41 17q-25 23 -25 57q0 7 2 31t2 26q0 14 -6 29
q-27 47 -110 47q-27 0 -54 -6q-81 -19 -122.5 -74.5t-41.5 -117.5q0 -9 5 -39q11 -62 69 -108t129 -66.5t142 -20.5h79v-10h-184v-838q0 -54 35.5 -90t93.5 -47h-412z" />
    <glyph glyph-name="g" unicode="g" horiz-adv-x="1011" 
d="M68 274q-48 105 -48 218q0 96 32.5 185.5t93.5 162t159 116t219 43.5q116 0 193 -32q59 69 108 133q12 16 29.5 39.5t28.5 38.5t18 22q11 -87 70 -143q-4 0 -17.5 1t-15.5 1q-39 0 -95.5 -21t-115.5 -75q129 -55 196.5 -169.5t67.5 -256.5q0 -225 -144.5 -369.5
t-367.5 -144.5q-151 0 -266 75q-36 -14 -45 -41q0 -2 -1 -6t-1 -6q0 -28 37 -43q35 -12 78 -12h20q47 2 133 2q113 0 195 -4q166 -12 247.5 -73.5t81.5 -160.5v-4q0 -60 -39.5 -108t-104.5 -77t-136.5 -45t-145.5 -20q-12 0 -30.5 -1t-26.5 -1q-144 0 -225 15
q-71 14 -122.5 56t-51.5 89v14q1 26 18 42t41 16q20 0 41 -15q6 -5 11 -10t8 -10.5t4.5 -9t2.5 -9.5t1 -8v-9v-7v-14q0 -2 -1 -7.5t-1 -7.5q0 -42 37 -67q46 -34 127 -43q75 -10 189.5 3.5t168.5 55.5q100 77 100 182q0 82 -67 146q-50 47 -131 65q-74 19 -148 19h-21
q-22 -1 -59.5 -1.5t-77.5 -0.5q-69 0 -107.5 9t-49.5 36q-4 12 -4 18q0 25 20 43q4 3 8 5.5t9.5 5.5t9.5 5q-90 63 -137 170zM162 551q-6 -53 -6 -98q0 -163 82 -277q43 -61 100 -96t115 -41q8 -2 26 -2q107 0 197 76q135 109 166 360q6 44 6 86q0 160 -86 285
q-41 60 -97.5 96t-105.5 43q-4 0 -13 1t-14 1q-120 0 -217 -94q-128 -121 -153 -340z" />
    <glyph glyph-name="h" unicode="h" horiz-adv-x="1103" 
d="M432 2h-412q47 7 87 38t45 85v1180q0 58 -40.5 89.5t-91.5 41.5h283v-672q18 74 71.5 130t133.5 79q56 16 121 16q27 0 41 -2q122 -8 203 -112.5t81 -280.5v-459q1 -53 36.5 -87.5t92.5 -45.5h-411q47 5 89 40t42 91v524q0 150 -67 224.5t-165 74.5q-104 0 -186 -74
t-82 -186v-561q1 -53 36.5 -87.5t92.5 -45.5z" />
    <glyph glyph-name="i" unicode="i" horiz-adv-x="466" 
d="M446 4h-411q49 7 88 39.5t43 89.5v336q0 41 1 99t1 83v205q0 60 -41 92.5t-92 42.5q16 0 90 -12q37 -6 70 -6q17 0 49 4q79 17 116 80q54 89 54 145v4q0 43 -35.5 81.5t-102.5 49.5q52 -27 52 -86q0 -41 -26.5 -68.5t-63.5 -27.5t-64 27.5t-27 68.5q0 45 30.5 68.5
t74.5 23.5h6q73 0 118 -40t50 -89v-8q0 -48 -51 -159q-1 -2 -8 -17.5t-8.5 -18.5t-8 -17.5t-8 -19t-6.5 -17.5t-6.5 -19t-5 -17t-4.5 -18.5t-2 -17t-1 -17.5v-733q1 -52 37 -86t92 -45z" />
    <glyph glyph-name="j" unicode="j" horiz-adv-x="444" 
d="M-57 -539l-2 9q84 44 126.5 91t61.5 130q23 98 23 284v893q-12 97 -136 125q10 0 88 -12q39 -6 76 -6q15 0 47 4q36 6 68 27t49 51q55 95 55 147q0 43 -36.5 83t-100.5 50q49 -21 49 -86q0 -41 -25.5 -68.5t-62.5 -27.5q-38 0 -64 27.5t-26 68.5q0 45 31.5 70t77.5 25
q73 0 118 -41t50 -88v-9q0 -47 -52 -161q-20 -43 -28.5 -63t-18.5 -55t-10 -61v-870q0 -183 -98.5 -324t-259.5 -213z" />
    <glyph glyph-name="k" unicode="k" horiz-adv-x="1017" 
d="M20 2q49 7 88.5 39.5t43.5 89.5v1178q-4 52 -40 84t-81 41q-1 0 -4 1t-7 1h412q-57 -11 -92.5 -45.5t-36.5 -87.5v-850q173 24 300 146.5t165 287.5v10q0 36 -24.5 62t-75.5 30h254q-38 -3 -88 -35q-52 -36 -60 -75q-39 -166 -168 -289q17 -28 79.5 -136.5t123 -213
t94.5 -158.5q36 -54 94 -80h-288q34 27 34 59q0 24 -22 66q-172 294 -219 385q-95 -56 -199 -68v-309q1 -52 37 -87t92 -46h-412z" />
    <glyph glyph-name="l" unicode="l" 
d="M432 0h-412q3 1 10 2t11 2q43 12 75 43t36 80v1180q-4 56 -43.5 88t-88.5 39h283v-1301q1 -52 37 -87t92 -46z" />
    <glyph glyph-name="m" unicode="m" horiz-adv-x="1753" 
d="M20 989h285v-225q18 74 71.5 130t133.5 79q58 16 121 16q29 0 43 -2q96 -8 170.5 -76.5t99.5 -187.5q6 85 62.5 155t150.5 95q56 16 121 16q27 0 41 -2q122 -8 203.5 -112.5t81.5 -280.5v-459q1 -53 36.5 -87.5t92.5 -45.5h-412q47 5 89 40t42 91v524q0 150 -66.5 224.5
t-164.5 74.5q-106 0 -187.5 -78t-81.5 -180v-18q4 -18 4 -86v-459q1 -53 36.5 -87.5t92.5 -45.5h-411q47 5 89 40t42 91v524q0 150 -67 224.5t-165 74.5q-104 0 -186 -74t-82 -186v-561q1 -53 36.5 -87.5t92.5 -45.5h-411q47 7 86.5 38t44.5 85v739q-4 53 -46.5 86.5
t-87.5 38.5z" />
    <glyph glyph-name="n" unicode="n" horiz-adv-x="1105" 
d="M154 125v739q-4 53 -46.5 86.5t-87.5 38.5h285v-225q18 74 71.5 130t133.5 79q58 16 121 16q29 0 43 -2q120 -8 201 -112t81 -267v-14v-459q1 -53 36.5 -87.5t92.5 -45.5h-411q47 5 89 40t42 91v524q0 150 -67 224.5t-165 74.5q-104 0 -186 -74t-82 -186v-561
q1 -53 36.5 -87.5t92.5 -45.5h-411q47 7 86.5 38t44.5 85z" />
    <glyph glyph-name="o" unicode="o" horiz-adv-x="1030" 
d="M31 362q-8 47 -8 105q0 164 94 299q160 217 413 223h15q106 0 200.5 -40t165.5 -127.5t90 -209.5q7 -51 7 -88q0 -118 -52.5 -233.5t-162.5 -202.5q-77 -64 -222 -92q-55 -10 -100 -10q-27 0 -41 2q-154 18 -262.5 114t-136.5 260zM178 672q-18 -68 -18 -150q0 -57 4 -88
q22 -227 145 -340q89 -82 211 -82q19 0 51 4q165 23 246 185q53 111 53 264q0 26 -4 76q-12 123 -62.5 224t-129.5 161q-65 41 -150 41q-115 0 -211.5 -76t-134.5 -219z" />
    <glyph glyph-name="p" unicode="p" horiz-adv-x="1083" 
d="M303 700v-614q49 -35 112 -57.5t120 -22.5q78 0 144.5 32t113 86.5t77 122.5t43.5 144q15 89 5 189q-6 66 -26.5 126t-55 111.5t-89 85.5t-122.5 41q-58 3 -105 -10q-83 -25 -140.5 -87t-76.5 -147zM432 -502h-412q44 8 84 35q20 16 33 35q14 25 17 51v1255
q-7 49 -45 80.5t-89 34.5h283v-258q21 75 75.5 132t129.5 87q90 38 201 29q138 -9 226.5 -98.5t117.5 -231.5q16 -96 8 -178q-19 -188 -133.5 -316t-300.5 -155q-85 -12 -168 6q-86 16 -156 68v-455q6 -49 42.5 -81t86.5 -40z" />
    <glyph glyph-name="q" unicode="q" horiz-adv-x="1085" 
d="M461 944q-67 -7 -121.5 -40t-89.5 -84.5t-55.5 -112t-26.5 -127.5q-9 -96 6 -189q21 -127 90 -230.5t178 -135.5q55 -19 107 -19q119 0 231 80v614q-19 86 -75 147.5t-138 86.5q-47 13 -106 10zM459 0q-186 27 -300.5 155t-133.5 316q-9 86 10 178q24 137 115 229
t227 101q110 9 203 -29q73 -30 127.5 -88t72.5 -131v258h283q-47 -5 -85.5 -37t-45.5 -78v-1255q6 -54 51 -86q33 -26 82 -35h-412q50 10 87 41.5t40 79.5v455q-72 -54 -151 -68q-83 -18 -170 -6z" />
    <glyph glyph-name="r" unicode="r" horiz-adv-x="727" 
d="M20 989h279q40 -55 82 -55q22 0 68 16q72 35 149 35q78 0 109 -47q10 -20 10 -33q0 -22 -18 -42.5t-56 -24.5h-6q-22 0 -34.5 18t-26 43.5t-35.5 36.5q-20 10 -49 10q-31 0 -50 -8q-32 -14 -59 -14q-50 0 -84 55v-856q7 -50 44 -82t89 -37h-412q51 8 86 38.5t41 78.5v751
q-6 48 -41 78.5t-86 38.5z" />
    <glyph glyph-name="s" unicode="s" horiz-adv-x="690" 
d="M63 588q-40 55 -40 139v16q5 109 75 176.5t217 67.5q78 0 161.5 -39t144.5 -96h-3q0 -1 -1 -2t-1 -2l-2 -2q-150 133 -307 133q-4 0 -11.5 -1t-10.5 -1q-96 -12 -151.5 -58t-63.5 -112v-16q0 -41 22 -75.5t65.5 -62t91.5 -48.5t116 -44q67 -23 115.5 -46.5t94 -56.5
t69.5 -77.5t24 -99.5v-9q-4 -117 -95 -189.5t-213 -72.5q-102 0 -176 57t-86 144h11q10 -84 79 -137.5t166 -55.5q102 0 174 48t80 116q0 4 1 11.5t1 11.5q0 30 -15 57t-38.5 47.5t-63.5 41.5t-77.5 36.5t-91.5 34.5q-190 66 -261 166z" />
    <glyph glyph-name="t" unicode="t" 
d="M20 987q177 0 177 281h151q0 -111 -83.5 -193.5t-176.5 -87.5h330v-10h-133v-658q0 -161 24 -229q28 -80 94 -80q9 0 29 4q-40 -12 -90 -12q-123 0 -166 79.5t-43 268.5v627h-113v10z" />
    <glyph glyph-name="u" unicode="u" horiz-adv-x="1105" 
d="M111 946q-37 34 -91 43h412q-48 -5 -89 -39t-42 -92v-522q0 -150 66 -225.5t165 -75.5q103 0 186 75t83 187v561q-1 53 -37.5 88t-91.5 43h411q-45 -5 -85.5 -37t-45.5 -84v-741q4 -53 46.5 -86.5t86.5 -38.5h-116q-69 0 -118.5 49.5t-49.5 118.5v57q-18 -74 -71.5 -129
t-133.5 -78q-59 -16 -123 -16q-7 0 -20.5 1t-20.5 1q-120 8 -201 111t-81 266v14v461q-3 55 -39 88z" />
    <glyph glyph-name="v" unicode="v" horiz-adv-x="1226" 
d="M10 991h305q-9 -5 -15.5 -10.5t-10.5 -11.5t-6.5 -11t-3 -11t-1 -9.5t0 -9t0.5 -6.5q0 -17 4 -41q18 -89 71 -188.5t115 -184t122.5 -165t103 -157.5t46.5 -135q24 68 77.5 212t129 344t103.5 274q4 12 4 20q0 29 -20.5 54t-73.5 34h256q-42 -5 -88.5 -34.5t-65.5 -69.5
q-190 -503 -307 -819l-25 -64h-123q-6 24 -14.5 49.5t-15.5 44.5t-21.5 46t-20.5 40.5t-25.5 43t-24.5 38.5t-28.5 41.5t-26.5 36.5t-30 40.5t-28 37.5q-65 86 -99.5 135.5t-75.5 135.5t-57 171q-15 41 -51 81.5t-80 47.5z" />
    <glyph glyph-name="w" unicode="w" horiz-adv-x="1726" 
d="M10 991h305q-9 -5 -15.5 -10.5t-10.5 -11.5t-6.5 -11t-3 -11t-1 -9.5t0 -9t0.5 -6.5q0 -17 4 -41q18 -89 71 -188.5t115 -184t122.5 -165t103 -157.5t46.5 -135q13 35 59.5 159l76.5 204q11 28 30 81t23 64q1 -3 3 -5t3 -5q34 -50 98.5 -136t100.5 -136t68 -114t36 -112
q23 67 78 213.5t128.5 340t104.5 276.5q4 12 4 20q0 29 -20.5 54t-73.5 34h256q-41 -5 -87.5 -34.5t-65.5 -69.5q-4 -8 -28.5 -74t-67 -180t-76.5 -203q-135 -358 -160 -426h-123q-18 76 -57.5 152.5t-72 122.5t-95.5 126q-98 -261 -105 -278q-9 -27 -26.5 -71.5
t-20.5 -51.5h-123q-6 24 -14.5 49.5t-15.5 44.5t-21.5 46t-20.5 40.5t-25.5 43t-24.5 38.5t-28.5 41.5t-26.5 36.5t-30 40.5t-28 37.5q-65 86 -99.5 135.5t-75.5 135.5t-57 171q-15 41 -51 81.5t-80 47.5z" />
    <glyph glyph-name="x" unicode="x" horiz-adv-x="1009" 
d="M96 940q-40 40 -86 49h297q-22 -19 -22 -39q-2 -16 12 -43q3 -3 7 -10t7 -10q150 -208 240 -338q40 56 121.5 171.5t120.5 168.5q12 15 12 33q0 8 -4 20q-14 38 -68 47h254q-41 -5 -97 -32.5t-81 -63.5q-25 -35 -113.5 -158t-138.5 -194q104 -144 295 -412
q81 -116 147 -127h-286q18 12 18 33q0 27 -22 59q-37 51 -116.5 163.5t-119.5 166.5q-54 -75 -139.5 -195.5t-89.5 -126.5q-13 -23 -13 -39q0 -13 2 -21t19 -21t51 -19h-254q41 5 99.5 35t84.5 67q170 236 234 328q-176 246 -309 432q-22 36 -62 76z" />
    <glyph glyph-name="y" unicode="y" horiz-adv-x="1216" 
d="M20 989h314q-19 -6 -32 -32t-13 -52v-14q8 -78 66 -164.5t157 -200.5q102 -115 165 -200.5t85 -159.5q38 101 135 358.5t135 358.5v10v8q0 29 -21.5 53.5t-70.5 34.5h256q-41 -5 -86.5 -33.5t-67.5 -70.5q-59 -152 -191 -505.5t-151 -402.5q-27 -76 -90.5 -188.5
t-128.5 -189.5q-14 -20 -14 -41q0 -11 1.5 -18t19 -20.5t51.5 -19.5q0 -2 -41 -2h-215q40 7 92.5 32.5t85.5 59.5q65 73 129 187t102 207q-18 67 -55 135.5t-81.5 127t-95.5 117.5t-100 118t-91.5 118t-73.5 126.5t-43 135.5q-19 109 -132 127z" />
    <glyph glyph-name="z" unicode="z" horiz-adv-x="823" 
d="M20 2q71 89 135.5 192.5t115 198.5t102.5 191t120 199.5t144 193.5h-363q-29 0 -75 -4q-21 -3 -42.5 -6t-32 -4.5t-11.5 -1.5v26h690q-88 -100 -162 -208.5t-127 -206t-101 -190.5t-106.5 -191.5t-120.5 -178.5h435q25 0 51 2t45 4t34.5 4.5t24.5 4.5l8 2v-27h-764z" />
    <glyph glyph-name="braceleft" unicode="{" horiz-adv-x="409" 
d="M20 748h58q51 0 78 43q37 56 37 159q0 78 -23 178q-11 56 -45 156q-19 55 -19 98q0 87 66 144q59 47 131 47q47 0 86 -25l-6 -12q-38 23 -82 23q-69 0 -121 -46q-21 -17 -35 -42t-21.5 -73.5t15.5 -107.5q60 -168 64 -276q2 -29 2 -58q0 -115 -37 -174q-15 -29 -51 -45
q44 -14 66 -75t22 -142t-21 -176q-11 -56 -45 -160q-47 -135 41 -223q54 -45 123 -45q42 0 80 23l6 -13q-37 -24 -86 -24q-73 0 -131 49q-63 55 -63 145q0 41 16 94q58 162 61 240q7 89 7 98q0 103 -37 158q-26 45 -78 45h-58v17z" />
    <glyph glyph-name="bar" unicode="|" horiz-adv-x="53" 
d="M33 -203h-13v1923h13v-1923z" />
    <glyph glyph-name="braceright" unicode="}" horiz-adv-x="409" 
d="M109 -121q-50 0 -89 25l7 12q36 -22 79 -22q69 0 123 45q89 89 43 223q-59 165 -63 282q-4 58 -4 64q0 113 37 164q23 33 53 43q-32 11 -53 45q-37 51 -37 164q0 88 22 186q10 51 45 158q15 44 16 83t-9.5 66t-22.5 44.5t-27 29.5q-51 45 -120 45q-38 0 -82 -23l-7 13
q37 24 89 24q70 0 129 -47q65 -57 65 -147q0 -44 -18 -94q-27 -75 -43.5 -151.5t-18.5 -123.5q-4 -58 -4 -63q0 -103 35 -156q27 -43 78 -43h57v-16h-57q-52 0 -78 -45q-35 -56 -35 -158q0 -18 6 -98q3 -72 60 -240q18 -49 18 -94q0 -89 -65 -146q-58 -49 -129 -49z" />
    <glyph glyph-name="asciitilde" unicode="~" horiz-adv-x="903" 
d="M35 623l-15 6q65 209 230 209q35 0 70.5 -16t57 -32.5t60.5 -50.5q41 -36 65.5 -54.5t67.5 -36t88 -17.5q75 0 130 46t81 132l13 -4q-29 -92 -87.5 -141.5t-136.5 -49.5q-43 0 -85.5 17.5t-66 35t-65.5 52.5q-8 7 -12 10q-41 34 -58.5 47.5t-52.5 29t-69 15.5
q-45 0 -82.5 -17.5t-63 -48t-42 -63t-27.5 -69.5z" />
    <glyph glyph-name="uni00A0" unicode="&#xa0;" horiz-adv-x="694" 
 />
    <glyph glyph-name="cent" unicode="&#xa2;" horiz-adv-x="978" 
d="M23 467q0 6 -1.5 19.5t-1.5 19.5q0 160 93.5 282.5t238.5 169.5q75 24 129 27v432h13v-430h34q71 -2 136.5 -28.5t115 -69t87 -90.5t63.5 -101l-8 -4q-56 117 -159 197t-222 80q-19 0 -47 -4v-942q40 -11 88 -11q29 0 45 2q103 11 186 85t137 182l8 -4
q-139 -271 -401 -289q-23 0 -33 -2q-10 2 -30 2v-496h-13v496q-48 2 -116 20q-146 40 -239.5 157.5t-102.5 299.5zM193 692q-27 -89 -27 -170q0 -95 31 -186q52 -161 168 -248q55 -43 116 -61v938q-25 -3 -57 -17q-81 -33 -142 -101.5t-89 -154.5z" />
    <glyph glyph-name="dieresis" unicode="&#xa8;" horiz-adv-x="419" 
d="M242 1174q0 35 22 58t55 23q31 0 53.5 -23t22.5 -58t-22.5 -58.5t-53.5 -23.5q-32 0 -54.5 23.5t-22.5 58.5zM20 1174q0 35 22 58t54 23t54 -23t22 -58t-22 -58.5t-54 -23.5t-54 23.5t-22 58.5z" />
    <glyph glyph-name="copyright" unicode="&#xa9;" horiz-adv-x="1212" 
d="M68 385q-48 118 -48 242q0 169 79 313t214 227.5t293 83.5t293 -83.5t214 -227.5t79 -313t-78.5 -313.5t-214 -229t-293.5 -84.5q-179 0 -324 106t-214 279zM80 864q-45 -110 -45 -237q0 -165 76.5 -306t208 -223t286.5 -82q116 0 222 48.5t182.5 130.5t122 195t45.5 237
q0 165 -76.5 305.5t-208.5 222.5t-287 82q-175 0 -317 -103.5t-209 -269.5zM260 477q-31 73 -31 150q0 158 113 270.5t264 112.5q89 0 164 -37.5t119 -95.5l-2 -5q-45 59 -113.5 89t-144.5 30q-69 0 -125 -24q-120 -48 -170 -168q-27 -62 -27 -135q0 -57 19 -125
q39 -135 125 -205t188 -70q29 0 59 6q70 11 128.5 60t95.5 133l4 -2q-99 -217 -328 -217q-109 0 -202 64.5t-136 168.5z" />
    <glyph glyph-name="uni00AD" unicode="&#xad;" horiz-adv-x="0" 
 />
    <glyph glyph-name="registered" unicode="&#xae;" horiz-adv-x="1212" 
d="M68 385q-48 118 -48 242q0 169 79 313t214 227.5t293 83.5t293 -83.5t214 -227.5t79 -313t-78.5 -313.5t-214 -229t-293.5 -84.5q-179 0 -324 106t-214 279zM35 627q0 -165 76.5 -306t208 -223t286.5 -82q116 0 222 48.5t182.5 130.5t122 195t45.5 237q0 165 -76.5 305.5
t-208.5 222.5t-287 82t-286.5 -82t-208 -222.5t-76.5 -305.5zM319 225q67 13 74 68v668q-7 54 -74 67h263q61 0 115 -12.5t99.5 -37.5t72 -68t26.5 -99q0 -78 -51 -128.5t-137 -70.5q29 -52 63 -118q57 -111 109 -203q26 -59 63 -66h-162q17 12 17 39q0 15 -6 25l-7 12
q-16 28 -50 95t-50 96l-57 106q-8 -2 -25 -2h-123v-303q1 -28 21 -45.5t51 -22.5h-232zM479 600h99q233 0 233 211q0 213 -233 213h-99v-424z" />
    <glyph glyph-name="degree" unicode="&#xb0;" horiz-adv-x="1705" 
 />
    <glyph glyph-name="acute" unicode="&#xb4;" horiz-adv-x="346" 
d="M31 1098l-11 16l78 78q80 80 135 131q20 20 43 20t39 -22q11 -15 11 -31v-3v-5.5t-1 -6.5t-3 -8t-6 -9t-10.5 -10t-14.5 -11q-158 -101 -260 -139z" />
    <glyph glyph-name="cedilla" unicode="&#xb8;" horiz-adv-x="344" 
d="M20 -281l7 11q58 -58 129 -58q84 0 104 113q2 10 2 29q0 44 -23 74t-71 30q-32 0 -76 -18v4l49 137h11l-48 -127q39 20 80 20q60 0 100 -37t40 -90q0 -3 -1 -10t-1 -10q-5 -51 -51.5 -89t-112.5 -38q-82 0 -138 59z" />
    <glyph glyph-name="onequarter" unicode="&#xbc;" horiz-adv-x="1191" 
d="M952 272h-426q110 150 254.5 351.5t255.5 353.5h8v-698h127v-7h-127v-118q0 -34 22 -57t58 -29h-254q31 6 56.5 27.5t25.5 58.5v118zM952 854l-413 -575h413v575zM20 1204v2q34 20 93.5 56t93.5 57v-823q0 -34 22 -57t58 -29h-254q31 6 56.5 27.5t25.5 58.5v759
q-50 -26 -92 -55zM207 8l620 1313h15l-621 -1313h-14z" />
    <glyph glyph-name="onehalf" unicode="&#xbd;" horiz-adv-x="1204" 
d="M641 68v8q129 106 240.5 239.5t160.5 268.5l5 8q30 82 30 153q0 5 -1 15.5t-1 15.5q-5 87 -41.5 142t-109.5 59q-57 0 -111.5 -47t-58.5 -125h-21q5 29 19 57q3 7 16 29q50 80 150 92h14q92 0 158.5 -48t83.5 -132q6 -34 6 -66q0 -117 -99 -250q-52 -70 -131.5 -146.5
t-199.5 -178.5h354q32 4 54 26t26 54v-174h-543zM20 1206v2q34 20 93.5 56.5t93.5 56.5v-823q0 -34 22 -57t58 -29h-254q31 6 56.5 27.5t25.5 58.5v759q-50 -26 -92 -55zM211 10l620 1313h15l-621 -1313h-14z" />
    <glyph glyph-name="threequarters" unicode="&#xbe;" horiz-adv-x="1345" 
d="M1106 268h-426q248 347 508 705h10v-699h127v-6h-127v-118q0 -35 22 -58.5t58 -28.5h-254q31 6 56.5 27.5t25.5 59.5v118zM1106 848l-416 -574h416v574zM20 600h7q5 -96 66 -167t161 -71q105 0 160.5 67.5t60.5 178.5v23q0 114 -59.5 178.5t-153.5 64.5h-22
q163 93 163 230v12q-5 75 -35.5 118t-84.5 44q-78 0 -140.5 -29t-93.5 -86l-4 4q69 117 240 117q98 0 154.5 -47t56.5 -127q0 -45 -14.5 -80t-43 -60.5t-55.5 -41.5t-66 -33q112 -12 181 -85t69 -167q0 -4 -1 -14t-1 -15q-13 -109 -95 -183.5t-216 -74.5q-102 0 -165.5 73.5
t-68.5 170.5zM432 12l621 1311h14l-621 -1311h-14z" />
    <glyph glyph-name="Agrave" unicode="&#xc0;" horiz-adv-x="1357" 
d="M20 2q46 5 89 39t65 96l68 203q17 49 66.5 202t80.5 244l217 648h154q287 -799 443 -1237q29 -82 31 -86q1 -1 1 -2q19 -40 41.5 -65t60.5 -42h-280q35 28 35 59q0 19 -17 68q-225 619 -268 745q-3 -57 -29.5 -103.5t-68 -79t-92 -60t-104 -53.5t-101.5 -52.5t-88 -63.5
t-60 -81q-17 -48 -43.5 -130.5t-36.5 -111.5q-6 -15 -6 -33t17 -57q15 -35 79 -47h-254zM340 600q-27 -77 -64 -186q23 40 65.5 74t89.5 59t99.5 50t99.5 52.5t85.5 60t61 80t22.5 105.5q-186 521 -189 526q-56 -172 -114 -349.5t-70 -213.5l-41 -121q-25 -73 -45 -137z
M530 1720v11q0 16 9 28q16 23 39 23q22 0 43 -21q55 -51 135 -131l78 -78l-11 -16q-102 38 -260 139q-30 21 -33 45z" />
    <glyph glyph-name="Aacute" unicode="&#xc1;" horiz-adv-x="1357" 
d="M274 2h-254q46 5 89 39t65 96l68 203q17 49 66.5 202t80.5 244l217 648h154q287 -799 443 -1237q29 -82 31 -86q1 -1 1 -2q19 -40 41.5 -65t60.5 -42h-280q35 28 35 59q0 19 -17 68q-225 619 -268 745q-3 -57 -29.5 -103.5t-68 -79t-92 -60t-104 -53.5t-101.5 -52.5
t-88 -63.5t-60 -81q-17 -48 -43.5 -130.5t-36.5 -111.5q-6 -15 -6 -33t17 -57q15 -35 79 -47zM276 414q23 40 65.5 74t89.5 59t99.5 50t99.5 52.5t85.5 60t61 80t22.5 105.5q-186 521 -189 526q-56 -172 -114 -349.5t-70 -213.5l-41 -121q-13 -40 -48.5 -143.5t-60.5 -179.5
zM522 1559l78 77q80 80 135 131q21 21 43 21q23 0 39 -23q10 -13 10 -30l1 -3q0 -3 -0.5 -5.5t-1 -6.5t-3 -8t-6 -9t-10 -10.5t-14.5 -11.5q-156 -100 -261 -139z" />
    <glyph glyph-name="Acircumflex" unicode="&#xc2;" horiz-adv-x="1357" 
d="M20 2q46 5 89 39t65 96l68 203q17 49 66.5 202t80.5 244l217 648h154q287 -799 443 -1237q29 -82 31 -86q1 -1 1 -2q19 -40 41.5 -65t60.5 -42h-280q35 28 35 59q0 19 -17 68q-225 619 -268 745q-3 -57 -29.5 -103.5t-68 -79t-92 -60t-104 -53.5t-101.5 -52.5t-88 -63.5
t-60 -81q-17 -48 -43.5 -130.5t-36.5 -111.5q-6 -15 -6 -33t17 -57q15 -35 79 -47h-254zM340 600q-27 -77 -64 -186q23 40 65.5 74t89.5 59t99.5 50t99.5 52.5t85.5 60t61 80t22.5 105.5q-186 521 -189 526q-56 -172 -114 -349.5t-70 -213.5l-41 -121q-25 -73 -45 -137z
M461 1540l-6 4l223 238l223 -238l-6 -6l-217 143z" />
    <glyph glyph-name="Atilde" unicode="&#xc3;" horiz-adv-x="1357" 
d="M274 2h-254q46 5 89 39t65 96l68 203q17 49 66.5 202t80.5 244l217 648h154q287 -799 443 -1237q29 -82 31 -86q1 -1 1 -2q19 -40 41.5 -65t60.5 -42h-280q35 28 35 59q0 19 -17 68q-225 619 -268 745q-3 -57 -29.5 -103.5t-68 -79t-92 -60t-104 -53.5t-101.5 -52.5
t-88 -63.5t-60 -81q-17 -48 -43.5 -130.5t-36.5 -111.5q-6 -15 -6 -33t17 -57q15 -35 79 -47zM276 414q23 40 65.5 74t89.5 59t99.5 50t99.5 52.5t85.5 60t61 80t22.5 105.5q-186 521 -189 526q-56 -172 -114 -349.5t-70 -213.5l-41 -121q-13 -40 -48.5 -143.5t-60.5 -179.5
zM412 1536q24 81 60 119.5t95 38.5q56 0 145.5 -37t137.5 -37q30 0 47.5 19t34.5 73l12 -4q-50 -166 -149 -166q-57 0 -155 38t-130 38q-34 0 -50 -17.5t-34 -68.5z" />
    <glyph glyph-name="Adieresis" unicode="&#xc4;" horiz-adv-x="1357" 
d="M20 2q46 5 89 39t65 96l68 203q17 49 66.5 202t80.5 244l217 648h154q287 -799 443 -1237q29 -82 31 -86q1 -1 1 -2q19 -40 41.5 -65t60.5 -42h-280q35 28 35 59q0 19 -17 68q-225 619 -268 745q-3 -57 -29.5 -103.5t-68 -79t-92 -60t-104 -53.5t-101.5 -52.5t-88 -63.5
t-60 -81q-17 -48 -43.5 -130.5t-36.5 -111.5q-6 -15 -6 -33t17 -57q15 -35 79 -47h-254zM276 414q23 40 65.5 74t89.5 59t99.5 50t99.5 52.5t85.5 60t61 80t22.5 105.5q-186 521 -189 526q-56 -172 -114 -349.5t-70 -213.5l-41 -121q-13 -40 -48.5 -143.5t-60.5 -179.5z
M713 1618q0 35 22.5 58.5t55.5 23.5q31 0 53 -23.5t22 -58.5t-22 -58.5t-53 -23.5q-33 0 -55.5 23.5t-22.5 58.5zM514 1561q-22 22 -22 57t21.5 58.5t53.5 23.5t54 -23.5t22 -58.5t-22 -58.5t-54 -23.5q-31 0 -53 25z" />
    <glyph glyph-name="Aring" unicode="&#xc5;" horiz-adv-x="1357" 
d="M20 2q46 5 89 39t65 96l68 203q17 49 66.5 202t80.5 244l217 648h2q-10 6 -30 26q-43 43 -43 107q0 66 41.5 109.5t101.5 43.5t100.5 -43.5t40.5 -109.5q0 -63 -41 -107q-20 -20 -30 -26h12q287 -799 443 -1237q29 -82 31 -86q1 -1 1 -2q19 -40 41.5 -65t60.5 -42h-280
q35 28 35 59q0 19 -17 68q-225 619 -268 745q-3 -57 -29.5 -103.5t-68 -79t-92 -60t-104 -53.5t-101.5 -52.5t-88 -63.5t-60 -81q-17 -48 -43.5 -130.5t-36.5 -111.5q-6 -15 -6 -33t17 -57q15 -35 79 -47h-254zM276 414q23 40 65.5 74t89.5 59t99.5 50t99.5 52.5t85.5 60
t61 80t22.5 105.5q-186 521 -189 526q-56 -172 -114 -349.5t-70 -213.5l-41 -121q-13 -40 -48.5 -143.5t-60.5 -179.5zM545 1569v-6q0 -58 39 -97q24 -24 47 -32h92q27 9 49 34q37 43 37 101t-38 99.5t-93 41.5q-58 0 -94.5 -41t-38.5 -100z" />
    <glyph glyph-name="AE" unicode="&#xc6;" horiz-adv-x="2207" 
d="M274 2h-254q46 5 89 39t65 96l68 203q17 49 66.5 202t80.5 244l217 648h154q287 -799 443 -1237q29 -82 31 -86q1 -1 1 -2q19 -40 41.5 -65t60.5 -42h-280q35 28 35 59q0 19 -17 68q-225 619 -268 745q-3 -57 -29.5 -103.5t-68 -79t-92 -60t-104 -53.5t-101.5 -52.5
t-88 -63.5t-60 -81q-17 -48 -43.5 -130.5t-36.5 -111.5q-6 -15 -6 -33t17 -57q15 -35 79 -47zM1378 2q48 5 89.5 40t41.5 95v1161q0 60 -38.5 93.5t-88.5 42.5h801v-52q-24 12 -51 21q-68 22 -121 22h-350v-743q53 -12 98 -12q44 0 128.5 13t133.5 13q64 0 119 -14v-8
q-59 12 -112 12q-50 0 -138 -12t-131 -12q-58 0 -98 12v-664h352q52 0 121 21q38 13 53 22v-51h-809zM340 600q-27 -77 -64 -186q23 40 65.5 74t89.5 59t99.5 50t99.5 52.5t85.5 60t61 80t22.5 105.5q-186 521 -189 526q-56 -172 -114 -349.5t-70 -213.5l-41 -121
q-25 -73 -45 -137z" />
    <glyph glyph-name="Ccedilla" unicode="&#xc7;" horiz-adv-x="1372" 
d="M20 721q0 149 59.5 285.5t158 234t231.5 155.5t274 58q170 0 313 -72t226 -182l-6 -8q-82 113 -216 170t-278 57q-132 0 -237 -45q-233 -99 -326 -323q-11 -26 -19 -52t-13.5 -47t-9 -42t-5 -36.5t-2.5 -31t-1 -24t0.5 -17.5t0.5 -10q0 -113 35 -238q69 -242 230.5 -381
t377.5 -139q360 0 530 377l9 -2q-190 -418 -627 -418q-26 0 -80 4l-31 -80q39 20 80 20q60 0 100 -37t40 -90q0 -3 -1.5 -10t-1.5 -10q-5 -51 -51 -89t-112 -38q-82 0 -138 59l7 11q58 -58 129 -58q84 0 104 113q2 10 2 29q0 44 -23 74t-71 30q-32 0 -76 -18v4l33 92
q-97 13 -178 51q-194 87 -315.5 269.5t-121.5 404.5z" />
    <glyph glyph-name="Egrave" unicode="&#xc8;" horiz-adv-x="849" 
d="M20 2q48 5 90 40t42 95v1161q0 60 -38.5 93.5t-88.5 42.5h800v-52q-24 12 -51 21q-68 22 -121 22h-350v-743q53 -12 98 -12q44 0 129 13t134 13q63 0 118 -14v-8q-59 12 -112 12q-50 0 -138 -12t-131 -12q-58 0 -98 12v-664h352q52 0 121 21q38 13 53 22v-51h-809z
M276 1720v11q0 16 9 28q16 23 39 23q22 0 43 -21q55 -51 135 -131l78 -78l-11 -16q-102 38 -260 139q-30 21 -33 45z" />
    <glyph glyph-name="Eacute" unicode="&#xc9;" horiz-adv-x="849" 
d="M829 2h-809q48 5 90 40t42 95v1161q0 60 -38.5 93.5t-88.5 42.5h800v-52q-24 12 -51 21q-68 22 -121 22h-350v-743q53 -12 98 -12q44 0 129 13t134 13q63 0 118 -14v-8q-59 12 -112 12q-50 0 -138 -12t-131 -12q-58 0 -98 12v-664h352q52 0 121 21q38 13 53 22v-51z
M268 1559l78 77q80 80 135 131q21 21 43 21q23 0 39 -23q10 -13 10 -30l1 -3q0 -3 -0.5 -5.5t-1 -6.5t-3 -8t-6 -9t-10 -10.5t-14.5 -11.5q-158 -101 -260 -139z" />
    <glyph glyph-name="Ecircumflex" unicode="&#xca;" horiz-adv-x="849" 
d="M829 2h-809q48 5 90 40t42 95v1161q0 60 -38.5 93.5t-88.5 42.5h800v-52q-24 12 -51 21q-68 22 -121 22h-350v-743q53 -12 98 -12q44 0 129 13t134 13q63 0 118 -14v-8q-59 12 -112 12q-50 0 -138 -12t-131 -12q-58 0 -98 12v-664h352q52 0 121 21q38 13 53 22v-51z
M207 1540l-6 4l223 238l223 -238l-6 -6l-217 143z" />
    <glyph glyph-name="Edieresis" unicode="&#xcb;" horiz-adv-x="849" 
d="M829 2h-809q48 5 90 40t42 95v1161q0 60 -38.5 93.5t-88.5 42.5h800v-52q-24 12 -51 21q-68 22 -121 22h-350v-743q53 -12 98 -12q44 0 129 13t134 13q63 0 118 -14v-8q-59 12 -112 12q-50 0 -138 -12t-131 -12q-58 0 -98 12v-664h352q52 0 121 21q38 13 53 22v-51z
M481 1561q-22 22 -22 57t22.5 58.5t55.5 23.5q31 0 53 -23.5t22 -58.5t-22 -58.5t-53 -23.5q-34 0 -56 25zM238 1618q0 35 21.5 58.5t53.5 23.5t54 -23.5t22 -58.5t-22 -58.5t-54 -23.5t-53.5 23.5t-21.5 58.5z" />
    <glyph glyph-name="Igrave" unicode="&#xcc;" 
d="M20 1434h412q-57 -11 -93 -46t-36 -90v-1165q1 -53 37.5 -88t91.5 -43h-412q48 5 90 40t42 93v1165q0 59 -40.5 91.5t-91.5 42.5zM78 1720v11q0 17 8 28q16 23 39 23q22 0 43 -21q55 -51 135 -131l78 -78l-10 -16q-102 38 -260 139q-30 21 -33 45z" />
    <glyph glyph-name="Iacute" unicode="&#xcd;" 
d="M20 1434h412q-57 -11 -93 -46t-36 -90v-1165q1 -53 37.5 -88t91.5 -43h-412q48 5 90 40t42 93v1165q0 59 -40.5 91.5t-91.5 42.5zM70 1559l77 77q67 67 136 131q21 21 43 21q23 0 39 -23q10 -13 10 -30v-3v-4t-0.5 -5.5t-1.5 -6.5t-4 -7.5t-6.5 -8.5t-9.5 -9t-13 -10
q-158 -101 -260 -139z" />
    <glyph glyph-name="Icircumflex" unicode="&#xce;" 
d="M63 1421q-24 10 -43 13h412q-57 -11 -93 -46t-36 -90v-1165q1 -53 37.5 -88t91.5 -43h-412q48 5 90 40t42 93v1165q0 44 -26.5 75.5t-62.5 45.5zM10 1540l-6 4l223 238l224 -238l-7 -6l-217 143z" />
    <glyph glyph-name="Idieresis" unicode="&#xcf;" 
d="M20 1434h412q-57 -11 -93 -46t-36 -90v-1165q1 -53 37.5 -88t91.5 -43h-412q48 5 90 40t42 93v1165q0 59 -40.5 91.5t-91.5 42.5zM260 1618q0 35 22.5 58.5t55.5 23.5q31 0 53.5 -23.5t22.5 -58.5t-22.5 -58.5t-53.5 -23.5q-33 0 -55.5 23.5t-22.5 58.5zM61 1561
q-22 22 -22 57t22 58.5t54 23.5t53.5 -23.5t21.5 -58.5t-21.5 -58.5t-53.5 -23.5t-54 25z" />
    <glyph glyph-name="Ntilde" unicode="&#xd1;" horiz-adv-x="1193" 
d="M20 2q42 5 81.5 38.5t39.5 74.5v1319h25l874 -1184v1067q0 34 -32 70t-88 47h254q-43 -6 -81 -39t-42 -74v-1319h-29q-4 7 -870 1188v-1073q4 -43 41 -76t81 -39h-254zM330 1536q24 81 60 119.5t95 38.5q56 0 145.5 -37t137.5 -37q30 0 47.5 19t34.5 73l12 -4
q-50 -166 -149 -166q-57 0 -155 38t-130 38q-34 0 -50 -17.5t-34 -68.5z" />
    <glyph glyph-name="Ograve" unicode="&#xd2;" horiz-adv-x="1431" 
d="M76 442q-56 133 -56 279q0 143 53.5 277t144.5 234.5t221 161t274 60.5q106 0 208.5 -32.5t190.5 -96t155 -151t105.5 -204.5t38.5 -249q0 -140 -54 -274t-145 -235.5t-220.5 -163.5t-270.5 -62q-217 0 -391 127.5t-254 328.5zM190 870q-10 -64 -10 -149v-39
q3 -102 26 -198.5t68 -182.5t106.5 -150t147 -101.5t183.5 -37.5h8q132 0 235.5 61t173.5 171q125 193 125 473v47q-11 234 -101.5 391.5t-227.5 228.5q-98 52 -209 52q-150 0 -266 -80q-104 -67 -169.5 -198.5t-89.5 -287.5zM567 1720v11q0 17 8 28q16 23 39 23
q22 0 43 -21q69 -64 136 -131l77 -78l-10 -16q-102 38 -260 139q-30 21 -33 45z" />
    <glyph glyph-name="Oacute" unicode="&#xd3;" horiz-adv-x="1431" 
d="M76 442q-56 133 -56 279q0 143 53.5 277t144.5 234.5t221 161t274 60.5q106 0 208.5 -32.5t190.5 -96t155 -151t105.5 -204.5t38.5 -249q0 -140 -54 -274t-145 -235.5t-220.5 -163.5t-270.5 -62q-217 0 -391 127.5t-254 328.5zM190 870q-10 -64 -10 -149v-39
q3 -102 26 -198.5t68 -182.5t106.5 -150t147 -101.5t183.5 -37.5h8q132 0 235.5 61t173.5 171q125 193 125 473v47q-11 234 -101.5 391.5t-227.5 228.5q-98 52 -209 52q-150 0 -266 -80q-104 -67 -169.5 -198.5t-89.5 -287.5zM569 1542l-10 17l78 77q80 80 135 131
q21 21 43 21q23 0 39 -23q10 -13 10 -30v-3v-4t-0.5 -5.5t-1.5 -6.5t-4 -7.5t-6.5 -8.5t-9.5 -9t-13 -10q-158 -101 -260 -139z" />
    <glyph glyph-name="Ocircumflex" unicode="&#xd4;" horiz-adv-x="1431" 
d="M20 721q0 143 53.5 277t144.5 234.5t221 161t274 60.5q106 0 208.5 -32.5t190.5 -96t155 -151t105.5 -204.5t38.5 -249q0 -140 -54 -274t-145 -235.5t-220.5 -163.5t-270.5 -62q-144 0 -275 60.5t-223.5 161.5t-147.5 235.5t-55 277.5zM190 870q-10 -64 -10 -149v-39
q3 -102 26 -198.5t68 -182.5t106.5 -150t147 -101.5t183.5 -37.5h8q132 0 235.5 61t173.5 171q125 193 125 473v47q-11 234 -101.5 391.5t-227.5 228.5q-98 52 -209 52q-150 0 -266 -80q-104 -67 -169.5 -198.5t-89.5 -287.5zM492 1544l223 238l223 -238l-6 -6l-217 143
l-217 -141z" />
    <glyph glyph-name="Otilde" unicode="&#xd5;" horiz-adv-x="1431" 
d="M76 442q-56 133 -56 279q0 143 53.5 277t144.5 234.5t221 161t274 60.5q106 0 208.5 -32.5t190.5 -96t155 -151t105.5 -204.5t38.5 -249q0 -140 -54 -274t-145 -235.5t-220.5 -163.5t-270.5 -62q-217 0 -391 127.5t-254 328.5zM190 870q-10 -64 -10 -149v-39
q3 -102 26 -198.5t68 -182.5t106.5 -150t147 -101.5t183.5 -37.5h8q132 0 235.5 61t173.5 171q125 193 125 473v47q-11 234 -101.5 391.5t-227.5 228.5q-98 52 -209 52q-150 0 -266 -80q-104 -67 -169.5 -198.5t-89.5 -287.5zM463 1532l-14 4q24 81 60 119.5t95 38.5
q56 0 145.5 -37t137.5 -37q30 0 47.5 19t34.5 73l12 -4q-50 -166 -150 -166q-57 0 -154.5 38t-129.5 38q-34 0 -50 -17.5t-34 -68.5z" />
    <glyph glyph-name="Odieresis" unicode="&#xd6;" horiz-adv-x="1431" 
d="M76 442q-56 133 -56 279q0 143 53.5 277t144.5 234.5t221 161t274 60.5q106 0 208.5 -32.5t190.5 -96t155 -151t105.5 -204.5t38.5 -249q0 -140 -54 -274t-145 -235.5t-220.5 -163.5t-270.5 -62q-217 0 -391 127.5t-254 328.5zM190 870q-10 -64 -10 -149v-39
q3 -102 26 -198.5t68 -182.5t106.5 -150t147 -101.5t183.5 -37.5h8q132 0 235.5 61t173.5 171q125 193 125 473v47q-11 234 -101.5 391.5t-227.5 228.5q-98 52 -209 52q-150 0 -266 -80q-104 -67 -169.5 -198.5t-89.5 -287.5zM772 1561q-22 22 -22 57t22.5 58.5t54.5 23.5
q31 0 53.5 -23.5t22.5 -58.5t-22.5 -58.5t-53.5 -23.5q-33 0 -55 25zM551 1561q-23 23 -23 57q0 35 22 58.5t54 23.5t54 -23.5t22 -58.5t-22 -58.5t-54 -23.5q-31 0 -53 25z" />
    <glyph glyph-name="Oslash" unicode="&#xd8;" horiz-adv-x="1431" 
d="M498 63l426 1321q-98 52 -209 52q-95 0 -175 -31t-137.5 -83.5t-101.5 -126t-70.5 -154t-40.5 -171.5q-13 -108 -10 -188q10 -196 84 -358.5t223 -251.5q2 -5 11 -9zM936 1378l-426 -1321q86 -45 201 -45q139 -3 245 62q204 125 273 409q30 135 24 281q-5 95 -24 181
t-55.5 168t-97 150.5t-140.5 114.5zM934 1417l84 258h14l-84 -262q4 -2 12.5 -5t12.5 -5q208 -87 323 -269.5t115 -412.5q0 -140 -53.5 -273.5t-144 -235.5t-220 -164t-272.5 -62q-120 0 -221 39l-88 -273h-15l90 277q-39 17 -41 18q-192 87 -309 273.5t-117 400.5
q0 142 53 275.5t143.5 234.5t220.5 162t276 61q114 0 221 -37z" />
    <glyph glyph-name="Ugrave" unicode="&#xd9;" horiz-adv-x="1282" 
d="M20 1434h412q-50 -8 -86 -37t-43 -74v-793q0 -254 117 -393q106 -125 274 -125q33 0 49 2q178 17 281.5 151.5t103.5 315.5v842q-6 33 -37 67.5t-85 43.5h256q-44 -6 -82.5 -40t-42.5 -75v-836q0 -215 -128.5 -354t-330.5 -139q-110 0 -204 33t-166.5 98t-114 170
t-41.5 239v789q-7 50 -46.5 79t-85.5 36zM494 1720v11q0 17 8 28q16 23 39 23q22 0 43 -21q55 -51 135 -131l78 -78l-11 -16q-102 38 -260 139q-29 20 -32 45z" />
    <glyph glyph-name="Uacute" unicode="&#xda;" horiz-adv-x="1282" 
d="M20 1434h412q-50 -8 -86 -37t-43 -74v-793q0 -254 117 -393q106 -125 274 -125q33 0 49 2q178 17 281.5 151.5t103.5 315.5v842q-6 33 -37 67.5t-85 43.5h256q-44 -6 -82.5 -40t-42.5 -75v-836q0 -215 -128.5 -354t-330.5 -139q-110 0 -204 33t-166.5 98t-114 170
t-41.5 239v789q-7 50 -46.5 79t-85.5 36zM485 1559l78 77q80 80 135 131q21 21 43 21q23 0 39 -23q11 -15 11 -30v-3v-4t-0.5 -5.5t-1.5 -6.5t-4 -7.5t-6.5 -8.5t-9.5 -9t-13 -10q-158 -101 -260 -139z" />
    <glyph glyph-name="Ucircumflex" unicode="&#xdb;" horiz-adv-x="1282" 
d="M20 1434h412q-50 -8 -86 -37t-43 -74v-793q0 -254 117 -393q106 -125 274 -125q33 0 49 2q178 17 281.5 151.5t103.5 315.5v842q-6 33 -37 67.5t-85 43.5h256q-44 -6 -82.5 -40t-42.5 -75v-836q0 -215 -128.5 -354t-330.5 -139q-110 0 -204 33t-166.5 98t-114 170
t-41.5 239v789q-7 50 -46.5 79t-85.5 36zM418 1544l223 238l223 -238l-6 -6l-217 143l-217 -141z" />
    <glyph glyph-name="Udieresis" unicode="&#xdc;" horiz-adv-x="1282" 
d="M100 1401q-44 27 -80 33h412q-50 -8 -86 -37t-43 -74v-793q0 -254 117 -393q106 -125 274 -125q33 0 49 2q178 17 281.5 151.5t103.5 315.5v842q-6 33 -37 67.5t-85 43.5h256q-44 -6 -82.5 -40t-42.5 -75v-836q0 -215 -128.5 -354t-330.5 -139q-110 0 -204 33t-166.5 98
t-114 170t-41.5 239v789q-9 55 -52 82zM696 1561q-22 22 -22 57t22.5 58.5t55.5 23.5q31 0 53 -23.5t22 -58.5t-22 -58.5t-53 -23.5q-34 0 -56 25zM475 1561q-22 22 -22 57t21.5 58.5t53.5 23.5t54 -23.5t22 -58.5t-22 -58.5t-54 -23.5q-31 0 -53 25z" />
    <glyph glyph-name="agrave" unicode="&#xe0;" horiz-adv-x="1003" 
d="M45 164q-22 45 -22 117v20q8 207 239 313q-16 50 -16 103v5q-1 6 -1 12t1 15.5t3 20t5.5 23.5t10 28t14.5 31q73 135 247 135q62 0 118 -18.5t104.5 -57t77 -107t28.5 -159.5v-510q0 -52 35.5 -87t93.5 -46h-127q-64 0 -109 45t-45 111q-189 -170 -362 -170
q-102 0 -180.5 44.5t-114.5 131.5zM164 373q-6 -30 -6 -62q0 -64 20 -123q26 -80 81 -127t122 -47q19 0 29 2q151 20 292 154v479q-74 21 -147 21q-154 0 -260 -83.5t-131 -213.5zM258 743q-2 -12 -2 -36q0 -48 14 -89q145 60 275 60q70 0 157 -19v17q0 78 -18 139
q-45 155 -178 158q-104 0 -171.5 -66t-76.5 -164zM354 1276v10q0 18 8 29q16 22 39 22t43 -20q69 -64 136 -131l77 -78l-10 -16q-102 38 -260 139q-30 21 -33 45z" />
    <glyph glyph-name="aacute" unicode="&#xe1;" horiz-adv-x="1003" 
d="M45 164q-22 45 -22 117v20q8 207 239 313q-16 50 -16 103v5q-1 6 -1 12t1 15.5t3 20t5.5 23.5t10 28t14.5 31q73 135 247 135q62 0 118 -18.5t104.5 -57t77 -107t28.5 -159.5v-510q0 -52 35.5 -87t93.5 -46h-127q-64 0 -109 45t-45 111q-189 -170 -362 -170
q-102 0 -180.5 44.5t-114.5 131.5zM164 373q-6 -30 -6 -62q0 -64 20 -123q26 -80 81 -127t122 -47q19 0 29 2q151 20 292 154v479q-74 21 -147 21q-154 0 -260 -83.5t-131 -213.5zM258 743q-2 -12 -2 -36q0 -48 14 -89q145 60 275 60q70 0 157 -19v17q0 78 -18 139
q-45 155 -178 158q-104 0 -171.5 -66t-76.5 -164zM356 1098l-10 16l78 78q80 80 135 131q20 20 43 20t39 -22q10 -13 10 -31v-3v-5.5t-1 -6.5t-3 -8t-6 -9t-10.5 -10t-14.5 -11q-158 -101 -260 -139z" />
    <glyph glyph-name="acircumflex" unicode="&#xe2;" horiz-adv-x="1003" 
d="M45 164q-22 45 -22 117v20q8 207 239 313q-16 50 -16 103v5q-1 6 -1 12t1 15.5t3 20t5.5 23.5t10 28t14.5 31q73 135 247 135q62 0 118 -18.5t104.5 -57t77 -107t28.5 -159.5v-510q0 -52 35.5 -87t93.5 -46h-127q-64 0 -109 45t-45 111q-189 -170 -362 -170
q-102 0 -180.5 44.5t-114.5 131.5zM164 373q-6 -30 -6 -62q0 -64 20 -123q26 -80 81 -127t122 -47q19 0 29 2q151 20 292 154v479q-74 21 -147 21q-154 0 -260 -83.5t-131 -213.5zM258 743q-2 -12 -2 -36q0 -48 14 -89q145 60 275 60q70 0 157 -19v17q0 78 -18 139
q-45 155 -178 158q-104 0 -171.5 -66t-76.5 -164zM285 1096l-6 4l223 237l223 -237l-6 -6l-217 143z" />
    <glyph glyph-name="atilde" unicode="&#xe3;" horiz-adv-x="1003" 
d="M45 164q-22 45 -22 117v20q8 207 239 313q-16 50 -16 103v5q-1 6 -1 12t1 15.5t3 20t5.5 23.5t10 28t14.5 31q73 135 247 135q62 0 118 -18.5t104.5 -57t77 -107t28.5 -159.5v-510q0 -52 35.5 -87t93.5 -46h-127q-64 0 -109 45t-45 111q-189 -170 -362 -170
q-102 0 -180.5 44.5t-114.5 131.5zM164 373q-6 -30 -6 -62q0 -64 20 -123q26 -80 81 -127t122 -47q19 0 29 2q151 20 292 154v479q-74 21 -147 21q-154 0 -260 -83.5t-131 -213.5zM258 743q-2 -12 -2 -36q0 -48 14 -89q145 60 275 60q70 0 157 -19v17q0 78 -18 139
q-45 155 -178 158q-104 0 -171.5 -66t-76.5 -164zM250 1087l-14 5q24 81 59.5 119t95.5 38q56 0 145.5 -36.5t137.5 -36.5q30 0 47.5 19t34.5 73l12 -4q-50 -166 -150 -166q-57 0 -154.5 38t-129.5 38q-34 0 -50 -17.5t-34 -69.5z" />
    <glyph glyph-name="adieresis" unicode="&#xe4;" horiz-adv-x="1003" 
d="M45 164q-22 45 -22 117v20q8 207 239 313q-16 50 -16 103v5q-1 6 -1 12t1 15.5t3 20t5.5 23.5t10 28t14.5 31q73 135 247 135q62 0 118 -18.5t104.5 -57t77 -107t28.5 -159.5v-510q0 -52 35.5 -87t93.5 -46h-127q-64 0 -109 45t-45 111q-189 -170 -362 -170
q-102 0 -180.5 44.5t-114.5 131.5zM164 373q-6 -30 -6 -62q0 -64 20 -123q26 -80 81 -127t122 -47q19 0 29 2q151 20 292 154v479q-74 21 -147 21q-154 0 -260 -83.5t-131 -213.5zM258 743q-2 -12 -2 -36q0 -48 14 -89q145 60 275 60q70 0 157 -19v17q0 78 -18 139
q-45 155 -178 158q-104 0 -171.5 -66t-76.5 -164zM557 1116q-22 22 -22 58q0 35 22 58t55 23q31 0 53.5 -23t22.5 -58t-22.5 -58.5t-53.5 -23.5q-34 0 -55 24zM336 1116q-23 23 -23 58t22 58t54 23t54 -23t22 -58t-22 -58.5t-54 -23.5t-53 24z" />
    <glyph glyph-name="aring" unicode="&#xe5;" horiz-adv-x="1003" 
d="M45 164q-22 45 -22 117v20q8 207 239 313q-16 50 -16 103v5q-1 6 -1 12t1 15.5t3 20t5.5 23.5t10 28t14.5 31q27 53 92 96q39 26 96 35q36 4 59 4h23q47 -3 96 -18q93 -30 151 -111t58 -213v-510q0 -52 35.5 -87t93.5 -46h-127q-64 0 -109 45t-45 111
q-189 -170 -362 -170q-102 0 -180.5 44.5t-114.5 131.5zM164 373q-6 -30 -6 -62q0 -64 20 -123q26 -80 81 -127t122 -47q19 0 29 2q151 20 292 154v479q-74 21 -147 21q-154 0 -260 -83.5t-131 -213.5zM258 743q-2 -12 -2 -36q0 -48 14 -89q145 60 275 60q70 0 157 -19v17
q0 78 -18 139q-45 155 -178 158q-104 0 -171.5 -66t-76.5 -164zM401 1024q-43 43 -43 106q0 66 42 110t102 44t100.5 -44t40.5 -110q0 -62 -41 -106q-24 -27 -53 -37q-19 -8 -47 -8q-15 0 -35 4q-37 9 -66 41zM369 1133v-7q0 -57 38.5 -97t92.5 -40q58 0 95.5 42.5
t37.5 101.5q0 58 -38 99.5t-93 41.5q-58 0 -94.5 -41t-38.5 -100z" />
    <glyph glyph-name="ae" unicode="&#xe6;" horiz-adv-x="1964" 
d="M45 164q-22 45 -22 117v20q8 207 239 313q-16 50 -16 103v5q-1 6 -1 12t1 15.5t3 20t5.5 23.5t10 28t14.5 31q73 135 247 135q62 0 118 -18.5t104.5 -57t77 -107t28.5 -159.5v-510q0 -52 35.5 -87t93.5 -46h-127q-64 0 -109 45t-45 111q-189 -170 -362 -170
q-102 0 -180.5 44.5t-114.5 131.5zM1026 467v20q0 112 45 208t118 159.5t165 99t188 35.5q79 0 150.5 -24t128 -70.5t90 -122t33.5 -170.5q-8 0 -26 1t-26 1q-249 0 -440 -96q-101 -51 -156 -120t-55 -146q0 -23 2 -33q110 -189 322 -189h24q125 5 224 90t116 212h10
q-6 -57 -34 -113.5t-76 -106.5t-126.5 -81t-174.5 -31q-75 0 -145.5 17t-135 54t-112.5 91.5t-77.5 135.5t-31.5 179zM164 373q-6 -30 -6 -62q0 -64 20 -123q26 -80 81 -127t122 -47q19 0 29 2q151 20 292 154v479q-74 21 -147 21q-154 0 -260 -83.5t-131 -213.5zM1178 602
q-7 -54 -7 -92q0 -160 62 -283v19q0 146 182 252q169 99 391 112v11q0 71 -26.5 139.5t-75.5 120.5q-85 90 -201 90q-31 0 -61 -6q-110 -23 -176 -125.5t-86 -229.5zM258 743q-2 -12 -2 -36q0 -48 14 -89q145 60 275 60q70 0 157 -19v17q0 78 -18 139q-45 155 -178 158
q-104 0 -171.5 -66t-76.5 -164z" />
    <glyph glyph-name="ccedilla" unicode="&#xe7;" horiz-adv-x="978" 
d="M23 467q0 6 -1.5 19.5t-1.5 19.5q0 106 43.5 199t120.5 159q70 61 159.5 92t174.5 31h10q71 -2 136.5 -28.5t115 -69t87 -90.5t63.5 -101l-8 -4q-56 117 -159 197t-222 80t-214.5 -80.5t-133.5 -198.5q-27 -89 -27 -170q0 -95 31 -186q52 -156 156 -239t229 -83
q29 0 45 2q103 11 186 85t137 182l8 -4q-139 -271 -401 -289q-14 -2 -43 -2q-23 0 -63 4l-35 -94q39 20 80 20q59 0 99 -37t40 -90q0 -3 -1 -10t-1 -10q-5 -51 -51.5 -89t-112.5 -38q-81 0 -137 59l6 10q57 -57 129 -57q84 0 104 113q2 10 2 28q0 44 -23 74.5t-71 30.5
q-30 0 -76 -19v4l39 107q-15 2 -77 16q-146 40 -239.5 157.5t-102.5 299.5z" />
    <glyph glyph-name="egrave" unicode="&#xe8;" horiz-adv-x="960" 
d="M23 467v20q0 112 45 208t118 159.5t165 99t188 35.5q79 0 150 -24t127.5 -70.5t90 -122t33.5 -170.5q-8 0 -25.5 1t-25.5 1q-249 0 -440 -96q-101 -51 -156 -120t-55 -146q0 -23 2 -33q110 -189 321 -189h25q125 5 224 90t116 212h10q-6 -57 -34 -113.5t-76.5 -106.5
t-127 -81t-174.5 -31q-95 0 -181 28t-158 83t-116 149.5t-46 216.5zM174 602q-6 -46 -6 -92q0 -162 61 -283v19q0 145 183 252q169 99 391 112v11q0 71 -27 139.5t-76 120.5q-85 90 -200 90q-32 0 -62 -6q-110 -23 -176 -125.5t-86 -229.5zM332 1276v10q0 18 8 29
q16 22 39 22t43 -20q55 -51 135 -131l78 -78l-10 -16q-102 38 -260 139q-30 21 -33 45z" />
    <glyph glyph-name="eacute" unicode="&#xe9;" horiz-adv-x="960" 
d="M23 467v20q0 112 45 208t118 159.5t165 99t188 35.5q79 0 150 -24t127.5 -70.5t90 -122t33.5 -170.5q-8 0 -25.5 1t-25.5 1q-249 0 -440 -96q-101 -51 -156 -120t-55 -146q0 -23 2 -33q110 -189 321 -189h25q125 5 224 90t116 212h10q-6 -57 -34 -113.5t-76.5 -106.5
t-127 -81t-174.5 -31q-95 0 -181 28t-158 83t-116 149.5t-46 216.5zM174 602q-6 -46 -6 -92q0 -162 61 -283v19q0 145 183 252q169 99 391 112v11q0 71 -27 139.5t-76 120.5q-85 90 -200 90q-32 0 -62 -6q-110 -23 -176 -125.5t-86 -229.5zM334 1098l-10 16l77 78
q67 67 136 131q20 20 43 20q22 0 38 -22q11 -15 11 -31v-3v-5.5t-1 -6.5t-3 -8t-6 -9t-10.5 -10t-14.5 -11q-158 -101 -260 -139z" />
    <glyph glyph-name="ecircumflex" unicode="&#xea;" horiz-adv-x="960" 
d="M23 467v20q0 112 45 208t118 159.5t165 99t188 35.5q79 0 150 -24t127.5 -70.5t90 -122t33.5 -170.5q-8 0 -25.5 1t-25.5 1q-249 0 -440 -96q-101 -51 -156 -120t-55 -146q0 -23 2 -33q110 -189 321 -189h25q125 5 224 90t116 212h10q-6 -57 -34 -113.5t-76.5 -106.5
t-127 -81t-174.5 -31q-95 0 -181 28t-158 83t-116 149.5t-46 216.5zM174 602q-6 -46 -6 -92q0 -162 61 -283v19q0 145 183 252q169 99 391 112v11q0 71 -27 139.5t-76 120.5q-85 90 -200 90q-32 0 -62 -6q-110 -23 -176 -125.5t-86 -229.5zM256 1100l223 237l223 -237l-6 -6
l-217 143l-217 -141z" />
    <glyph glyph-name="edieresis" unicode="&#xeb;" horiz-adv-x="960" 
d="M23 467v20q0 112 45 208t118 159.5t165 99t188 35.5q79 0 150 -24t127.5 -70.5t90 -122t33.5 -170.5q-8 0 -25.5 1t-25.5 1q-249 0 -440 -96q-101 -51 -156 -120t-55 -146q0 -23 2 -33q110 -189 321 -189h25q125 5 224 90t116 212h10q-6 -57 -34 -113.5t-76.5 -106.5
t-127 -81t-174.5 -31q-95 0 -181 28t-158 83t-116 149.5t-46 216.5zM174 602q-6 -46 -6 -92q0 -162 61 -283v19q0 145 183 252q169 99 391 112v11q0 71 -27 139.5t-76 120.5q-85 90 -200 90q-32 0 -62 -6q-110 -23 -176 -125.5t-86 -229.5zM537 1116q-23 23 -23 58t22.5 58
t55.5 23q31 0 53.5 -23t22.5 -58t-22.5 -58.5t-53.5 -23.5q-34 0 -55 24zM315 1116q-22 22 -22 58q0 35 22 58t54 23t53.5 -23t21.5 -58t-21.5 -58.5t-53.5 -23.5q-33 0 -54 24z" />
    <glyph glyph-name="igrave" unicode="&#xec;" horiz-adv-x="466" 
d="M20 989h299v-856q0 -49 33 -82q34 -40 94 -49h-409q45 5 86 39t45 90v733q-4 59 -53 92t-95 33zM86 1276v10q0 18 8 29q16 22 39 22t43 -20q55 -51 135 -131l78 -78l-10 -16q-102 38 -260 139q-30 21 -33 45z" />
    <glyph glyph-name="iacute" unicode="&#xed;" horiz-adv-x="466" 
d="M20 989h299v-856q0 -49 33 -82q34 -40 94 -49h-409q45 5 86 39t45 90v733q-4 59 -53 92t-95 33zM78 1114l78 78q80 80 135 131q20 20 43 20t39 -22q10 -13 10 -31v-3v-5.5t-1 -6.5t-3 -8t-6 -9t-10.5 -10t-14.5 -11q-158 -101 -260 -139z" />
    <glyph glyph-name="icircumflex" unicode="&#xee;" horiz-adv-x="466" 
d="M20 989h299v-856q0 -49 33 -82q34 -40 94 -49h-409q45 5 86 39t45 90v733q-4 59 -53 92t-95 33zM10 1100l223 237l224 -237l-6 -6l-218 143l-217 -141z" />
    <glyph glyph-name="idieresis" unicode="&#xef;" horiz-adv-x="466" 
d="M20 989h299v-856q0 -49 33 -82q34 -40 94 -49h-409q45 5 86 39t45 90v733q-4 59 -53 92t-95 33zM289 1116q-23 23 -23 58t22.5 58t55.5 23q31 0 53.5 -23t22.5 -58t-22.5 -58.5t-53.5 -23.5q-34 0 -55 24zM45 1174q0 35 22 58t54 23t54 -23t22 -58t-22 -58.5t-54 -23.5
t-54 23.5t-22 58.5z" />
    <glyph glyph-name="ntilde" unicode="&#xf1;" horiz-adv-x="1105" 
d="M154 125v739q-4 53 -46.5 86.5t-87.5 38.5h285v-225q18 74 71.5 130t133.5 79q58 16 121 16q29 0 43 -2q120 -8 201 -112t81 -267v-14v-459q1 -53 36.5 -87.5t92.5 -45.5h-411q47 5 89 40t42 91v524q0 150 -67 224.5t-165 74.5q-104 0 -186 -74t-82 -186v-561
q1 -53 36.5 -87.5t92.5 -45.5h-411q47 7 86.5 38t44.5 85zM301 1087l-14 5q24 81 59.5 119t95.5 38q56 0 145.5 -36.5t137.5 -36.5q30 0 47.5 19t34.5 73l12 -4q-50 -166 -149 -166q-57 0 -155 38t-130 38q-34 0 -50 -17.5t-34 -69.5z" />
    <glyph glyph-name="ograve" unicode="&#xf2;" horiz-adv-x="1030" 
d="M31 362q-8 47 -8 105q0 164 94 299q160 217 413 223h15q106 0 200.5 -40t165.5 -127.5t90 -209.5q7 -51 7 -88q0 -118 -52.5 -233.5t-162.5 -202.5q-77 -64 -222 -92q-55 -10 -100 -10q-27 0 -41 2q-154 18 -262.5 114t-136.5 260zM178 672q-18 -68 -18 -150q0 -57 4 -88
q22 -227 145 -340q89 -82 211 -82q19 0 51 4q165 23 246 185q53 111 53 264q0 26 -4 76q-12 123 -62.5 224t-129.5 161q-65 41 -150 41q-115 0 -211.5 -76t-134.5 -219zM367 1276v10q0 18 8 29q16 22 39 22t43 -20q55 -51 135 -131l78 -78l-11 -16q-102 38 -260 139
q-29 20 -32 45z" />
    <glyph glyph-name="oacute" unicode="&#xf3;" horiz-adv-x="1030" 
d="M31 362q-8 47 -8 105q0 164 94 299q160 217 413 223h15q106 0 200.5 -40t165.5 -127.5t90 -209.5q7 -51 7 -88q0 -118 -52.5 -233.5t-162.5 -202.5q-77 -64 -222 -92q-55 -10 -100 -10q-27 0 -41 2q-154 18 -262.5 114t-136.5 260zM178 672q-18 -68 -18 -150q0 -57 4 -88
q22 -227 145 -340q89 -82 211 -82q19 0 51 4q165 23 246 185q53 111 53 264q0 26 -4 76q-12 123 -62.5 224t-129.5 161q-65 41 -150 41q-115 0 -211.5 -76t-134.5 -219zM358 1114l78 78q80 80 135 131q20 20 43 20t39 -22q11 -15 11 -31v-3v-5.5t-1 -6.5t-3 -8t-6 -9
t-10.5 -10t-14.5 -11q-158 -101 -260 -139z" />
    <glyph glyph-name="ocircumflex" unicode="&#xf4;" horiz-adv-x="1030" 
d="M31 362q-8 47 -8 105q0 164 94 299q160 217 413 223h15q106 0 200.5 -40t165.5 -127.5t90 -209.5q7 -51 7 -88q0 -118 -52.5 -233.5t-162.5 -202.5q-77 -64 -222 -92q-55 -10 -100 -10q-27 0 -41 2q-154 18 -262.5 114t-136.5 260zM178 672q-18 -68 -18 -150q0 -57 4 -88
q22 -227 145 -340q89 -82 211 -82q19 0 51 4q165 23 246 185q53 111 53 264q0 26 -4 76q-12 123 -62.5 224t-129.5 161q-65 41 -150 41q-115 0 -211.5 -76t-134.5 -219zM291 1100l223 237l223 -237l-6 -6l-217 143l-217 -141z" />
    <glyph glyph-name="otilde" unicode="&#xf5;" horiz-adv-x="1030" 
d="M31 362q-8 47 -8 105q0 164 94 299q160 217 413 223h15q106 0 200.5 -40t165.5 -127.5t90 -209.5q7 -51 7 -88q0 -118 -52.5 -233.5t-162.5 -202.5q-77 -64 -222 -92q-55 -10 -100 -10q-27 0 -41 2q-154 18 -262.5 114t-136.5 260zM178 672q-18 -68 -18 -150q0 -57 4 -88
q22 -227 145 -340q89 -82 211 -82q19 0 51 4q165 23 246 185q53 111 53 264q0 26 -4 76q-12 123 -62.5 224t-129.5 161q-65 41 -150 41q-115 0 -211.5 -76t-134.5 -219zM248 1092q24 81 59.5 119t95.5 38q56 0 145.5 -36.5t137.5 -36.5q30 0 47.5 19t34.5 73l12 -4
q-50 -166 -149 -166q-57 0 -155 38t-130 38q-34 0 -50 -17.5t-34 -69.5z" />
    <glyph glyph-name="odieresis" unicode="&#xf6;" horiz-adv-x="1030" 
d="M31 362q-8 47 -8 105q0 164 94 299q160 217 413 223h15q106 0 200.5 -40t165.5 -127.5t90 -209.5q7 -51 7 -88q0 -118 -52.5 -233.5t-162.5 -202.5q-77 -64 -222 -92q-55 -10 -100 -10q-27 0 -41 2q-154 18 -262.5 114t-136.5 260zM178 672q-18 -68 -18 -150q0 -57 4 -88
q22 -227 145 -340q89 -82 211 -82q19 0 51 4q165 23 246 185q53 111 53 264q0 26 -4 76q-12 123 -62.5 224t-129.5 161q-65 41 -150 41q-115 0 -211.5 -76t-134.5 -219zM549 1174q0 35 22.5 58t55.5 23q31 0 53 -23t22 -58t-22 -58.5t-53 -23.5q-33 0 -55.5 23.5t-22.5 58.5
zM350 1116q-22 22 -22 58q0 35 21.5 58t53.5 23t54 -23t22 -58t-22 -58.5t-54 -23.5t-53 24z" />
    <glyph glyph-name="divide" unicode="&#xf7;" horiz-adv-x="712" 
d="M307 954q-22 22 -22 56q0 32 21 54.5t50 22.5q31 0 51.5 -22.5t20.5 -54.5t-20.5 -55t-51.5 -23q-27 0 -49 22zM307 311q-22 22 -22 54t21 54.5t50 22.5q31 0 51.5 -22.5t20.5 -54.5q0 -31 -21 -54.5t-51 -23.5q-28 0 -49 24zM692 680h-672v14h672v-14z" />
    <glyph glyph-name="oslash" unicode="&#xf8;" horiz-adv-x="1030" 
d="M31 362q-8 47 -8 105q0 164 94 299q160 217 413 223h19q39 0 76 -6l174 539h14l-174 -541q9 -2 27.5 -6t27.5 -6q121 -39 203.5 -129.5t103.5 -227.5q7 -51 7 -88q0 -118 -52.5 -233.5t-162.5 -202.5q-77 -64 -222 -92q-55 -10 -100 -10q-27 0 -41 2q-49 5 -104 22
l-133 -411h-15l135 415q-9 2 -22 11q-101 39 -170 126t-90 211zM629 948l-285 -882q45 -30 88 -41q47 -13 88 -13q19 0 51 4q165 23 246 185q53 111 53 264q0 26 -4 76q-12 123 -62.5 224t-129.5 161q-9 7 -45 22zM178 672q-18 -68 -18 -150q0 -57 4 -88q22 -227 145 -340
q3 -3 23 -18l282 876q-40 15 -90 15q-115 0 -211.5 -76t-134.5 -219z" />
    <glyph glyph-name="ugrave" unicode="&#xf9;" horiz-adv-x="1105" 
d="M20 989h412q-48 -5 -89 -39t-42 -92v-522q0 -150 66 -225.5t165 -75.5q103 0 186 75t83 187v561q-1 53 -37.5 88t-91.5 43h411q-45 -5 -85.5 -37t-45.5 -84v-741q4 -53 46.5 -86.5t86.5 -38.5h-116q-69 0 -118.5 49.5t-49.5 118.5v57q-18 -74 -71.5 -129t-133.5 -78
q-59 -16 -123 -16q-7 0 -20.5 1t-20.5 1q-120 8 -201 111t-81 266v14v461q-1 53 -37.5 88t-92.5 43zM406 1276v10q0 18 8 29q16 22 39 22t43 -20q55 -51 135 -131l78 -78l-11 -16q-102 38 -260 139q-29 20 -32 45z" />
    <glyph glyph-name="uacute" unicode="&#xfa;" horiz-adv-x="1105" 
d="M20 989h412q-48 -5 -89 -39t-42 -92v-522q0 -150 66 -225.5t165 -75.5q103 0 186 75t83 187v561q-1 53 -37.5 88t-91.5 43h411q-45 -5 -85.5 -37t-45.5 -84v-741q4 -53 46.5 -86.5t86.5 -38.5h-116q-69 0 -118.5 49.5t-49.5 118.5v57q-18 -74 -71.5 -129t-133.5 -78
q-59 -16 -123 -16q-7 0 -20.5 1t-20.5 1q-120 8 -201 111t-81 266v14v461q-1 53 -37.5 88t-92.5 43zM397 1114l78 78q80 80 135 131q20 20 43 20t39 -22q10 -13 10 -31v-3q1 -3 0.5 -5.5t-1 -6.5t-3 -8t-6 -8.5t-10 -10t-14.5 -11.5q-158 -101 -260 -139z" />
    <glyph glyph-name="ucircumflex" unicode="&#xfb;" horiz-adv-x="1105" 
d="M111 946q-37 34 -91 43h412q-48 -5 -89 -39t-42 -92v-522q0 -150 66 -225.5t165 -75.5q103 0 186 75t83 187v561q-1 53 -37.5 88t-91.5 43h411q-45 -5 -85.5 -37t-45.5 -84v-741q4 -53 46.5 -86.5t86.5 -38.5h-116q-69 0 -118.5 49.5t-49.5 118.5v57q-18 -74 -71.5 -129
t-133.5 -78q-59 -16 -123 -16q-7 0 -20.5 1t-20.5 1q-120 8 -201 111t-81 266v14v461q-3 55 -39 88zM330 1100l223 237l223 -237l-6 -6l-217 143l-217 -141z" />
    <glyph glyph-name="udieresis" unicode="&#xfc;" horiz-adv-x="1105" 
d="M111 946q-37 34 -91 43h412q-48 -5 -89 -39t-42 -92v-522q0 -150 66 -225.5t165 -75.5q103 0 186 75t83 187v561q-1 53 -37.5 88t-91.5 43h411q-45 -5 -85.5 -37t-45.5 -84v-741q4 -53 46.5 -86.5t86.5 -38.5h-116q-69 0 -118.5 49.5t-49.5 118.5v57q-18 -74 -71.5 -129
t-133.5 -78q-59 -16 -123 -16q-7 0 -20.5 1t-20.5 1q-120 8 -201 111t-81 266v14v461q-3 55 -39 88zM586 1174q0 35 22.5 58t55.5 23q31 0 53 -23t22 -58t-22 -58.5t-53 -23.5q-33 0 -55.5 23.5t-22.5 58.5zM387 1116q-22 22 -22 58q0 35 21.5 58t53.5 23t54 -23t22 -58
t-22 -58.5t-54 -23.5t-53 24z" />
    <glyph glyph-name="ydieresis" unicode="&#xff;" horiz-adv-x="1216" 
d="M20 989h314q-19 -6 -32 -32t-13 -52v-14q8 -78 66 -164.5t157 -200.5q102 -115 165 -200.5t85 -159.5q38 101 135 358.5t135 358.5v10v8q0 29 -21.5 53.5t-70.5 34.5h256q-41 -5 -86.5 -33.5t-67.5 -70.5q-59 -152 -191 -505.5t-151 -402.5q-27 -76 -90.5 -188.5
t-128.5 -189.5q-14 -20 -14 -41q0 -11 1.5 -18t19 -20.5t51.5 -19.5q0 -2 -41 -2h-215q40 7 92.5 32.5t85.5 59.5q65 73 129 187t102 207q-18 67 -55 135.5t-81.5 127t-95.5 117.5t-100 118t-91.5 118t-73.5 126.5t-43 135.5q-19 109 -132 127zM641 1174q0 35 22.5 58
t55.5 23q31 0 53.5 -23t22.5 -58t-22.5 -58.5t-53.5 -23.5q-33 0 -55.5 23.5t-22.5 58.5zM420 1174q0 35 22 58t54 23t53.5 -23t21.5 -58t-21.5 -58.5t-53.5 -23.5t-54 23.5t-22 58.5z" />
    <glyph glyph-name="OE" unicode="&#x152;" horiz-adv-x="2281" 
d="M20 721q0 143 53.5 277t144.5 234.5t221 161t274 60.5q106 0 208.5 -32.5t190.5 -96t155 -151t105.5 -204.5t38.5 -249q0 -140 -54 -274t-145 -235.5t-220.5 -163.5t-270.5 -62q-144 0 -275 60.5t-223.5 161.5t-147.5 235.5t-55 277.5zM190 870q-10 -64 -10 -149v-39
q3 -102 26 -198.5t68 -182.5t106.5 -150t147 -101.5t183.5 -37.5h8q132 0 235.5 61t173.5 171q125 193 125 473v47q-11 234 -101.5 391.5t-227.5 228.5q-98 52 -209 52q-150 0 -266 -80q-104 -67 -169.5 -198.5t-89.5 -287.5zM1452 2q48 5 89.5 40t41.5 95v1161
q0 60 -38.5 93.5t-88.5 42.5h801v-52q-24 12 -51 21q-68 22 -121 22h-350v-743q52 -12 98 -12q44 0 128.5 13t133.5 13q64 0 119 -14v-8q-58 12 -113 12q-50 0 -137.5 -12t-130.5 -12q-58 0 -98 12v-664h352q52 0 121 21q38 13 53 22v-51h-809z" />
    <glyph glyph-name="oe" unicode="&#x153;" horiz-adv-x="2031" 
d="M31 362q-8 47 -8 105q0 164 94 299q160 217 413 223h15q106 0 200.5 -40t165.5 -127.5t90 -209.5q7 -51 7 -88q0 -118 -52.5 -233.5t-162.5 -202.5q-77 -64 -222 -92q-55 -10 -100 -10q-27 0 -41 2q-154 18 -262.5 114t-136.5 260zM178 672q-18 -68 -18 -150q0 -57 4 -88
q22 -227 145 -340q89 -82 211 -82q19 0 51 4q165 23 246 185q53 111 53 264q0 26 -4 76q-12 123 -62.5 224t-129.5 161q-65 41 -150 41q-115 0 -211.5 -76t-134.5 -219zM1094 467v20q0 112 45 208t118 159.5t165 99t188 35.5q79 0 150 -24t127.5 -70.5t90 -122t33.5 -170.5
q-8 0 -25.5 1t-25.5 1q-249 0 -440 -96q-101 -51 -156 -120t-55 -146q0 -23 2 -33q110 -189 321 -189h25q125 5 224 90t116 212h10q-6 -57 -34 -113.5t-76.5 -106.5t-127 -81t-174.5 -31q-95 0 -181 28t-158 83t-116 149.5t-46 216.5zM1245 602q-6 -46 -6 -92
q0 -162 61 -283v19q0 145 183 252q169 99 391 112v11q0 71 -26.5 139.5t-75.5 120.5q-85 90 -201 90q-32 0 -62 -6q-110 -23 -176 -125.5t-86 -229.5z" />
    <glyph glyph-name="Ydieresis" unicode="&#x178;" horiz-adv-x="1495" 
d="M113 1389q-43 36 -93 45h347q-9 -2 -16 -4.5t-12.5 -5t-9.5 -5.5t-6.5 -5.5t-4.5 -6t-3 -5.5t-1.5 -5.5t-0.5 -4.5v-4v-4q0 -15 9 -30q35 -67 99 -130.5t137.5 -118.5t149.5 -113.5t153.5 -139t131.5 -170.5l299 645q8 16 8 33q0 16 -3 27t-22 26t-54 21h254
q-47 -7 -99 -37t-76 -74l-303 -649v-553q6 -48 42 -79.5t89 -39.5h-411q46 5 86 36t45 85v514q-35 74 -98 144t-138 130.5t-151.5 120t-156 136t-134.5 155.5q-23 35 -57 66zM780 1618q0 35 22.5 58.5t55.5 23.5q31 0 53.5 -23.5t22.5 -58.5t-22.5 -58.5t-53.5 -23.5
q-33 0 -55.5 23.5t-22.5 58.5zM582 1561q-23 23 -23 57q0 35 22 58.5t54 23.5t54 -23.5t22 -58.5t-22 -58.5t-54 -23.5q-31 0 -53 25z" />
    <glyph glyph-name="circumflex" unicode="&#x2c6;" horiz-adv-x="487" 
d="M244 1337l223 -237l-6 -6l-217 143l-217 -141l-7 4z" />
    <glyph glyph-name="caron" unicode="&#x2c7;" horiz-adv-x="487" 
d="M457 1346l10 -9l-223 -239l-224 239l9 9l215 -148z" />
    <glyph glyph-name="dotaccent" unicode="&#x2d9;" horiz-adv-x="192" 
d="M20 1169q0 35 22 58.5t54 23.5t54 -23.5t22 -58.5t-22 -58.5t-54 -23.5t-54 23.5t-22 58.5z" />
    <glyph glyph-name="ring" unicode="&#x2da;" horiz-adv-x="325" 
d="M20 1163q0 66 42 110t102 44t100.5 -44t40.5 -110q0 -63 -40.5 -107t-100.5 -44t-102 44t-42 107zM31 1165v-6q0 -57 38.5 -97t92.5 -40q58 0 95.5 42t37.5 101q0 58 -38 100t-93 42q-58 0 -94.5 -41.5t-38.5 -100.5z" />
    <glyph glyph-name="tilde" unicode="&#x2dc;" horiz-adv-x="573" 
d="M35 1087l-15 5q24 81 60 119t96 38q56 0 145.5 -36.5t137.5 -36.5q30 0 47.5 19t34.5 73l12 -4q-50 -166 -150 -166q-57 0 -154.5 38t-129.5 38q-34 0 -50 -17.5t-34 -69.5z" />
    <glyph glyph-name="hungarumlaut" unicode="&#x2dd;" horiz-adv-x="565" 
d="M244 1112l78 78q80 80 135 131q20 20 43 20t39 -22q10 -13 10 -31v-3v-5.5t-1 -6.5t-3 -8t-6 -9t-10.5 -10t-14.5 -11q-158 -101 -260 -139zM31 1096l-11 16l78 78q80 80 135 131q20 20 43 20t39 -22q11 -15 11 -31v-3v-5.5t-1 -6.5t-3 -8t-6 -9t-10.5 -10t-14.5 -11
q-158 -101 -260 -139z" />
    <glyph glyph-name="quoteleft" unicode="&#x2018;" horiz-adv-x="208" 
d="M10 1071q0 142 156 275l6 -5q-119 -105 -143 -204q14 14 36 25.5t39 11.5q38 0 66.5 -31t28.5 -72t-28.5 -70.5t-66.5 -29.5q-41 0 -67.5 29t-26.5 71z" />
    <glyph glyph-name="quoteright" unicode="&#x2019;" horiz-adv-x="208" 
d="M10 1266q0 41 28 70.5t66 29.5q41 0 68 -29t27 -71q0 -142 -156 -275l-6 4q119 104 143 205q-13 -13 -36 -25t-40 -12q-38 0 -66 31t-28 72z" />
    <glyph glyph-name="quotedblleft" unicode="&#x201c;" horiz-adv-x="413" 
d="M215 1071q0 142 156 275l6 -5q-121 -106 -144 -204q13 13 36 25t40 12q38 0 66 -31t28 -72t-28 -70.5t-66 -29.5q-41 0 -67.5 29t-26.5 71zM10 1071q0 142 156 275l6 -5q-119 -105 -143 -204q14 14 36 25.5t39 11.5q38 0 66.5 -31t28.5 -72t-28.5 -70.5t-66.5 -29.5
q-41 0 -67.5 29t-26.5 71z" />
    <glyph glyph-name="quotedblright" unicode="&#x201d;" horiz-adv-x="413" 
d="M244 1194q-29 32 -29 72q0 41 28 70.5t66 29.5q41 0 67.5 -29t26.5 -71q0 -143 -155 -275l-6 4q119 104 143 205q-13 -13 -36 -25t-40 -12q-37 0 -65 31zM10 1266q0 41 28 70.5t66 29.5q41 0 68 -29t27 -71q0 -142 -156 -275l-6 4q119 104 143 205q-13 -13 -36 -25
t-40 -12q-38 0 -66 31t-28 72z" />
    <glyph glyph-name="dagger" unicode="&#x2020;" horiz-adv-x="694" 
d="M12 627v14h328v1079h12v-1079h332v-14h-332v-830h-12v830h-328z" />
    <glyph glyph-name="daggerdbl" unicode="&#x2021;" horiz-adv-x="694" 
d="M12 877v12h328v831h12v-831h332v-12h-332v-310h332v-14h-332v-756h-12v756h-328v14h328v310h-328z" />
    <glyph glyph-name="Euro" unicode="&#x20ac;" horiz-adv-x="1087" 
d="M20 727q0 237 88.5 418.5t233.5 261.5q74 49 203 49q64 0 88 -8q180 -45 307 -251t127 -470q0 -100 -18.5 -199t-59.5 -194t-100.5 -168.5t-149 -120t-196.5 -51.5h-15q-94 0 -186.5 58t-163 155t-114.5 234t-44 286zM172 803q-2 -27 -2 -78q0 -64 6 -125
q9 -82 26 -160.5t47 -155.5t69 -135t94.5 -93.5t119.5 -35.5q32 0 76 13q175 50 256 301q51 158 51 371q0 75 -6 151q-20 202 -89 346.5t-173 208.5q-40 25 -86 31q-10 2 -29 2q-88 0 -165 -68t-123 -194q-63 -165 -72 -379zM207 553v14h672v-14h-672zM207 889h672v-12h-672
v12z" />
    <glyph glyph-name="trademark" unicode="&#x2122;" horiz-adv-x="1136" 
d="M440 811q24 4 39 20.5t15 30.5v574h53l78 -144q39 -68 149 -274q117 216 152 276q13 24 38.5 71t39.5 71h55v-572q0 -43 57 -53h-180q20 2 38 15.5t19 37.5v545l-73 -135q-36 -67 -144 -260q2 -3 27 -47q31 -55 31 -93q0 -22 -15 -40q-22 -25 -55 -25q-49 0 -57 43v14
q0 26 34 92l-243 445v-541q0 -16 14 -33q14 -15 39 -18h-111zM20 1413v23h435v-23l-21 8q-16 7 -45 11h-119v-570q8 -43 58 -53h-181q56 15 58 53v570h-117q-21 0 -47 -11zM719 901q-8 -13 -8 -33v-12q4 -18 14.5 -28.5t22.5 -10.5q18 0 30 21q6 12 6 22q0 29 -36 84l-5 8
q-4 -4 -4 -6q-3 -7 -10 -22.5t-10 -22.5z" />
    <glyph glyph-name="notequal" unicode="&#x2260;" horiz-adv-x="712" 
d="M20 567h672v-14h-672v14zM692 877h-672v12h672v-12z" />
    <glyph glyph-name="uniF201" unicode="&#xf201;" horiz-adv-x="1103" 
d="M-23 -629q-4 36 -4 54q0 46 13 96q29 117 110.5 196t182.5 107q91 24 176 24q42 0 70 -1.5t96 -19t131 -52.5q71 -38 118 -94q37 -44 37 -84q0 -18 -6 -33q-12 -41 -55 -41q-34 0 -62 28q-14 14 -14 29q-4 1 3.5 18t17.5 41t10 37q0 3 -1 8.5t-1 8.5q-8 33 -35.5 58.5
t-59 40t-79 25.5t-75.5 15t-69 8q-89 -2 -96 -4q-141 -19 -243 -99t-148 -218q-10 -52 -10 -92q0 -101 51 -191q70 -121 209 -191t288 -75h35q195 0 344 80q91 50 160 110v2q90 78 189 199q10 11 30 37.5t33 40.5q-130 140 -288.5 383t-241.5 454q-87 219 -410 1143
q-248 -748 -301 -901q-27 -70 -27 -139q0 -111 60 -211q44 -73 115 -115.5t149 -42.5h22q71 1 130.5 32.5t97.5 82.5q51 66 51 149q0 40 -12 80q-26 82 -97 125q-41 24 -104 29q-6 -1 -17.5 -2t-17.5 -2q-72 -18 -92 -76q-2 -6 -2 -20q0 -6 6 -23.5t11 -33.5t2.5 -34.5
t-15.5 -29.5q-21 -21 -49 -21q-43 0 -55 47q-5 20 -5 27q0 47 54 98q62 59 133 74q24 6 49 6q50 0 115 -35q63 -35 92 -127q12 -40 12 -82q0 -84 -51 -153q-39 -52 -100.5 -84.5t-135.5 -36.5h-22q-78 0 -147.5 39t-116.5 108q-68 99 -68 228q0 56 14 108q45 134 50 148
q17 48 53.5 160t54.5 165q24 74 78 234.5t80 239.5h153q400 -1117 428 -1192q65 -196 166 -406t211 -377q57 72 107 127t118 114.5t133.5 98.5t147.5 64.5t166 25.5q229 0 299 -166q25 -64 25 -120q0 -125 -90 -230q-66 -75 -164.5 -122.5t-208.5 -53.5h-25q-24 0 -86 4h-6
q-8 0 -12 2q-3 1 -9.5 2t-9.5 2q-44 8 -49 11q-118 27 -192 77.5t-150 141.5q-74 -94 -125.5 -153t-129.5 -127t-159 -111q-157 -82 -350 -82h-35q-98 5 -195.5 38t-174.5 89q-11 3 -41 34q-21 21 -33 31q-14 15 -25.5 31.5t-18.5 26.5t-9 12q-4 4 -6 10q-41 65 -50 139z
M1477 -399q-96 -104 -138 -154q173 -246 529 -246q105 6 200.5 51.5t159.5 118.5q94 110 94 230q0 55 -24 114q-36 82 -113.5 122t-177.5 40q-284 0 -530 -276z" />
    <glyph glyph-name="uniF202" unicode="&#xf202;" horiz-adv-x="1286" 
d="M633 2h-613q51 9 90.5 42t39.5 93v1163q0 59 -39.5 92t-90.5 42h482q249 0 375 -119q92 -87 92 -211q0 -17 -4 -53q-16 -100 -95 -165.5t-188 -92.5h23q42 0 132 -14t146 -31q79 -26 141.5 -80t100.5 -125q41 -80 41 -170q0 -64 -25 -131q-18 -47 -52 -85t-73.5 -62.5
t-92.5 -42.5t-99 -27.5t-104.5 -15t-97.5 -6.5t-89 -1zM301 377v-365h332q74 0 150 16t149 49t124.5 92t63.5 136q4 46 4 66q0 68 -33 139t-90 130t-143.5 96.5t-183.5 37.5q-74 0 -133 -20q-120 -42 -177 -130.5t-57 -195.5q0 -29 2 -43q10 -72 62 -102q15 -9 30 -9
q2 0 27.5 2.5t32.5 2.5h4h5h4.5t5 -0.5t5 -1.5t5 -2l4.5 -3t5 -4t4.5 -5t4.5 -7q12 -21 12 -39q0 -12 -3.5 -23.5t-18 -23t-37.5 -12.5h-6q-59 0 -106.5 71t-47.5 148zM506 1425h-205v-948q14 113 87.5 192.5t199.5 108.5q97 21 170 81t98 149q10 38 10 71q0 110 -73 205
q-49 64 -123.5 102.5t-163.5 38.5z" />
    <glyph glyph-name="uniF203" unicode="&#xf203;" horiz-adv-x="1384" 
d="M20 719q0 148 59.5 284t158 233.5t231.5 155.5t274 58q170 0 313 -72t226 -182l-6 -6q-92 119 -237.5 184.5t-295.5 65.5q-123 0 -208 -39q-218 -92 -299 -334q-48 -141 -48 -305q0 -89 17 -211q12 -86 40 -169.5t79 -168.5t118.5 -150t165.5 -107.5t213 -47.5h35
q121 0 371 55q95 21 188 21q149 0 211 -80q31 -42 31 -86v-17q-8 -59 -53 -59q-16 0 -31 6q-39 14 -39 49q0 9 4 25q1 6 5 21.5t6.5 26.5t2.5 15q0 36 -28 62q-24 21 -60 24q-30 6 -59 6q-40 0 -170 -24q-30 -6 -104 -21.5t-118 -24t-110 -16.5t-123 -8q-156 0 -299 73
t-243 191t-159 268.5t-59 303.5z" />
    <glyph glyph-name="uniF204" unicode="&#xf204;" horiz-adv-x="1374" 
d="M20 1430h566q215 0 391 -92.5t276.5 -256.5t100.5 -366q0 -149 -58 -281.5t-158.5 -228.5t-244 -151.5t-307.5 -55.5q-107 4 -184 64t-101 149v-213h-281q51 9 90.5 42t39.5 93v1163q0 59 -39.5 92t-90.5 42zM315 354q-12 -40 -12 -80q0 -84 51 -153q38 -51 98.5 -82.5
t133.5 -32.5q140 0 258 57.5t195 155t120 226t43 270.5q0 113 -26.5 218t-79.5 193.5t-126.5 154.5t-172 103t-211.5 37h-285v-1083l6 18q26 91 105 136q45 24 104 24q31 0 47 -4q75 -18 135 -74q50 -47 50 -100q0 -13 -3 -25q-12 -47 -57 -47q-28 0 -49 21q-16 13 -16 28
l1 10q2 6 7 23q14 47 14 58q0 6 -4 22q-20 59 -90 76q-24 4 -39 4q-60 0 -115 -37t-82 -117z" />
    <glyph glyph-name="uniF205" unicode="&#xf205;" horiz-adv-x="913" 
d="M121 -8q-33 8 -70 8q-21 0 -31 -2q47 5 89.5 41.5t42.5 95.5v1161q0 57 -38.5 91t-88.5 43q15 -3 32 -3q89 0 248 72q142 61 215 88q95 35 160 35q4 0 12.5 -1t12.5 -1q65 -3 131 -66q55 -52 55 -108q0 -15 -2 -23q-6 -22 -22 -34.5t-36 -12.5q-28 0 -49 21
q-16 13 -16 28l1 10q2 6 7 23q14 47 14 58q0 6 -4 22q-15 51 -67 66q-21 6 -45 6q-36 0 -88 -15q-9 -2 -152 -55q-59 -25 -94 -77.5t-35 -116.5v-668q56 -12 100 -12q43 0 127.5 13t133.5 13q63 0 118 -14v-8q-59 12 -112 12q-50 0 -138 -12.5t-131 -12.5q-55 0 -98 13v-580
q0 -67 36.5 -123t98.5 -82q77 -38 148 -55q49 -12 88 -12q22 0 43 6q52 17 67 65q4 16 4 23q0 6 -20 76q-4 14 -2 14q0 16 16 29q20 20 49 20q20 0 36 -12.5t22 -34.5q2 -8 2 -22q0 -57 -55 -109q-66 -63 -131 -66q-8 -2 -29 -2q-78 0 -314 99q-160 70 -241 88z" />
    <glyph glyph-name="uniF206" unicode="&#xf206;" horiz-adv-x="925" 
d="M-946 -668q-10 36 -10 90q0 50 12 99q24 97 90.5 172t161.5 117q1 2 37.5 12.5t88 20.5t83.5 10q19 0 37 -3q156 -11 268 -75q73 -39 119 -94q39 -44 39 -87q0 -12 -7 -30q-15 -41 -57 -41q-31 0 -59 28q-17 17 -17 31q-4 -1 3.5 15.5t17.5 41t10 37.5q0 3 -1 8.5t-1 8.5
q-12 48 -59 78q-111 59 -256 69q-14 2 -43 2q-131 0 -244 -63q-157 -90 -203 -260q-12 -49 -12 -94q0 -161 129 -285q77 -74 188.5 -119t233.5 -51q7 0 22.5 -1t22.5 -1q273 0 493 192q89 79 252 279q-243 292 -243 702v1155q0 61 -38 93t-89 41q15 -3 34 -3q85 0 305 97
q227 100 312 100q20 0 28 -2q71 -10 132 -68q55 -52 55 -108q0 -15 -2 -23q-6 -22 -22 -34.5t-36 -12.5q-28 0 -49 21q-16 13 -16 28l1 10q2 6 7 23q14 47 14 58q0 6 -4 22q-15 51 -67 66q-18 6 -41 6q-35 0 -86 -13q-27 -7 -148 -53q-63 -26 -101 -84t-38 -127v-653
q47 -12 102 -12q43 0 127.5 12t133.5 12q64 0 116 -12v-10q-49 12 -116 12q-49 0 -137.5 -12.5t-131.5 -12.5q-40 0 -94 13v-537q4 -145 10 -240.5t30 -228t65 -209.5q57 72 107 127t117.5 114.5t133 98.5t147.5 64.5t166 25.5q229 0 299 -166q27 -66 27 -114
q0 -62 -25 -123q-49 -117 -159 -193q-140 -98 -297 -98q-2 0 -25 1t-33 1q-165 16 -269 73t-196 167q-157 -197 -252 -279q-225 -194 -509 -194h-35q-219 10 -371 127q-5 2 -29.5 25t-36.5 30l-10 10q-79 91 -102 180zM547 -397q-71 -77 -135 -156q84 -135 260 -201
q89 -32 155 -39q1 0 18.5 -2t18.5 -2q16 -2 51 -2q88 0 184 37t171 107q70 66 97.5 133t27.5 121q0 50 -27 116q-35 82 -113 122t-178 40q-279 0 -530 -274z" />
    <glyph glyph-name="uniF207" unicode="&#xf207;" horiz-adv-x="1435" 
d="M72 444q-52 131 -52 275q0 400 332 631q79 55 182.5 86.5t210.5 31.5q165 0 283 -79q52 -35 84 -93t37 -106q4 -58 4 -60q0 -123 -76 -245q-95 -146 -260 -205h598v-10h-100v-348q-16 -39 -45.5 -81t-82.5 -88.5t-119 -82.5t-161 -60t-202 -24q-218 0 -386.5 127.5
t-246.5 330.5zM272 1133q-104 -174 -104 -424v-19q2 -122 47.5 -242t124 -217t196 -158t252.5 -63h11q247 0 364 172v488h-409q191 47 299 198q88 120 88 265v9v12.5t-0.5 15.5t-2 19.5t-4.5 22t-7.5 25.5t-11.5 27t-15 30q-35 60 -99 97q-80 45 -188 45q-118 0 -231 -45
q-202 -76 -310 -258z" />
    <glyph glyph-name="uniF208" unicode="&#xf208;" horiz-adv-x="1267" 
d="M-133 -639q-4 36 -4 53q0 50 12 97q25 98 92.5 173.5t161.5 114.5l23 11l71 18q7 3 49 8q4 0 12.5 1t12.5 1l25 2h38q9 0 13 -2h24q9 0 25 -4l24 -2l25 -6q31 -4 47 -10l47 -17q17 -4 23 -10q27 -10 53 -25q73 -39 119 -94q37 -44 37 -84q0 -17 -6 -32q-12 -41 -56 -41
q-33 0 -61 28q-15 15 -15 29q-4 1 3.5 18t17.5 41t10 37q0 3 -1 8.5t-1 8.5q-6 27 -31 54.5t-51 33.5q-10 7 -20 10q-4 3 -12 5t-11 5l-24 8q-49 17 -70 19l-49 8q-8 1 -24.5 2t-24.5 2h-49l-23 -2q-19 0 -25 -2q-42 -5 -49 -8l-47 -11q-10 -2 -22 -8l-25 -8
q-92 -38 -157 -112t-91 -171q-10 -52 -10 -92q0 -102 51 -190q70 -121 209.5 -191t288.5 -75h35q197 0 344 79q88 48 160 111q26 23 51.5 49t54.5 58.5t46 52.5t52 62t47 57q-243 295 -243 704v481q-12 -99 -95 -163t-198 -64q-129 0 -231.5 72.5t-143.5 195.5v-520
q0 -55 36 -90.5t93 -46.5h-410q3 1 10 2t11 2q43 12 75 43t36 80v1171q0 60 -42 94.5t-92 39.5h412q-55 -8 -91.5 -44t-37.5 -90v-555q0 -145 114 -244.5t261 -99.5q113 0 191.5 62t90.5 162q3 15 3 30q0 71 -41 125q-47 59 -132 82q-6 1 -17 2t-17 2q-1 0 -8 -0.5t-9.5 -1
t-9 -1t-10.5 -2t-10.5 -3t-11 -4t-10 -6t-11 -8t-10.5 -9.5q-13 -13 -18 -35t-4.5 -39.5t-9 -33.5t-30.5 -21q-16 -4 -24 -4q-28 0 -50 17.5t-22 44.5q0 2 1 6t1 6q11 65 106 94q50 15 103 15q28 0 63 -7q73 -14 126 -66t63 -124v614q0 60 -41.5 95.5t-89.5 40.5h409
q-52 -8 -87.5 -40.5t-39.5 -82.5v-1184q4 -144 10 -239.5t30 -227t65 -211.5q57 72 107 127t117.5 114.5t133 98.5t147.5 64.5t166 25.5q229 0 299 -166q25 -64 25 -121q0 -124 -90 -229q-66 -75 -164.5 -122.5t-208.5 -53.5l-24 -2h-41q-7 0 -9 2h-6q-8 0 -12 2
q-12 0 -18 2h-7q-8 0 -12 2q-3 1 -9 2t-9 2q-46 8 -49 10q-118 27 -192 77.5t-150 141.5q-74 -94 -125.5 -153t-129.5 -127t-159 -111q-157 -82 -350 -82h-35q-98 5 -196 38t-175 89q-14 7 -63 56l-11 10q-14 15 -25.5 31.5t-18.5 26.5t-9 12q-4 4 -6 10q-40 63 -49 139z
M1229 -563q47 -72 131 -132.5t203 -90.5q13 -7 55.5 -14t64.5 -7q12 -2 37 -2h37q105 6 201 51.5t160 118.5q94 110 94 229q0 54 -25 115q-36 82 -113.5 122t-177.5 40q-85 0 -167 -26.5t-143.5 -63t-132.5 -101.5t-115 -113t-109 -126z" />
    <glyph glyph-name="uniF209" unicode="&#xf209;" 
d="M20 -2q48 5 90 40t42 93v1165q0 60 -41.5 94t-90.5 40h412q-55 -6 -92 -44t-37 -92v-1165q1 -52 37 -86t92 -45h-412z" />
    <glyph glyph-name="uniF210" unicode="&#xf210;" horiz-adv-x="448" 
d="M-1067 -410q-49 82 -49 193q0 100 47 189.5t129 152.5l20 14q4 3 11.5 6.5t11.5 6.5l43 22q12 7 45 21q23 7 25 8l47 14q20 4 24 4q7 3 49 8l25 4h25q3 0 8 1.5t8 1.5q2 0 13 -1.5t20 -1.5q18 0 24 -2l27 -2q3 0 10.5 -1t11.5 -1q2 -1 12 -3t13 -3q11 -1 33 -6
q81 -18 139.5 -64t58.5 -100v-6q-9 -53 -63 -53q-27 0 -47 14q-6 3 -10 6.5t-6.5 7.5t-4 6.5t-2 6.5t-0.5 6v5.5v4.5q0 10 4.5 37.5t4.5 30.5q0 15 -9 30q-21 46 -100 66q-6 3 -23.5 4.5t-23.5 3.5l-25 2q-4 0 -12 1t-12 1h-25q-16 0 -24 -2h-25l-25 -4q-14 0 -22 -2l-25 -4
l-71 -18q-8 -5 -23 -9q-40 -17 -45 -20l-43 -23q-3 -3 -10 -6t-10 -6l-21 -14q-29 -19 -72 -66q-100 -121 -100 -268q0 -95 42.5 -174.5t113.5 -132.5t163.5 -82t194.5 -29q150 0 288.5 58.5t242.5 166.5q5 5 15 16.5t15 16.5q137 162 168 449q13 120 13 204q0 1 -1.5 74
t-1.5 123v830q-4 56 -43.5 89t-87.5 38h412q-55 -8 -91.5 -43.5t-37.5 -88.5v-976q0 -129 -60.5 -289.5t-166.5 -307.5t-228 -229q-130 -91 -295 -127q-71 -12 -137 -12q-41 0 -59 2q-166 14 -281 90q-90 60 -139 141z" />
    <glyph glyph-name="uniF211" unicode="&#xf211;" horiz-adv-x="1157" 
d="M2054 -133q-84 0 -165.5 -26.5t-144 -63.5t-133 -100.5t-116 -113.5t-109.5 -126q127 -196 418 -240q9 0 19 -2t18 -2h19q16 0 18 -2h18q13 0 19 2q98 5 190.5 45t162.5 115t93 170t-16 182q-38 83 -115 122.5t-176 39.5zM74 -778q-78 141 -41 289q52 191 254 290
q52 19 73 23q34 9 70 12q16 0 39 2q44 4 61 2q59 -3 128.5 -19t111.5 -40q1 -1 6 -4t8 -4q1 -1 6.5 -4.5t8.5 -4.5q47 -22 92.5 -65.5t58.5 -85.5q10 -33 -2 -59q-11 -39 -55 -39q-36 0 -62 26q-17 17 -14 33q5 25 10 33q3 6 8.5 18.5t8.5 18.5q6 16 2 41q-12 47 -62 75
q-43 31 -115.5 49t-140.5 21q-20 3 -53 0q-42 -4 -43 -4q-147 -19 -249.5 -99.5t-141.5 -218.5q-15 -71 -6 -143q12 -91 66 -168t132 -126.5t168 -78t179 -32.5q104 -3 194 14q58 13 112 35t96 45t89 60.5t78.5 66t76 78.5t71 81.5t73.5 90.5q-78 92 -137 178
q-309 443 -451 774q-10 22 -30.5 64t-30.5 63q-43 84 -107 219q-128 -101 -272 -125v-469q0 -55 36.5 -91.5t92.5 -45.5h-412q54 8 91 41.5t40 85.5v1165q-3 52 -42 94t-89 46h412q-57 -10 -93 -45t-36 -91v-680q96 17 184.5 67t157 119.5t127 157t98.5 177t66 182.5
q8 28 -17 67q-29 38 -90 46h256q-62 -9 -92 -35t-49 -86q-80 -291 -260 -482q36 -79 63 -131q46 -98 74 -153l78 -162q121 -258 166 -367q73 -181 136.5 -314.5t141.5 -254.5q59 73 107.5 127t117.5 115t133.5 99.5t146.5 64.5t167 26q225 0 299 -168q40 -91 19 -184
q-24 -100 -94.5 -177.5t-164.5 -118.5t-198 -46h-74h-6q-4 2 -12 2q-13 0 -19 2h-6q-8 0 -12 2q-3 1 -9.5 2t-9.5 2q-22 3 -32 6l-17 4q-111 27 -188.5 77.5t-153.5 141.5q-43 -54 -71.5 -88.5t-71 -82t-77 -79t-80.5 -68t-90 -60.5t-98 -45.5t-112 -34.5q-99 -18 -198 -15
q-209 12 -371 127q-1 1 -17 13q-8 6 -24 22q-21 21 -33 31q-26 33 -35 47q-4 5 -8.5 10.5t-6.5 8.5t-3 4q-2 6 -6 10z" />
    <glyph glyph-name="uniF212" unicode="&#xf212;" horiz-adv-x="913" 
d="M178 -20q-68 24 -125 24q-23 0 -33 -2q54 8 93 44t39 89v1161q-6 55 -47 92t-85 42h412q-56 -8 -92 -42.5t-37 -87.5v-1206q0 -67 36.5 -123t98.5 -82q77 -38 148 -55q49 -12 88 -12q22 0 43 6q52 15 67 66q4 16 4 22t-20 76q-4 14 -2 14q0 16 16 29q20 20 49 20
q20 0 36 -12.5t22 -34.5q2 -8 2 -22q0 -57 -55 -109q-67 -64 -131 -67q-12 -3 -29 -3q-49 0 -129.5 28.5t-192.5 75.5t-176 69z" />
    <glyph glyph-name="uniF213" unicode="&#xf213;" horiz-adv-x="1583" 
d="M274 0h-254q56 11 88.5 47t32.5 68v1315h125q13 -25 78 -144t100 -184q293 -540 342 -627q67 117 190 341.5t159 289.5q23 42 83.5 153.5t92.5 170.5h129v-1307q3 -107 7 -176.5t14 -171t31 -182.5t52 -140q59 72 108 126t117.5 114.5t133.5 99.5t146.5 64.5t164.5 25.5
q105 0 185 -41t116 -127q25 -61 25 -118q0 -124 -93 -230q-66 -75 -164 -123.5t-206 -54.5h-25q-42 0 -86 6h-8q-8 0 -12 2q-11 0 -17 2q-46 11 -49 13q-117 27 -192.5 78t-149.5 139q-10 -12 -39.5 -47.5t-42.5 -51t-39 -45.5t-43.5 -48.5t-41.5 -42t-46 -42.5
q-227 -196 -502 -196q-7 0 -22.5 1t-22.5 1q-106 3 -194 34q-206 70 -301 226q-62 99 -62 209q0 42 13 92q28 119 113.5 196.5t209.5 114.5l20 4q20 5 55.5 9.5t74.5 4.5q158 0 293 -75q74 -40 118 -95q37 -47 37 -86q0 -15 -6 -30q-15 -41 -55 -41q-34 0 -62 28
q-14 14 -14 29q-4 1 3.5 18t17.5 41t10 37q0 3 -1 8.5t-1 8.5q-9 40 -51 71t-97.5 47t-105.5 23.5t-90 7.5q-163 0 -292 -84.5t-169 -238.5q-13 -54 -13 -97q0 -153 134 -284q77 -74 186 -119t231 -51h35q278 0 504 192q26 23 52 48.5t54.5 58t46.5 53t52 62t47 57.5
q-242 288 -242 704v1227l-82.5 -148.5t-87.5 -158.5q-31 -57 -149 -270.5t-178 -325.5q5 -9 15 -27.5t15 -27.5l29 -54q68 -133 68 -209q0 -56 -31 -96q-44 -55 -127 -55q-52 0 -87.5 24.5t-41.5 75.5q-2 8 -2 25q0 44 22 100q12 30 58 115l-559 1020v-1241q2 -32 34 -72
q36 -33 88 -43zM1548 -557q63 -101 176.5 -162.5t241.5 -77.5q1 0 18.5 -1t18.5 -1q12 -2 37 -2h37q105 6 200.5 51.5t159.5 118.5q92 105 92 225q0 58 -24 117q-35 82 -113 122t-178 40q-84 0 -165.5 -26t-145 -64t-132.5 -100.5t-115.5 -114t-107.5 -125.5zM659 205
q-18 -41 -18 -80q0 -4 1 -11.5t1 -11.5q4 -40 27 -64t53 -24q43 0 70 47q14 25 14 52q0 29 -14 67q-18 47 -66 125l-12 21q-9 -17 -10 -19q-38 -83 -46 -102z" />
    <glyph glyph-name="uniF214" unicode="&#xf214;" horiz-adv-x="1189" 
d="M-162 1860q-12 46 -12 94q0 103 53 194q3 7 6 11q2 2 9 12t19.5 26t25.5 31l32 33q32 32 41 35q73 54 174 87t197 38h35q193 0 350 -82q102 -56 162 -113q20 -17 39 -35t40 -40.5l35 -37.5t38 -43t33 -39.5t37 -45t34 -41.5q113 166 338 223q4 3 8.5 4t16 3t24.5 5h2
q2 0 17 2t18 2q12 0 18 2q5 0 12 1l7 1h24q15 0 25 2h24q110 -6 208.5 -54t164.5 -124q90 -103 90 -227q0 -60 -24 -121q-75 -168 -301 -168q-84 0 -166 25.5t-147.5 64.5t-133.5 99t-118 115.5t-107 127.5q-127 -205 -127 -645v-1284h-29q-14 21 -165 227t-372 507.5
t-333 455.5v-1073q4 -43 42 -77t83 -40h-256q54 9 98 57q22 31 25 56v1319h24l875 -1182v983v59q0 161 18 297q27 212 111 348q-10 12 -47 58t-53 64.5t-46 53t-56 60t-54 49.5q-72 63 -160 111q-152 82 -344 82h-35q-154 -8 -290 -77t-208 -192q-51 -88 -51 -190
q0 -40 10 -92q23 -95 89.5 -169.5t158.5 -113.5l25 -8q5 -3 22 -6l23 -9l24 -4q7 -3 50 -8q6 -2 24 -2l23 -2h49q8 1 24.5 2t24.5 2l49 8q8 3 23.5 6.5t23.5 6.5q12 2 23 8l24 6q6 6 23 10q3 3 10 5t10 5q34 11 59 37t31 60q3 9 3 16q0 12 -9 37t-16 43t-4 18q0 15 14 29
q27 27 60 27q43 0 57 -39q6 -15 6 -31q0 -41 -35 -86q-44 -56 -123 -98q-41 -24 -61 -31q-3 -3 -11 -5t-12 -5l-34 -12q-6 -3 -13 -3q-28 -9 -47 -12l-24 -6l-25 -2q-32 -4 -49 -4q-1 0 -4 -1t-4 -1l-6 1q-7 1 -13 1h-49q-6 2 -24 2q-8 3 -25 4t-25 4l-47 12q-6 1 -14.5 5
t-9.5 4l-23 8q-93 37 -162 114.5t-92 174.5zM1192 1935q50 -61 89 -104.5t93 -98t105.5 -91t112 -70t128 -50t138.5 -16.5q100 0 178 40t114 122q25 61 25 115q0 120 -94 227q-64 73 -160 118.5t-201 51.5h-37q-34 -2 -36 -2q-1 0 -18.5 -1t-18.5 -1q-53 -8 -84 -16
q-220 -56 -334 -224z" />
    <glyph glyph-name="uniF215" unicode="&#xf215;" horiz-adv-x="1431" 
d="M20 719q0 220 122 410.5t323 271.5q-141 -95 -219 -320q-66 -182 -66 -364v-37q4 -129 40.5 -248t101.5 -214.5t166 -152.5t223 -57q136 0 241 61.5t176 170.5q125 193 125 473v47q-11 234 -101.5 392.5t-227.5 229.5q-74 39 -152 39q-77 0 -140.5 -41.5t-99.5 -111.5
q-10 -18 -17.5 -36.5t-12 -34.5t-7 -29.5t-3 -26t-1 -20t0.5 -15.5v-8q0 -81 32 -152q34 -75 96.5 -113t137.5 -38q120 0 196 82q64 70 64 155q0 68 -45 125q-45 45 -90 45q-15 0 -21 -2q-24 -5 -61 -47q-24 -27 -43 -27q-7 0 -19 4q-49 18 -49 62q0 22 23 45q27 27 73 27
q48 0 99.5 -27.5t89.5 -67.5q53 -59 53 -137q1 -9 -0.5 -25t-18 -58.5t-48.5 -78.5q-84 -84 -199 -84q-77 0 -144 40.5t-102 115.5q-35 71 -35 158q0 31 2 45q18 131 101.5 211t214.5 80q81 0 167 -31.5t165.5 -94.5t142 -148t100 -200.5t37.5 -242.5q0 -141 -53.5 -275
t-144.5 -235.5t-220 -163t-272 -61.5q-144 0 -275 60.5t-223.5 161.5t-147.5 235.5t-55 277.5z" />
    <glyph glyph-name="uniF216" unicode="&#xf216;" horiz-adv-x="1052" 
d="M-954 -629q-4 36 -4 54q0 49 12 96q25 98 92.5 174.5t161.5 114.5l22 10l72 18q8 3 49 8q4 0 12.5 1t12.5 1l24 2h37q10 0 14 -2h25q9 0 25 -4l24 -2l25 -6q30 -4 47 -10l47 -16q16 -4 23 -11q32 -12 53 -24q73 -39 119 -94q36 -43 36 -84q0 -18 -6 -33q-12 -41 -55 -41
q-33 0 -61 28q-15 15 -15 29q-4 1 3.5 18t17.5 41t10 37q0 3 -1 8.5t-1 8.5q-6 27 -31 54.5t-51 33.5q-9 6 -21 10q-4 3 -11.5 5t-10.5 5l-25 9q-46 16 -69 18l-49 8q-8 1 -25 2t-25 2h-49l-22 -2q-19 0 -25 -2q-41 -5 -49 -8l-47 -10q-12 -2 -23 -8l-24 -9
q-92 -38 -157 -111.5t-91 -170.5q-10 -52 -10 -92q0 -103 51 -191q70 -121 209.5 -191t288.5 -75h34q196 0 345 80q88 48 159 110q26 24 51 48.5t56 59.5t45 51t53.5 64t46.5 56q-241 292 -241 704v1153q0 60 -42.5 94t-91.5 40h379q126 0 235 -22t198.5 -67.5t141.5 -123.5
t52 -181q0 -128 -79.5 -211t-216.5 -119t-331 -36h-94v-543q4 -151 9 -240t28.5 -222t64.5 -210q57 72 107 127t118 114.5t133.5 98.5t147.5 64.5t166 25.5q229 0 299 -166q25 -64 25 -120q0 -125 -90 -230q-66 -75 -164.5 -122.5t-208.5 -53.5l-25 -2h-41q-6 0 -8 2h-6
q-8 0 -12 2q-13 0 -19 2h-6q-8 0 -12 2q-3 1 -9.5 2t-9.5 2q-44 8 -49 11q-118 27 -192 77.5t-150 141.5q-55 -70 -93.5 -115.5t-92 -101t-109.5 -98.5t-118 -76q-157 -82 -351 -82h-34q-98 5 -196 38t-175 89q-18 9 -64 55l-10 10q-14 15 -25.5 31.5t-18.5 26.5t-9 12
q-4 4 -6 10q-40 63 -49 139zM408 -553q47 -72 130.5 -132.5t202.5 -90.5q13 -7 56 -14t65 -7q12 -2 37 -2h37q105 6 200.5 51.5t159.5 118.5q95 111 95 230q0 53 -25 114q-36 82 -113.5 122t-177.5 40q-85 0 -167 -26.5t-143.5 -63t-132.5 -101.5t-115 -113t-109 -126z
M301 1421v-743h94q125 0 218.5 28t148.5 77.5t81.5 113t26.5 139.5q0 82 -26.5 149.5t-81.5 121.5t-148.5 84t-218.5 30h-94z" />
    <glyph glyph-name="uniF217" unicode="&#xf217;" horiz-adv-x="1431" 
d="M842 528q-94 0 -164.5 -58t-95.5 -151q-15 -59 -4 -114q10 -66 57 -117.5t113 -81.5q253 17 395 254q-12 114 -99.5 191t-201.5 77zM713 1430q-118 0 -212.5 -47t-156 -129.5t-99 -179t-55.5 -210.5q-13 -108 -10 -188q6 -135 41 -246q50 -180 181 -302t309 -122h2
q-62 36 -103.5 94.5t-44.5 124.5q-6 58 17 121q47 125 166 174q63 26 131 17q107 -12 182 -85.5t90 -179.5q55 104 82 230q23 119 20 256q-5 97 -27 190t-66 181.5t-104.5 154.5t-149 106t-193.5 40zM20 717q0 142 53 275.5t144 234t221.5 161t276.5 60.5q147 0 277.5 -58.5
t221.5 -157t144 -233t53 -282.5q0 -130 -46 -255t-125 -223.5t-194 -166.5t-245 -86q64 -18 108 -23q35 -4 109 -12l227 -19q-3 -15 -12 -45q-13 -41 -14 -43q-244 62 -433 127q-18 7 -28 11q-144 -6 -273 45q-139 50 -245.5 156.5t-163 245.5t-56.5 288z" />
    <glyph glyph-name="uniF218" unicode="&#xf218;" horiz-adv-x="1116" 
d="M481 1421h-178v-825q10 24 29.5 39.5t47.5 22t50 8.5t51 2q414 0 414 376q0 60 -12 127q-21 92 -84.5 150t-141.5 79t-176 21zM1389 -555q68 -108 191 -169.5t263 -74.5h72q98 5 190.5 45t163.5 115t94 170q22 92 -18 182q-36 84 -115 123t-178 39q-83 0 -164 -26
t-145 -64t-132 -99.5t-115.5 -114.5t-106.5 -126zM82 -780l-6 12q-83 133 -43 289q54 196 254 289l22 8l74 18q12 4 25 4q4 1 12 2t12 2q6 2 25 2l24 2h49q114 -3 238.5 -55.5t171.5 -136.5q25 -46 10 -94q-14 -39 -55 -39q-33 0 -61 28q-18 18 -15 33q5 25 10 33
q10 25 15 35q9 17 2 41q-27 119 -316 145q-6 2 -24 2h-25l-24 -2q-6 -2 -25 -2q-16 -4 -24 -4q-9 0 -25 -4l-47 -12q-5 -2 -23 -6l-22 -11q-93 -38 -160 -112.5t-88 -169.5q-18 -69 -8 -144q9 -74 49 -137q74 -124 206.5 -191t289.5 -77q104 -3 194 14q142 32 256 109.5
t221 199.5q19 25 59 74.5t60 73.5q-394 446 -668 971q-52 98 -67 127q-37 67 -68 127q-14 -2 -43 -2q-21 -3 -43 -3q-68 0 -111 -14t-67 -63v-463q3 -51 39 -81t90 -40h-412q43 6 84 35q16 14 33 37q12 21 15 49v1192q-3 31 -15 51q-13 19 -33 35q-38 27 -84 33h465
q78 0 152.5 -11t150.5 -39t132 -70.5t91.5 -111t35.5 -154.5q0 -74 -26 -134.5t-73.5 -103t-106 -71.5t-130.5 -47q14 -25 41 -76t41 -77q52 -103 79 -148q16 -30 44.5 -83.5t39.5 -74.5q117 -212 218 -409q103 -205 208 -365q63 75 110 126t117 113.5t133.5 100t145.5 64
t166 26.5q225 0 299 -168q40 -91 19 -184q-24 -99 -94.5 -176t-164 -118.5t-196.5 -47.5h-27h-43q-7 1 -21.5 2t-21.5 2q-1 0 -3 0.5t-6.5 1.5t-8.5 2q-6 2 -19 2q-24 3 -30 6q-3 1 -9.5 2.5t-9.5 2.5q-107 28 -188.5 80t-153.5 139q-50 -63 -83.5 -103t-83 -94t-93.5 -89.5
t-98 -72t-114.5 -61.5t-127.5 -39q-94 -17 -196 -14q-216 13 -371 127q-1 1 -3 2.5l-6 4.5t-7 5q-20 15 -48 43l-12 10q-26 33 -35 47q-14 21 -16 23z" />
    <glyph glyph-name="uniF219" unicode="&#xf219;" horiz-adv-x="944" 
d="M33 315q-13 47 -13 78v11t3 23.5t8.5 31.5t17 30.5t27.5 26.5q17 10 33 10q25 0 42.5 -20.5t22.5 -52.5v-9q0 -23 -18.5 -34.5t-44 -24.5t-37.5 -35q-13 -26 -13 -51q0 -48 41 -115q60 -87 161 -135.5t222 -48.5q31 0 47 2q93 5 194.5 89.5t113.5 176.5q2 14 2 41
q0 117 -101 199q-17 13 -38.5 26.5t-39.5 23.5t-47 23.5t-44.5 20.5t-50.5 22t-48 21q-54 23 -86 37.5t-81 40t-78 47.5t-63.5 56t-53.5 69t-32 82.5t-13 101.5q0 65 26 132t76 120q113 119 307 119h25q184 -9 319 -156q94 -103 94 -188q0 -43 -24 -70q-17 -20 -45 -20
q-48 0 -68 51q-6 12 -6 23q0 18 25 43q1 1 9.5 9t11 11.5t8.5 11t9 15t5 16.5q0 3 1 8t1 8q0 32 -29 72q-27 35 -53 55q-127 103 -287 103q-6 0 -18 -1t-17 -1q-135 -17 -210.5 -85.5t-86.5 -166.5q0 -4 -1 -13.5t-1 -13.5q0 -117 111 -196q15 -11 31 -21.5t37.5 -21
t35 -17.5t42 -19.5t38.5 -16.5t44.5 -18t41.5 -17q53 -22 86.5 -37t81 -40.5t77.5 -48t64 -56t52.5 -69t31.5 -82.5t13 -100q0 -164 -113 -280t-287 -133q-7 0 -20.5 -1t-20.5 -1q-111 0 -204 41q-72 31 -126 80.5t-83 111.5q-26 54 -37 96z" />
    <glyph glyph-name="uniF220" unicode="&#xf220;" horiz-adv-x="1046" 
d="M-653 -629q-4 36 -4 54q0 49 12 96q25 98 92.5 174.5t161.5 114.5l22 10l47 14l25 4q7 3 49 8q6 2 25 2l24 2h52q5 -1 15 -1t18.5 -1t15.5 -4l24 -2l25 -6q31 -4 47 -10l47 -16q16 -4 23 -11l24 -8q4 -3 14.5 -8.5t14.5 -7.5q73 -39 119 -94q36 -43 36 -84q0 -18 -6 -33
q-12 -41 -55 -41q-33 0 -61 28q-15 15 -15 29q-4 1 3.5 18t17.5 41t10 37q0 3 -1 8.5t-1 8.5q-6 27 -31 54.5t-51 33.5q-10 7 -20 10q-4 3 -12 5t-11 5l-25 9q-46 16 -69 18l-49 8q-8 1 -25 2t-25 2h-49l-22 -2q-19 0 -25 -2q-42 -5 -49 -8l-47 -10q-12 -2 -23 -8l-24 -9
q-92 -39 -158 -112.5t-90 -169.5q-10 -52 -10 -92q0 -101 51 -191q70 -121 209.5 -191t288.5 -75h35q195 0 344 80q88 48 159 110q26 24 51 48.5t56 59.5t45 51t53.5 64t46.5 56q-241 290 -241 702v1280h-269q-40 0 -108 -22q-30 -11 -47 -21v52h993v-52q-12 7 -45 21
q-52 19 -105 22h-270v-1292q4 -144 10 -239t30 -226.5t65 -208.5q57 72 107 127t117.5 114.5t133 98.5t147.5 64.5t166 25.5q229 0 299 -166q25 -64 25 -120q0 -125 -90 -230q-66 -75 -164.5 -122.5t-208.5 -53.5h-25q-24 0 -86 4h-6q-8 0 -12 2q-3 1 -9 2t-9 2
q-45 8 -50 11q-118 27 -192 77.5t-150 141.5q-55 -70 -93.5 -115.5t-92 -101t-109.5 -98.5t-118 -76q-157 -82 -351 -82h-34q-98 5 -196 38t-175 89q-10 3 -41 34q-21 21 -33 31q-14 15 -25.5 31.5t-18.5 26.5t-9 12q-4 4 -6 10q-40 63 -49 139zM709 -553q78 -124 222 -185
t306 -61q105 6 200.5 51.5t159.5 118.5q95 111 95 230q0 53 -25 114q-36 82 -113.5 122t-177.5 40q-85 0 -167 -26.5t-143.5 -63t-132.5 -101.5t-115 -113t-109 -126z" />
    <glyph glyph-name="uniF221" unicode="&#xf221;" horiz-adv-x="1280" 
d="M-950 1882q-13 50 -13 94q0 102 54 195q2 6 6 10q2 2 9 12t18.5 26.5t25.5 31.5l33 33q31 30 41 34q73 54 173.5 87t196.5 38h35q194 0 351 -82q61 -33 117 -75.5t112 -101.5t89.5 -99t94.5 -115q75 89 148.5 138t193.5 81q5 3 49 11q13 0 19 2q4 1 8.5 2t6.5 1.5t3 0.5
q13 0 19 2q5 0 12 1l6 1h25q14 0 24 2l25 -2q110 -6 208.5 -53.5t164.5 -122.5q90 -103 90 -228q0 -56 -25 -120q-36 -86 -115 -127t-184 -41q-83 0 -164.5 25.5t-147.5 64.5t-134 98.5t-119 115t-107 126.5q-30 -58 -51 -139.5t-31.5 -181t-14.5 -172t-7 -173.5v-754
q0 -256 117 -395q103 -125 274 -125q33 0 49 2q177 17 280 152.5t103 316.5v840q-2 34 -34 67.5t-87 43.5h254q-42 -5 -80.5 -39t-42.5 -76v-836q0 -215 -129 -354t-331 -139q-109 0 -202.5 33t-166.5 98t-114.5 170.5t-41.5 240.5v738q3 408 244 698q-13 16 -47 57.5
t-52 62t-46.5 53t-54.5 58t-52 48.5q-120 103 -247.5 147.5t-290.5 44.5q-154 -8 -290.5 -76.5t-207.5 -191.5q-51 -88 -51 -191q0 -40 10 -92q24 -97 89.5 -170t158.5 -112l22 -9q3 -1 25 -8l47 -10q8 -3 49 -8q6 -2 23 -2l24 -2h49q8 1 24.5 2t24.5 2l50 8l69 18l23 9
q4 3 11.5 5t10.5 5q4 3 12 5t11 5q70 32 82 88q0 2 1 7t1 7q0 12 -10 37.5t-17.5 43.5t-3.5 18q0 14 14 28q29 29 62 29q43 0 55 -41q6 -15 6 -31q0 -39 -37 -86q-43 -54 -118 -94q-5 -3 -15.5 -7t-15.5 -7q-6 -6 -23 -10q-3 -3 -10.5 -5.5t-11.5 -5.5l-47 -16
q-17 -6 -47 -10l-25 -6l-24 -2q-40 -5 -52 -5q-6 -2 -24 -2h-25l-24 2q-6 2 -25 2q-8 3 -24.5 4.5t-24.5 4.5l-47 12q-3 1 -25 8l-22 8q-93 37 -162 114.5t-92 174.5zM403 1956q45 -54 76.5 -90t79.5 -85t87.5 -81.5t92 -68.5t102 -57t109 -34.5t121.5 -13.5q100 0 177.5 40
t113.5 122q24 58 24 114q0 120 -94 230q-64 73 -159.5 118.5t-200.5 51.5h-21q-83 0 -90 -7q-125 -12 -239.5 -75.5t-178.5 -163.5z" />
    <glyph glyph-name="uniF222" unicode="&#xf222;" horiz-adv-x="1335" 
d="M-1092 1909v8q0 152 135.5 273.5t327.5 133.5h74q2 -2 6 -2h12q6 -2 19 -2l20 -4q6 -2 17 -2q22 -3 32 -6l17 -4q117 -31 192 -81t150 -138q10 12 47 56.5t52.5 63t45.5 52t55.5 58.5t51.5 48q210 184 479 195h27q40 0 115 -11.5t120 -25.5q107 -39 176 -90q9 -3 41 -35
q21 -21 33 -31q14 -17 26 -33t18.5 -25t8.5 -11q1 -3 3 -5t3 -5q54 -93 54 -199q0 -33 -11 -90q-25 -98 -93 -175t-161 -114l-24 -10q-18 -4 -23 -6l-24 -9l-25 -4q-7 -3 -49 -8q-6 -2 -25 -2l-24 -2h-49q-8 1 -25 2t-24 2l-50 8l-49 13l-24 8l-23 8q-4 1 -11 4t-11 4
q-4 3 -12 5t-11 5q-2 1 -13 7t-16 10q-70 34 -120 94q-37 44 -37 86q0 16 6 31q14 39 57 39q33 0 60 -27q14 -14 14 -29q4 0 -3.5 -18t-17.5 -43t-10 -37q0 -2 1 -7t1 -7q6 -26 31.5 -54t50.5 -34q7 -7 23 -11q3 -3 10.5 -5t11.5 -5l23 -8q4 -1 11 -3t11 -3q23 -9 50 -12
l47 -9q8 -1 24.5 -2t24.5 -2h49l24 2q19 0 25 2q4 1 21 3.5t26 3.5l47 12q3 0 25 8l22 8q94 39 159.5 112.5t88.5 170.5q12 47 12 94q0 80 -34 150q-3 7 -9.5 18t-9.5 18q-71 123 -208 193.5t-287 75.5h-35q-198 0 -344 -80q-83 -44 -162 -113q-15 -13 -29.5 -26.5
t-31 -30.5t-27 -27.5t-29.5 -32.5t-25.5 -29.5t-28.5 -34t-25.5 -30.5t-29 -34.5t-26.5 -32.5q44 -53 82 -118t63 -120.5t52 -137t41.5 -131.5t39.5 -144t37 -136q27 -111 80 -223t104 -190t131.5 -198t129.5 -204v2q73 134 164 299t183.5 332t119.5 217q2 8 2 23
q0 71 -84 86h254q-40 -7 -87.5 -37t-72.5 -72q-70 -121 -240.5 -431t-232.5 -427v-2q80 -140 103 -201q50 -135 -7 -211q-44 -55 -127 -55q-52 0 -87.5 24.5t-41.5 75.5q-2 8 -2 25q0 41 23 100q7 18 17 38t21.5 42t16.5 33q-44 76 -129.5 203.5t-147 222.5t-129.5 234.5
t-106 275.5q-19 72 -34.5 191t-26 212t-41.5 202t-80 185q-113 -141 -212 -231t-231 -154q-109 -47 -227 -47q-140 0 -229.5 72t-96.5 207zM-1075 1985q-8 -27 -8 -64q0 -63 26 -119q35 -82 112 -122t177 -40q83 0 164.5 26t145.5 64.5t133 100.5t117 114.5t108 125.5
q-72 113 -211 179t-281 66l-6 -1q-7 -1 -12 -1h-19q-161 -9 -286.5 -103t-159.5 -226zM551 217q-21 -54 -21 -90q0 -3 1 -10.5t1 -10.5q6 -41 29 -65.5t53 -24.5q44 0 70 47q8 16 8 39q0 37 -20 91q-8 22 -20.5 46t-27.5 50.5t-20 36.5q-41 -80 -53 -109z" />
    <glyph glyph-name="uniF223" unicode="&#xf223;" horiz-adv-x="2609" 
d="M-1104 1903v8q0 152 135.5 273.5t327.5 133.5h74q2 -2 6 -2h12q6 -2 19 -2l20 -4q6 -2 16 -2q24 -3 33 -6l17 -4q117 -31 192 -81t150 -138q54 67 87 106.5t85 94.5t91.5 87.5t95 70.5t109 58.5t121.5 36.5t142 19h26q41 0 116 -11.5t120 -25.5q107 -39 176 -90
q9 -3 41 -35q21 -21 33 -31q14 -17 26 -33t18.5 -25t8.5 -11q1 -3 3 -5.5t3 -5.5q53 -91 53 -198q0 -38 -10 -90q-25 -98 -93 -175t-161 -114l-24 -10q-18 -4 -23 -6l-24 -9l-25 -4q-7 -3 -49 -8q-6 -2 -25 -2l-24 -2h-50q-8 1 -25 2t-24 2l-49 8l-49 13q-2 0 -25 8l-22 8
q-4 1 -11.5 4t-11.5 4q-4 3 -11.5 5t-10.5 5q-2 1 -13 7t-16 10q-72 35 -121 94q-37 44 -37 86q0 13 7 31q14 39 57 39q32 0 59 -27q15 -15 15 -29q4 0 -3.5 -18t-17.5 -43t-10 -37q0 -2 1 -7t1 -7q6 -26 31.5 -54t50.5 -34q7 -7 22 -11q3 -3 11 -5t12 -5l23 -8q4 -1 11 -3
t11 -3q28 -10 49 -13l47 -8q8 -1 24.5 -2t24.5 -2h50l24 2q19 0 25 2q7 1 47 6l47 13q3 0 25 8l22 8q94 39 159.5 112.5t88.5 170.5q10 52 10 92q0 100 -51 188q-71 123 -208.5 193.5t-287.5 75.5h-34q-199 0 -345 -80q-80 -42 -161 -113q-15 -13 -29.5 -26.5t-31 -30.5
t-27 -27.5t-29.5 -32.5t-25.5 -29.5t-28.5 -34t-25.5 -30.5t-29 -34.5t-26.5 -32.5q46 -54 85 -121t65 -126t53.5 -143t42.5 -139t38.5 -148t36.5 -139q34 -117 94 -233t129 -218t140 -209t142.5 -249t121.5 -295q1 1 2 3t2 3q0 2 2 2q23 42 81 146.5t89 161.5
q46 85 159 290.5t169 307.5q-5 9 -15.5 27.5t-15.5 27.5l-29 53q-67 131 -67 209q0 56 31 96q45 56 124 56q51 0 87 -25t42 -76q3 -12 3 -24q0 -38 -22.5 -98.5t-55.5 -116.5q11 -20 39 -73t45 -83q79 -149 188 -344q56 -101 128 -234.5t114.5 -212t52.5 -92.5
q25 79 107 326t180 540.5t133 399.5q4 12 4 20q0 29 -21.5 54.5t-72.5 34.5h254q-42 -5 -92 -38t-64 -77q-410 -1226 -438 -1317h-115l-61 113q-30 54 -205 375t-254 468q-116 -209 -314 -572t-210 -384h-117q-12 69 -37 137.5t-66.5 142.5t-74 125.5t-93 142t-90.5 136.5
q-96 149 -163.5 277.5t-112.5 273.5q-20 74 -37 197.5t-28 222t-43 212.5t-83 191q-113 -142 -211.5 -231.5t-230.5 -153.5q-109 -47 -227 -47q-140 0 -229.5 72t-96.5 207zM-1087 1978q-9 -30 -9 -63q0 -61 27 -119q35 -82 112 -122t177 -40q83 0 164.5 26t145.5 64.5
t133 100t116.5 114t107.5 125.5q-71 112 -210.5 179t-280.5 67l-7 -1q-7 -1 -12 -1h-18q-161 -9 -286.5 -103.5t-159.5 -226.5zM1354 1368q-15 -21 -15 -49q0 -30 15 -68q18 -49 67 -129l11 -18q3 4 10 18q3 6 13.5 27.5t14 29t11.5 25t11 27t7.5 23.5t6 26t1.5 23
q0 4 -1 11t-1 11q-6 41 -28 65.5t-52 24.5q-38 0 -71 -47z" />
    <glyph glyph-name="uniF224" unicode="&#xf224;" horiz-adv-x="1210" 
d="M20 1430h306q-25 -19 -25 -44q0 -34 35 -83q66 -99 177.5 -274t156.5 -243q282 472 325 537q11 18 11 33q0 59 -86 74h256q-42 -5 -95 -39t-77 -74q-10 -15 -328 -539q265 -409 309 -477q81 -125 250 -430t242 -416q64 76 109.5 125.5t116 113.5t133 101t145 63.5
t167.5 26.5q105 0 184 -41t115 -127q25 -64 25 -120q0 -125 -90 -230q-66 -75 -164.5 -122.5t-208.5 -53.5h-24q-25 0 -87 4q-1 0 -3 0.5t-6.5 1.5t-8.5 2q-6 2 -18 2q-18 3 -31 6.5t-19 4.5q-117 31 -192.5 81.5t-149.5 137.5q-8 -10 -33.5 -41t-36 -43.5t-32.5 -39.5
t-36.5 -42.5t-34.5 -37.5t-38.5 -40t-37.5 -35q-84 -71 -164 -113q-150 -81 -348 -81h-35q-216 13 -371 127q-3 2 -15 12.5t-26.5 23.5t-21.5 19l-13 10q-13 17 -25 33.5t-18 25.5t-8 11q-2 6 -6 10q-55 91 -55 192q0 48 12 97q50 198 254 291l22 8q2 0 25 8l49 10q6 3 49 8
q2 2 13 2h12l24 2h50q8 -1 24.5 -2t24.5 -2l49 -8l49 -12q5 -1 13.5 -4.5t9.5 -3.5l24 -6q7 -7 23 -11q3 -3 10.5 -5t11.5 -5q5 -3 14.5 -8t14.5 -8q75 -40 121 -95q37 -44 37 -86q0 -12 -7 -30q-14 -39 -57 -39q-33 0 -59 26q-15 15 -15 29q-3 0 4 18t16 42.5t9 35.5
q0 13 -2 19q-12 49 -59 76q-3 3 -10.5 6t-10.5 6q-4 3 -11 5t-11 5q-4 1 -11.5 4t-11.5 4l-47 17q-17 6 -47 10l-25 6l-22 2q-32 4 -49 4q-1 0 -4.5 1t-4.5 1l-6 -1q-5 -1 -10 -1h-49q-6 -2 -25 -2q-8 -3 -24.5 -4t-24.5 -4l-47 -12q-5 -3 -22 -6l-23 -11q-93 -37 -159 -111
t-89 -171q-12 -49 -12 -97q0 -99 53 -184q66 -118 208 -190.5t288 -77.5q5 0 16.5 -1t16.5 -1q1 0 67 4q68 6 131 23t113.5 38.5t103.5 59t90.5 69.5t87 85.5t81.5 91.5t83 102q-154 181 -336 419t-294 418q-80 121 -240 367q-190 -309 -324 -537q-8 -16 -8 -32
q0 -24 20 -46t58 -30h-254q40 3 96 38t80 75q9 16 54.5 91t127 208.5t146.5 240.5q-94 148 -244 378t-186 286q-21 36 -60.5 72t-79.5 43zM1618 -401q-61 -66 -135 -154q125 -201 452 -244h74q105 6 201.5 51.5t161.5 118.5q92 103 92 226q0 55 -25 116q-35 82 -113 122
t-178 40q-277 0 -530 -276z" />
    <glyph glyph-name="uniF225" unicode="&#xf225;" horiz-adv-x="1593" 
d="M-254 -629q-4 36 -4 54q0 49 12 96q25 98 93 175t161 114l23 8q2 1 6.5 2.5l9 3t8.5 2.5l47 12q8 3 25 4t25 4q18 0 24 2h49q4 0 10.5 1t8.5 1q1 0 4 -1t4 -1q17 0 49 -4l25 -2l24 -6q19 -3 47 -12q9 0 13 -2l34 -12q4 -3 12 -5.5t11 -5.5q19 -6 25 -10q4 -3 14 -7t14 -7
q77 -41 119 -94q37 -47 37 -87q0 -15 -6 -30q-12 -41 -56 -41q-33 0 -61 28q-14 14 -14 29q-4 1 3 18t17 41t10 37q0 3 -1 8.5t-1 8.5q-12 56 -82 88q-3 3 -10 5t-10 5q-17 4 -23 10l-24 6q-15 7 -23 9q-8 3 -23.5 6t-23.5 6l-49 8q-8 1 -24.5 2t-24.5 2h-49l-23 -2
q-18 0 -24 -2q-43 -5 -50 -8l-24 -4l-23 -8q-17 -3 -22 -6l-25 -9q-71 -30 -108 -67q-110 -90 -140 -215q-10 -52 -10 -92q0 -103 51 -191q68 -122 206 -191t292 -77h35q192 0 344 82q91 50 160 110q26 23 52 48.5t54.5 58t46.5 53t52 62t47 57.5q-244 294 -244 700v496
q-35 74 -98.5 144.5t-138 131t-151 120t-155.5 135.5t-133 155q-26 34 -69 68t-83 41h324q-31 -12 -31 -46q0 -17 9 -32q30 -57 81 -112t106 -98t122 -95t128 -101.5t124.5 -120t109.5 -147.5q144 237 148 244q88 146 243 403q9 15 9 33q0 15 -2.5 25.5t-21.5 25.5t-56 21
h254q-44 -5 -96 -35t-76 -74q-105 -167 -250 -410q-26 -44 -75.5 -125t-70.5 -116v-545q4 -143 10 -238t30 -225t65 -207q57 72 107 127t118 114.5t133.5 98.5t147.5 64.5t166 25.5q105 0 184 -41t115 -127q24 -59 24 -118l1 -5v-10.5t-0.5 -14.5t-2 -20t-4.5 -23.5
t-8.5 -28.5t-13.5 -32q-55 -119 -187 -198q-113 -67 -248 -76h-65q-6 0 -8 2h-9q-3 0 -7 1t-7 1h-10q-2 0 -4 2h-6q-9 0 -13 2q-12 0 -18 2q-46 11 -49 13q-118 27 -192 77.5t-150 141.5q-60 -74 -94.5 -114.5t-90.5 -99.5t-112 -101.5t-117 -75.5q-157 -82 -350 -82h-35
q-96 5 -197 38t-174 87q-10 3 -41 34l-32 33q-14 15 -26 31.5t-19 26.5t-9 12q-4 4 -6 10q-40 63 -49 139zM1243 -401q-61 -66 -135 -154q61 -101 175.5 -162.5t242.5 -77.5h26q13 0 29 -4h55q105 6 201 51.5t160 118.5q94 107 94 228q0 53 -25 114q-36 82 -114 122t-178 40
q-278 0 -531 -276z" />
    <glyph glyph-name="uniF226" unicode="&#xf226;" horiz-adv-x="993" 
d="M20 -2q129 229 310 557q407 738 432 784q43 77 45 80q-35 3 -130 26.5t-208 54t-156 40.5q-6 2 -20 2q-22 0 -35 -8q-19 -13 -31 -41.5t-25 -48t-38 -19.5q-39 1 -58.5 22t-19.5 44q0 14 6 29q30 57 115 57q65 0 192 -39t265 -78t229 -39q45 0 80 9l-787 -1420
q44 -3 247 -58.5t247 -64.5q6 -2 18 -2q15 0 37 11q17 9 27 28.5t14.5 36t17.5 29t35 12.5q39 -1 58.5 -21.5t19.5 -43.5q0 -14 -6 -29q-21 -37 -67 -49q-21 -6 -48 -6t-104.5 16.5t-173.5 48.5q-274 90 -404 90q-32 0 -84 -10z" />
    <glyph glyph-name="uniF301" unicode="&#xf301;" horiz-adv-x="935" 
d="M-416 -750q-43 82 -43 172q0 43 13 97q24 97 90 171.5t161 116.5q1 2 37.5 12.5t88 20.5t83.5 10q25 0 37 -2q156 -11 268 -75q69 -37 121 -95q37 -44 37 -86q0 -15 -6 -30q-14 -39 -57 -39q-34 0 -60 26q-16 16 -16 31q-4 -1 3.5 15.5t17.5 41t10 37.5q0 3 -1 8.5
t-1 8.5q-12 47 -60 78q-111 59 -256 69q-14 2 -43 2q-122 0 -231 -57q-170 -90 -215 -266q-13 -54 -13 -95q0 -160 129 -284q77 -74 188.5 -119t233.5 -51q7 0 22.5 -1t22.5 -1q275 0 494 194q95 82 252 279q-244 292 -244 706v15q-75 -79 -135.5 -117.5t-140.5 -44.5
q-6 0 -19.5 -1t-19.5 -1q-45 0 -74.5 2.5t-74 18t-77.5 44.5q-79 71 -79 187q0 83 39 147q27 45 73 81.5t95 62t98 52.5t91.5 67t65.5 90q17 42 17 67q0 43 -27 78q-34 41 -86 41q-10 0 -26 -4q-25 -7 -52.5 -43.5t-60.5 -36.5h-8q-58 2 -58 59q0 21 17 41q29 39 92 39
q43 0 91 -19.5t81 -49.5q47 -41 47 -101q0 -65 -47 -135q-45 -67 -123 -145l-53 -54q-71 -71 -100 -133q-21 -45 -21 -94q0 -39 10 -68q26 -80 81 -127t122 -47q19 0 29 2q54 7 107.5 43.5t125.5 110.5v490q0 81 -14 141q-31 144 -127 184q58 -4 108.5 -25t93 -60.5t67 -105
t24.5 -149.5v-514q3 -108 7 -177.5t14 -174t31 -187t52 -141.5q57 72 107 127t118 114.5t133.5 98.5t147.5 64.5t166 25.5q229 0 299 -166q24 -62 24 -120q0 -134 -106 -244q-43 -46 -76 -66q-140 -98 -297 -98q-1 0 -24 1t-33 1q-165 16 -269 73t-196 167
q-157 -197 -252 -279q-225 -194 -510 -194h-35q-218 10 -370 127q-5 2 -29.5 25t-36.5 30l-10 10q-37 39 -70 100zM1044 -401q-61 -66 -135 -154q35 -57 87 -102t106 -71t97 -40t81 -20l45 -7q1 0 18.5 -2t18.5 -2q16 -2 51 -2q88 0 183.5 37t170.5 107q70 66 97.5 133
t27.5 121q0 53 -26 116q-35 82 -113 122t-178 40q-278 0 -531 -276z" />
    <glyph glyph-name="uniF302" unicode="&#xf302;" horiz-adv-x="1320" 
d="M10 1321q0 46 37 76q24 24 76 35.5t98 11.5q174 0 266 -156l115 66q53 31 119 57q130 57 270 57q102 0 171.5 -39t84.5 -86q15 -51 15 -65q0 -26 -8 -50.5t-36 -53t-73 -44.5q-50 -16 -96 -16q-51 0 -92.5 18t-57.5 54q-6 15 -6 26q0 22 18 41t52 19h6q19 -2 30 -16
t14.5 -31t13 -37t26.5 -31q23 -20 61 -20q18 0 33 6q104 40 104 137q0 83 -90 139q-62 39 -168 39q-107 0 -205 -34t-210 -97l-86 -49q47 -83 51 -231v-369q13 117 89.5 203.5t201.5 103.5q9 1 27.5 2t27.5 2q9 -1 29 -2t30 -2q190 -23 283 -180q67 -117 67 -273
q0 -124 -43 -225q-35 -81 -90 -139q-129 -136 -305 -160q-23 -4 -67 -4q-155 0 -267 86q-19 -39 -56 -62.5t-81 -23.5h-127q57 8 92.5 43.5t36.5 89.5v1024q0 24 -4 64q-103 -47 -194 -47q-49 0 -84 14q-8 3 -37 20q-36 28 -54 66q-8 16 -8 43zM530 100q110 -84 238 -84
q115 0 211 74q64 48 107.5 130t56.5 161q12 76 12 131q0 142 -49 250q-83 176 -248 190h-22q-77 0 -141 -38t-101 -105q-9 -17 -16.5 -33.5t-12 -30.5t-7.5 -28t-4.5 -24.5t-2.5 -21t-0.5 -16t0.5 -11.5v-7q0 -83 33 -156q34 -75 95 -113t136 -38q121 0 197 82q63 63 63 106
l2 41q0 74 -45 131q-45 45 -88 45q-14 0 -22 -2q-27 -6 -62 -45q-26 -26 -43 -26q-6 0 -18 4q-51 18 -51 61q0 21 22 43q27 27 74 27q49 0 101.5 -27t86.5 -65q53 -59 53 -103l2 -43q0 -81 -69 -153q-78 -84 -199 -84q-112 0 -188 76t-88 190v-430q0 -32 -13 -58zM20 1321
q0 -24 9 -39q6 -23 49 -61q23 -14 35 -19q32 -14 80 -14q89 0 192 47q-8 83 -36.5 133.5t-90.5 63.5q-18 4 -55 4q-27 0 -41 -2q-142 -28 -142 -113z" />
    <glyph glyph-name="uniF303" unicode="&#xf303;" horiz-adv-x="995" 
d="M23 469q0 6 -1.5 19.5t-1.5 19.5q0 106 43.5 199t120.5 159q70 61 159.5 92t174.5 31h10q71 -2 136.5 -28.5t115 -69t87 -90.5t63.5 -101l-8 -4q-59 117 -159 197t-218 80q-75 0 -146 -35q-116 -55 -169.5 -168.5t-53.5 -253.5q0 -88 21 -180q12 -56 32 -108.5t56 -111
t82 -101.5t114.5 -72t149.5 -31h31q51 0 102 10q13 3 64 18.5t92 24.5q112 25 186 25q148 0 213 -84q31 -42 31 -86v-17q-8 -59 -58 -59q-13 0 -28 6q-37 15 -37 49q0 9 4 25q1 6 5 21.5t6.5 26.5t2.5 15q0 36 -28 62q-24 21 -60 24q-44 7 -72 7q-77 0 -157 -25
q-14 -4 -55 -15t-57.5 -15.5t-51 -12.5t-56.5 -11.5t-51 -6.5t-55 -3q-100 0 -210 50t-185 125q-74 66 -126 173.5t-58 229.5z" />
    <glyph glyph-name="uniF304" unicode="&#xf304;" horiz-adv-x="1320" 
d="M25 481q-2 18 -2 58q0 160 71 280q45 75 116.5 120.5t166.5 51.5h31q129 0 223 -55q106 -62 145 -178v313q11 134 51 211q-6 2 -14 6l-72 43q-112 62 -210.5 96.5t-202.5 34.5q-98 0 -164.5 -36t-81.5 -80q-14 -44 -14 -64q0 -97 104 -137q15 -6 31 -6q37 0 63 22
q16 11 26 30.5t13.5 36t15 30.5t31.5 16h10q30 0 47 -18.5t17 -41.5q0 -11 -6 -26q-16 -35 -57.5 -52.5t-94.5 -17.5q-54 0 -94 15q-117 47 -117 149q0 89 97 150q65 41 176 41q129 0 268 -58q74 -33 119 -59l114 -66q89 156 267 156q50 0 96 -12q25 -4 41 -11q24 -9 37 -22
q37 -30 37 -76q0 -25 -9 -43q-3 -8 -11.5 -20.5t-10.5 -16.5l-14 -14q-8 -8 -17 -14q-56 -35 -121 -35q-43 0 -84 8q-43 12 -110 37q-4 -62 -4 -101v-987q3 -83 76 -119q9 -3 27 -8t26 -8h-125q-70 0 -113 47q-22 22 -31 49q-12 27 -12 60v37q-23 -85 -94 -139t-160 -54
q-5 0 -16.5 1t-16.5 1q-91 4 -179 47t-156 115q-113 122 -129 313zM164 541v-29q0 -69 14.5 -138t43.5 -135t79 -119.5t115 -80.5q58 -23 108 -23q70 0 129.5 36t90.5 88.5t29.5 117t-44.5 117.5q-45 45 -90 45q-15 0 -21 -2q-7 -1 -14.5 -4.5t-12 -6t-11 -8.5t-9 -9t-9 -10
t-7.5 -9q-24 -27 -43 -27q-6 0 -18 4q-50 18 -50 62q0 22 23 45q26 26 74 26q73 0 144 -53.5t91 -124.5v428q-18 73 -69.5 125.5t-108.5 75t-113 22.5h-24q-91 -8 -158.5 -69t-101 -150t-37.5 -194zM969 1366q-26 -50 -35 -127q96 -47 192 -47q42 0 80 12q4 2 12.5 6.5t12 7
t10.5 6.5t11 7.5t9 8.5t9 11l20 35q8 13 8 39q0 43 -32 68q-33 33 -109 45q-12 2 -37 2q-32 0 -59 -6q-65 -15 -92 -68z" />
    <glyph glyph-name="uniF305" unicode="&#xf305;" horiz-adv-x="960" 
d="M23 469v20q0 113 45 209.5t118 159.5t165 98t188 35q79 0 150 -24t127.5 -70.5t90 -122t33.5 -170.5q-18 2 -55 2q-75 0 -158 -12q49 -6 95 -38.5t75 -82.5q37 -65 37 -139q0 -46 -23 -107q-41 -99 -141 -167t-246 -68q-95 0 -181 28t-158 83t-116 149.5t-46 216.5z
M264 348q-26 -48 -26 -104q0 -23 2 -33q109 -188 321 -188h25q101 5 185.5 60t125.5 146q18 39 22 85t-8 91.5t-36.5 84.5t-67.5 66t-98 34q-157 -26 -275.5 -88.5t-169.5 -153.5zM174 604q-6 -46 -6 -92q0 -162 61 -283v19q0 145 183 252q169 99 391 112v11
q0 85 -37.5 164.5t-109 132.5t-158.5 53q-70 0 -128.5 -31.5t-97.5 -84t-63 -115t-33 -130.5z" />
    <glyph glyph-name="uniF306" unicode="&#xf306;" horiz-adv-x="546" 
d="M-909 -750q-43 82 -43 172q0 48 12 97q25 98 91.5 172.5t160.5 113.5q1 2 37.5 12.5t88 20.5t83.5 10q25 0 37 -2q78 -5 140 -20t128 -53q76 -40 119 -95q39 -46 39 -88q0 -12 -7 -30q-15 -41 -59 -41q-33 0 -57 30q-13 16 -13 29q0 11 9 37q18 41 18 59q0 11 -2 17
q-12 48 -59 78q-107 57 -256 67q-16 2 -52 2q-124 0 -223 -57q-171 -90 -215 -266q-12 -50 -12 -95q0 -158 129 -282q77 -74 188.5 -120t233.5 -52h35q283 0 503 192q95 82 252 279q-240 288 -243 702v842h-113v8h207q-59 0 -129 70q-70 63 -70 155q0 81 57 150q37 42 97 61
q58 15 92 15q5 0 15.5 -1t15.5 -1q76 -9 134 -55t58 -99v-12q-5 -27 -20.5 -42.5t-38.5 -15.5q-24 0 -41 17q-27 25 -27 59q0 7 2 30.5t2 25.5q0 13 -6 28q-24 47 -108 47q-26 0 -68 -10q-48 -11 -83 -48t-48.5 -75.5t-13.5 -70.5q0 -23 2 -33q11 -62 69 -108t129.5 -66.5
t143.5 -20.5h80v-8h-187v-850q4 -145 10 -240.5t30 -228t65 -209.5q72 91 137 159t150 134t182.5 101.5t201.5 35.5q105 0 184 -41t115 -127q27 -66 27 -114q0 -62 -25 -123q-49 -117 -159 -193q-136 -96 -297 -96q-2 0 -25 1t-33 1q-163 14 -267.5 71.5t-197.5 166.5
q-137 -168 -203 -233q-24 -25 -48 -46q-225 -194 -510 -194h-35q-212 10 -371 126q-4 2 -28.5 25t-36.5 31l-11 10q-37 39 -69 102zM551 -403q-61 -66 -135 -154q35 -57 86.5 -102t105.5 -71t97 -40.5t81 -20.5l45 -6q33 0 37 -4q16 -2 52 -2q88 0 183.5 37t170.5 107
q125 118 125 253q0 51 -27 117q-35 82 -112.5 122t-180.5 40q-282 0 -528 -276z" />
    <glyph glyph-name="uniF307" unicode="&#xf307;" horiz-adv-x="1013" 
d="M20 485q0 96 32.5 185.5t93.5 163t159 117.5t219 44q118 0 203 -39q39 60 91 102t100 42q15 0 38 -10q35 -17 35 -55.5t-35 -61.5q-13 -8 -26 -8q-19 0 -53.5 18t-51.5 18h-8q-48 -6 -82 -49q124 -55 190 -170t66 -252q0 -225 -144.5 -369.5t-367.5 -144.5
q-160 0 -276 82q-5 -12 -13.5 -27t-13 -24.5t-4.5 -15.5q0 -27 31 -37q20 -10 71 -10h27q47 2 133 2q113 0 195 -4q166 -12 247.5 -73.5t81.5 -160.5v-4q0 -60 -39.5 -108t-104.5 -77t-136.5 -45t-145.5 -20h-57q-160 0 -225 12q-71 14 -122.5 56.5t-51.5 89.5v14
q1 26 18 42t41 16q20 0 41 -15q6 -5 11 -10t8 -10.5t4.5 -9t2.5 -9.5t1 -8v-9v-7v-15q0 -2 -1 -7t-1 -7q0 -43 37 -68q46 -34 127 -43q74 -10 189 4t169 56q100 77 100 182q0 82 -67 146q-50 47 -131 65q-72 16 -140 16q-5 0 -31 -1t-67.5 -2t-81.5 -1q-126 0 -143 45
q-2 4 -2 11q0 24 37 77q-86 64 -131.5 166t-45.5 215zM244 160q83 -113 209 -127q8 -2 26 -2q108 0 197 75q135 109 166 361q4 58 4 80q0 101 -31 186q-38 101 -110 170zM162 545q-6 -53 -6 -101q0 -165 82 -274l458 739q-66 58 -137 68q-4 0 -13 1t-14 1q-120 0 -217 -94
q-128 -121 -153 -340z" />
    <glyph glyph-name="uniF308" unicode="&#xf308;" horiz-adv-x="1089" 
d="M-262 -750q-43 82 -43 172q0 48 12 97q24 97 90.5 171.5t161.5 116.5l10 4q10 4 29.5 10.5t40.5 10.5q72 16 127 16q25 0 39 -2q78 -5 140 -20t128 -53q69 -37 121 -95q37 -44 37 -86q0 -15 -6 -30q-15 -41 -58 -41q-31 0 -59 28q-16 16 -16 31q-4 -1 3 15.5t17 41
t10 37.5q0 3 -1 8.5t-1 8.5q-12 48 -59 78q-111 59 -256 69q-14 2 -43 2q-123 0 -232 -57q-170 -90 -215 -266q-12 -49 -12 -95q0 -160 129 -284q77 -74 188.5 -119t233.5 -51q7 0 22.5 -1t22.5 -1q274 0 494 192q86 77 236 260q10 13 15 19q-240 288 -243 700v522
q0 150 -67 224.5t-165 74.5q-104 0 -186 -74t-82 -186v-561q1 -52 37 -87t92 -46h-412q47 7 87 38t45 85v1186q-3 38 -27.5 66.5t-51 40.5t-55.5 18h285v-670q18 74 71.5 129t133.5 78q59 16 123 16q7 0 20.5 -1t20.5 -1q120 -8 201 -112t81 -265v-14v-467q4 -143 10 -238
t30 -229t65 -211q57 72 107 127t118 114.5t133.5 98.5t147.5 64.5t166 25.5q229 0 299 -166q26 -63 26 -114q0 -64 -24 -123q-49 -116 -160 -193q-140 -98 -297 -98q-1 0 -24 1t-33 1q-165 16 -269 73t-196 167q-157 -197 -252 -279q-225 -194 -510 -194h-35
q-219 10 -371 127q-4 2 -15 11.5t-26 23t-24 20.5l-11 10q-43 49 -69 100zM1198 -399q-70 -77 -135 -156q84 -135 260 -201q89 -31 156 -39q1 0 18.5 -2t18.5 -2q16 -2 51 -2q88 0 183.5 37t170.5 107q70 66 97.5 133t27.5 121q0 50 -27 116q-35 82 -112.5 122t-177.5 40
q-280 0 -531 -274z" />
    <glyph glyph-name="uniF309" unicode="&#xf309;" 
d="M432 4h-412q49 7 88.5 39.5t43.5 89.5v336q0 41 1 99t1 83v205q0 60 -41.5 92.5t-92.5 42.5q17 0 91 -12q37 -6 69 -6q17 0 49 4q80 17 117 80q53 87 53 145v4q0 43 -35 81.5t-102 49.5q51 -26 51 -86q0 -41 -26.5 -68.5t-63.5 -27.5t-63.5 27.5t-26.5 68.5
q0 45 30.5 68.5t74.5 23.5h6q73 0 118 -40t50 -89v-8q0 -45 -52 -159q-20 -43 -28.5 -63t-18.5 -55t-10 -61v-733q1 -52 37 -86t92 -45z" />
    <glyph glyph-name="uniF310" unicode="&#xf310;" horiz-adv-x="428" 
d="M-61 -539l-2 9q84 44 126.5 91t61.5 130q22 94 22 284v893q-12 97 -135 125q10 0 88 -12q39 -6 76 -6q15 0 47 4q36 6 68 27t49 51q55 95 55 147q0 43 -36.5 83t-100.5 50q49 -21 49 -86q0 -41 -25.5 -68.5t-62.5 -27.5q-38 0 -64 27.5t-26 68.5q0 45 31.5 70t77.5 25
q73 0 118 -41t50 -88v-9q0 -47 -52 -161q-20 -43 -28.5 -63t-18.5 -55t-10 -61v-870q0 -183 -98.5 -324t-259.5 -213z" />
    <glyph glyph-name="uniF311" unicode="&#xf311;" horiz-adv-x="972" 
d="M1901 -123q-84 0 -165.5 -26.5t-143.5 -63.5t-132.5 -101t-115.5 -113t-109 -126q66 -107 184 -166.5t258 -75.5q7 -1 21.5 -2t21.5 -2q29 0 43 2q114 9 213.5 58.5t165.5 136.5q35 41 55.5 97t20.5 110q-9 134 -94 203t-223 69zM-72 -778l-6 12q-40 63 -49 139
q-9 79 8 150q42 157 170.5 243.5t298.5 86.5q163 0 297 -76q48 -22 93.5 -66t58.5 -88q10 -30 -2 -57q-12 -41 -56 -41q-32 0 -61 29q-17 17 -14 32q2 13 26 68q6 17 2 41q-7 32 -37 59t-71 42.5t-78.5 25t-71.5 12.5q-49 8 -90 8q-163 0 -288.5 -84t-168.5 -237
q-16 -77 -8 -146q12 -91 66.5 -167.5t133 -126t168.5 -78.5t179 -33q95 0 176 13.5t151 44.5t126.5 67t117 95t108 113.5t112.5 137.5q-189 225 -332.5 424t-249.5 405q-11 18 -16 31q-8 11 -19 29q-12 21 -55 96q-32 54 -49 88q-94 -56 -199 -68v-309q3 -54 38.5 -89
t90.5 -44h-412q55 8 91.5 42t39.5 87v1178q-3 53 -40 86t-91 41h283v-983q169 23 297.5 144.5t167.5 289.5q3 39 -21 69q-30 30 -79 33h254q-127 -11 -148 -110q-19 -81 -63 -157.5t-105 -131.5q4 -7 20.5 -34t26.5 -44q9 -17 28 -48.5t25 -41.5q9 -16 28 -48.5t28 -49.5
q20 -38 55 -97q60 -105 105 -192q177 -347 206 -399q70 -126 107 -181q57 71 107.5 126t118.5 115t134 99t147.5 64.5t164.5 25.5q225 0 299 -168q40 -90 18 -184q-24 -98 -95 -175.5t-165.5 -119.5t-196.5 -47h-24q-43 0 -86 6h-6q-9 0 -13 2q-12 0 -18 2q-24 6 -33 6
q-3 1 -8 3.5t-8 3.5q-110 28 -188.5 77.5t-153.5 139.5q-50 -63 -80.5 -100t-79 -89t-92.5 -88q-147 -135 -348 -180q-94 -17 -199 -14q-98 3 -197.5 35.5t-173.5 89.5l-16 12q-12 9 -25 22q-26 26 -32 31q-30 39 -37 47q-12 18 -17 23z" />
    <glyph glyph-name="uniF312" unicode="&#xf312;" 
d="M432 4h-412q3 1 9.5 2t9.5 2q44 12 76.5 43t36.5 82v1178q-4 56 -43.5 88t-88.5 39h283v-1301q1 -52 37 -87t92 -46z" />
    <glyph glyph-name="uniF313" unicode="&#xf313;" horiz-adv-x="1730" 
d="M20 991h285v-223q18 74 71.5 129t133.5 78q59 16 123 16q7 0 20.5 -1t20.5 -1q96 -8 170.5 -76.5t99.5 -187.5q6 87 62.5 155.5t150.5 94.5q56 16 121 16q27 0 41 -2q122 -8 203.5 -112.5t81.5 -278.5v-467q3 -108 7 -177.5t14 -174t31 -187t52 -141.5q57 72 107 127
t118 114.5t133.5 98.5t147.5 64.5t166 25.5q229 0 299 -166q26 -63 26 -114q0 -64 -24 -123q-48 -114 -162 -193q-140 -98 -297 -98q-2 0 -24 1t-31 1q-168 16 -270 72.5t-195 167.5q-6 -8 -30 -37t-32 -38.5t-29 -35t-32 -37.5t-30 -33.5t-33 -35t-31.5 -30.5t-34.5 -32
q-225 -194 -512 -194h-35q-220 10 -371 126q-8 2 -40 35q-21 21 -33 31q-47 50 -70 100q-45 83 -45 177q0 45 12 92q26 97 92.5 171.5t161.5 116.5h-2l10 4q11 4 30.5 10.5t39.5 10.5q72 16 127 16q25 0 39 -2q78 -5 140 -20t128 -53q75 -40 121 -95q37 -44 37 -86
q0 -15 -6 -30q-15 -41 -55 -41q-34 0 -62 28q-14 14 -14 29q-4 1 3.5 18t17.5 41t10 37q0 3 -1.5 8.5t-1.5 8.5q-12 50 -61 78q-111 59 -256 69q-14 2 -43 2q-66 0 -129 -16q-120 -37 -202.5 -114.5t-112.5 -192.5q-13 -54 -13 -95q0 -158 131 -284q77 -74 186.5 -119
t231.5 -51q7 0 22.5 -1t22.5 -1q270 0 496 192q26 24 51 48.5t56 59.5t45 51t53.5 64t46.5 56q-244 293 -244 700v524q0 150 -66.5 224.5t-164.5 74.5q-106 0 -187.5 -78t-81.5 -180v-18q4 -28 4 -41v-504q1 -52 37 -87t92 -46h-411q47 5 89 40t42 91v524q0 150 -67 224.5
t-165 74.5q-104 0 -186 -74t-82 -186v-561q1 -52 37 -87t92 -46h-411q47 7 86.5 38t44.5 85v739q-4 55 -46 87t-88 38zM1849 -403q-84 -91 -137 -154q84 -135 260 -201q88 -31 158 -39q1 0 18.5 -2t18.5 -2q16 -2 49 -2q123 0 238 60q67 36 118 84q50 48 82.5 107t34.5 99
q1 10 2 21t1.5 17t0.5 9q0 58 -24 117q-35 82 -112 122t-177 40q-285 0 -531 -276z" />
    <glyph glyph-name="uniF314" unicode="&#xf314;" horiz-adv-x="1095" 
d="M-262 -750q-43 82 -43 172q0 48 12 97q24 97 90.5 171.5t161.5 116.5q1 2 37.5 12.5t88 20.5t83.5 10q25 0 37 -2q156 -11 268 -75q69 -37 121 -95q37 -44 37 -86q0 -15 -6 -30q-15 -41 -58 -41q-31 0 -59 28q-16 16 -16 31q-4 -1 3 15.5t17 41t10 37.5q0 3 -1 8.5
t-1 8.5q-12 48 -59 78q-111 59 -256 69q-14 2 -43 2q-123 0 -232 -57q-170 -90 -215 -266q-12 -49 -12 -95q0 -160 129 -284q77 -74 188.5 -119t233.5 -51q7 0 22.5 -1t22.5 -1q274 0 494 192q91 81 251 281q-243 290 -243 700v520q0 150 -67 224.5t-165 74.5
q-104 0 -186 -74t-82 -186v-561q1 -52 37 -87t92 -46h-412q47 7 87 38t45 85v739q-4 55 -46 87t-88 38h285v-223q18 74 71.5 129t133.5 78q59 16 123 16q7 0 20.5 -1t20.5 -1q120 -8 201 -112t81 -265v-14v-465q4 -145 10 -240.5t30 -229t65 -210.5q57 72 107 127t118 114.5
t133.5 98.5t147.5 64.5t166 25.5q229 0 299 -166q26 -63 26 -114q0 -64 -24 -123q-49 -116 -160 -193q-140 -98 -297 -98q-1 0 -24 1t-33 1q-165 16 -269 73t-196 167q-157 -197 -252 -279q-225 -194 -510 -194h-35q-219 10 -371 127q-4 2 -28.5 24.5t-36.5 30.5l-11 10
q-43 49 -69 100zM1198 -399q-70 -77 -135 -156q35 -57 87 -102t106 -71t97 -40t81 -20l45 -7q1 0 18.5 -2t18.5 -2q16 -2 51 -2q88 0 183.5 37t170.5 107q70 66 97.5 133t27.5 121q0 50 -27 116q-35 82 -112.5 122t-177.5 40q-280 0 -531 -274z" />
    <glyph glyph-name="uniF315" unicode="&#xf315;" horiz-adv-x="1030" 
d="M31 365q-8 47 -8 104q0 164 94 299q29 37 50 61t75 65.5t114 63.5q-98 -52 -147 -167q-51 -117 -51 -254q0 -49 6 -101q23 -229 145 -338q91 -84 213 -84q17 0 49 4q164 22 246 187q53 111 53 264q0 26 -4 76q-8 76 -35.5 155t-70.5 140q-89 127 -205 127q-23 0 -33 -2
q-80 -10 -134 -73t-56 -142q0 -109 72 -171.5t161 -62.5q57 0 95 28t38 81v8q0 42 -32 61q-29 19 -29 51q0 9 4 21t19 24.5t38 12.5q54 0 77.5 -33.5t23.5 -75.5q0 -78 -74 -141q-56 -47 -154 -47q-108 0 -178.5 71.5t-70.5 172.5q0 97 68.5 166.5t166.5 74.5h21
q66 0 133.5 -24.5t127.5 -70t104 -119.5t58 -163q7 -51 7 -88q0 -118 -52.5 -233.5t-162.5 -202.5q-77 -64 -222 -92q-61 -10 -102 -10q-27 0 -39 2q-154 18 -262.5 114.5t-136.5 260.5z" />
    </font>
</defs>
</svg>
