<svg xmlns="http://www.w3.org/2000/svg" viewBox="0 0 1587.48 357.5"><defs><style>.cls-1{fill:#fed925;}</style></defs><g id="Capa_2" data-name="Capa 2"><g id="Capa_1-2" data-name="Capa 1"><path class="cls-1" d="M0,5H242.5V17.5a107,107,0,0,0-11-5,85.23,85.23,0,0,0-25.5-5H140V325c1.5,16.5,15.5,27,31.5,29.5H71c12.5-1.5,30.5-10,32.5-29.5V7.5H38c-10.5,0-19,2.5-26.5,5A79.78,79.78,0,0,0,0,17.5Z"/><path class="cls-1" d="M252.49,354.5c12.5-1.5,30.5-10,32-29.5V34.5C283,14,265,8,252.49,5h114C434.49,5,503,32.5,503,99.5c0,47-35.5,75-82,87,9.5,17.5,18.5,35,27.5,51.5,15.5,29.5,33.5,63.5,47,87.5,5.5,9.5,13,26.5,28,29H453c6-5.5,6.5-12,6.5-16.5,0-2.5-2-13-4.5-17-13.5-24.5-30.5-56.5-44.5-82.5C402,223,394,208,386,192.5c-7.5.5-13.5,1-21,1-22,0-36,3.5-43.5,19V325c1.5,16.5,15,27,31.5,29.5Zm69-146C327,195,342.49,191,365,191c88.5,0,101-53.5,101-91.5C466,61,454.49,7,365,7h-43.5Z"/><path class="cls-1" d="M565.49,322V37.5c0-21.5-19-30-32-32.5H634c-17.5,3.5-31.5,14.5-31.5,33V322.5c.5,17.5,14,29.5,31.5,32H533.49C546.49,353,565.49,343,565.49,322Z"/><path class="cls-1" d="M647,264.5c0,24.5,12,48.5,32.5,65s48,24.5,74,24.5a96.34,96.34,0,0,0,12-.5c29-1.5,71.5-34,75.5-65a54.34,54.34,0,0,0,.5-9c0-19-7.5-35-25-49C799,217,775.49,207,751,197c-49.5-20-99-43.5-99-106,0-20,8-43.5,25-61.5S719.49,0,751.49,0h6c36,1.5,70,21.5,91.5,56l-2,1a9,9,0,0,0-2.5-3.5c-15.5-22.5-34-36-52-43.5a96.72,96.72,0,0,0-40-7.5,63.75,63.75,0,0,0-10,.5c-46,4.5-69.5,31.5-73,61.5,0,2-.5,4.5-.5,6.5,0,40.5,41.5,61.5,93.5,80,34,12.5,64.5,28.5,84.5,54.5,9.5,13,14.5,30,14.5,50.5,0,54-40.5,95.5-98,101a96.34,96.34,0,0,1-12,.5c-26.5,0-54-8-74.5-25.5s-32.5-42-32.5-67.5Z"/><path class="cls-1" d="M972,5c-18,3.5-31.5,15-31.5,33.5V204l154-171c2.5-4,4.5-9,4.5-13,0-1.5,0-12-15.5-15h62c-13.5,2.5-36,16-48.5,28.5-16,18-35.5,40-51,57.5-9,10.5-18,20.5-27.5,30.5,13.5,28.5,27,56,39.5,82.5,21,45,47,97.5,62,128.5,4.5,9.5,12.5,17,24,22h-70.5c7.5-6,7.5-11,7.5-13.5,0-4-1-9.5-4-17-13.5-28-34-73-51.5-109-10.5-21.5-21-43.5-32-66l-53,58.5v114c0,18,13.5,30.5,31.5,33H871.48c13.5-1.5,30.5-11,32-30.5V39C902,19,885,7,871.48,5Z"/><path class="cls-1" d="M1155.48,354.5c13.5-1.5,30-11.5,37.5-33l16.5-49.5c10-30,22.5-69,36-109l53-158H1336c122,340,114,319.5,116,323.5,5.5,11.5,11.5,20,25,26h-68.5c7.5-6,8.5-11.5,8.5-14.5,0-4-1.5-9.5-4-16.5-12-33-41.5-112.5-65.5-182-4,68.5-108.5,67-132.5,120.5-7.5,21.5-14,43-19.5,59a22.65,22.65,0,0,0-1.5,8c0,4,1.5,8.5,4,14s9,9.5,19.5,11.5Zm190-218c-36-100.5-44.5-126-46-128.5-24,73-35.5,108.5-45,137.5l-10,29.5c-6.5,20-14.5,43-26.5,79C1246.48,205.5,1345.48,206,1345.48,136.5Z"/><path class="cls-1" d="M1519,322V37.5c0-21.5-19-30-32-32.5h100.5C1570,8.5,1556,19.5,1556,38V322.5c.5,17.5,14,29.5,31.5,32H1487C1500,353,1519,343,1519,322Z"/></g></g></svg>